<svg xmlns="http://www.w3.org/2000/svg" width="300" height="200" viewBox="0 0 300 200"><rect width="100%" height="100%" fill="#DDDDDD"/><path fill="#999999" d="M62.165 103.165h5.2v2h-7.62v-13.01h2.42zm6.65-7.23h2.23v9.23h-2.23zm2.54-2.7q0 .29-.12.54-.12.26-.31.45-.19.18-.45.3-.26.11-.56.11-.29 0-.55-.11-.25-.12-.44-.3-.19-.19-.3-.45-.12-.25-.12-.54t.12-.55q.11-.26.3-.45t.44-.3q.26-.12.55-.12.3 0 .56.12.26.11.45.3t.31.45.12.55m4.83 11.93h-2.22v-7.56l-.8-.13q-.26-.05-.42-.18t-.16-.37v-.91h1.38v-.69q0-.79.24-1.42t.68-1.07q.45-.44 1.09-.68.63-.23 1.44-.23.63 0 1.18.17l-.04 1.12q-.01.12-.07.2-.07.08-.17.12t-.24.05q-.13.01-.29.01-.39 0-.7.09t-.53.3-.33.56q-.11.34-.11.85v.62h2.4v1.58h-2.33zm5.34-5.68h4.19q0-.43-.12-.81-.12-.39-.36-.67-.25-.29-.62-.46t-.87-.17q-.96 0-1.51.55-.56.55-.71 1.56m5.67 1.34h-5.72q.06.71.26 1.23.19.52.52.86.32.33.77.5.44.17.98.17t.93-.13q.4-.13.69-.28t.51-.28q.22-.12.43-.12.28 0 .41.2l.64.81q-.37.43-.83.73-.46.29-.95.47-.5.17-1.02.24-.52.08-1.01.08-.96 0-1.79-.32-.82-.32-1.44-.95-.61-.63-.96-1.55t-.35-2.14q0-.94.31-1.77.3-.84.87-1.45.58-.62 1.4-.98t1.86-.36q.87 0 1.61.28t1.27.82q.53.53.83 1.31t.3 1.78q0 .5-.11.68-.11.17-.41.17m13.32-2.19h4.32v5.27q-.99.73-2.11 1.07-1.12.33-2.4.33-1.59 0-2.88-.49-1.3-.5-2.21-1.38t-1.41-2.1q-.49-1.23-.49-2.68 0-1.46.47-2.69.48-1.22 1.36-2.1.88-.89 2.13-1.37 1.25-.49 2.8-.49.8 0 1.49.13.68.12 1.27.34t1.08.54q.49.31.89.69l-.69 1.1q-.16.26-.43.32-.26.06-.56-.13l-.6-.34q-.29-.17-.66-.3-.36-.13-.82-.21-.45-.08-1.05-.08-.96 0-1.74.33-.78.32-1.32.92-.55.61-.85 1.45-.3.85-.3 1.89 0 1.12.32 2 .32.87.9 1.48t1.4.93 1.83.32q.72 0 1.29-.16.56-.15 1.1-.41v-2.36h-1.64q-.23 0-.36-.13t-.13-.32zm8.27-2.15.13 1.05q.44-.83 1.03-1.3.59-.48 1.4-.48.64 0 1.03.28l-.14 1.67q-.05.16-.13.23-.09.07-.23.07t-.4-.05q-.27-.04-.52-.04-.37 0-.66.1-.29.11-.52.31-.22.21-.4.49-.18.29-.33.66v5.69h-2.22v-9.23h1.3q.34 0 .48.12.13.12.18.43m8.84-.7q1.02 0 1.87.33.84.34 1.44.95.59.61.92 1.49.32.89.32 1.97 0 1.1-.32 1.98-.33.89-.92 1.51-.6.62-1.44.95-.85.34-1.87.34-1.04 0-1.88-.34-.85-.33-1.45-.95t-.92-1.51q-.33-.88-.33-1.98 0-1.08.33-1.97.32-.88.92-1.49t1.45-.95q.84-.33 1.88-.33m0 7.8q1.15 0 1.7-.77.56-.77.56-2.27 0-1.49-.56-2.27-.55-.79-1.7-.79-1.17 0-1.73.79-.57.79-.57 2.27 0 1.49.57 2.27.56.77 1.73.77m11.99-7.65h2.22v9.23h-1.36q-.44 0-.56-.41l-.15-.73q-.57.57-1.25.93-.69.35-1.61.35-.76 0-1.34-.25-.58-.26-.98-.73-.39-.47-.59-1.11-.21-.64-.21-1.42v-5.86h2.23v5.86q0 .85.39 1.31.39.47 1.17.47.58 0 1.08-.26.51-.26.96-.71zm6.64 2.7v4.14q.38.45.82.64.45.19.97.19.5 0 .91-.19.4-.19.69-.57.28-.39.43-.98.16-.59.16-1.39 0-.81-.13-1.37-.14-.56-.38-.92-.24-.35-.59-.51-.34-.16-.78-.16-.7 0-1.18.29-.49.29-.92.83m-.3-2.3.18.86q.57-.64 1.29-1.04t1.69-.4q.76 0 1.38.32.63.31 1.08.91.46.6.7 1.48.25.88.25 2.01 0 1.04-.28 1.92t-.79 1.53q-.52.65-1.26 1.01-.73.37-1.64.37-.77 0-1.32-.24t-.98-.67v3.79h-2.22v-12.25h1.35q.44 0 .57.4m21.23-2.26h-5.78v3.61h4.56v1.86h-4.56v3.68h5.78v1.94h-8.21v-13.01h8.21zm4.57 9.09h5.2v2h-7.63v-13.01h2.43zm6.5-2.51v-1.85h4.66v1.85zm14.67-7.28-.6 1.14q-.11.19-.23.28-.12.08-.3.08-.19 0-.41-.14t-.53-.31q-.3-.17-.71-.31t-.97-.14q-.5 0-.88.12-.38.13-.64.34-.25.22-.38.52t-.13.66q0 .46.26.77.26.3.68.52.42.21.96.38l1.11.37q.57.19 1.11.45t.96.65.68.96q.26.56.26 1.37 0 .88-.31 1.65-.3.77-.88 1.35-.58.57-1.41.9-.84.32-1.92.32-.62 0-1.23-.12-.6-.12-1.15-.34-.56-.23-1.04-.54-.49-.32-.87-.71l.72-1.16q.09-.12.23-.21.14-.08.31-.08.22 0 .48.18t.62.41q.36.22.84.41.49.18 1.16.18 1.04 0 1.6-.49.57-.49.57-1.41 0-.51-.26-.83-.25-.33-.68-.55-.42-.22-.96-.37t-1.1-.33-1.1-.44q-.54-.25-.96-.65-.42-.41-.68-1.01-.25-.61-.25-1.5 0-.71.28-1.39.28-.67.82-1.2.54-.52 1.33-.83.8-.32 1.82-.32 1.15 0 2.13.36.97.36 1.65 1.01m10.88-1.22h2.43v13.01h-2.43v-5.69h-6.11v5.69h-2.43v-13.01h2.43v5.59h6.11zm8.07 8.1h4.14l-1.59-4.33q-.11-.29-.24-.69-.13-.39-.25-.85-.12.46-.24.86-.13.4-.25.69zm3.3-8.1 5.11 13.01h-1.87q-.31 0-.51-.16t-.3-.39l-.97-2.65h-5.39l-.97 2.65q-.08.21-.28.38-.21.17-.52.17h-1.89l5.12-13.01zm18.02 6.5q0 1.43-.48 2.63t-1.34 2.06q-.86.87-2.08 1.34-1.21.48-2.7.48h-4.96v-13.01h4.96q1.49 0 2.7.48 1.22.48 2.08 1.34t1.34 2.05q.48 1.2.48 2.63m-2.49 0q0-1.07-.28-1.92t-.82-1.44q-.53-.59-1.29-.9-.76-.32-1.72-.32h-2.53v9.16h2.53q.96 0 1.72-.31.76-.32 1.29-.91.54-.59.82-1.44t.28-1.92m7.36 1.6h4.14l-1.59-4.33q-.11-.29-.24-.69-.13-.39-.25-.85-.12.46-.24.86-.13.4-.25.69zm3.3-8.1 5.11 13.01h-1.87q-.31 0-.51-.16t-.3-.39l-.97-2.65h-5.39l-.97 2.65q-.08.21-.28.38-.21.17-.52.17h-1.89l5.12-13.01zm8.89 0v13.01h-2.43v-13.01z"/></svg>