<svg xmlns="http://www.w3.org/2000/svg" width="300" height="200" viewBox="0 0 300 200"><rect width="100%" height="100%" fill="#DDDDDD"/><path fill="#999999" d="M60.565 103.345h5.49v2.11h-8.05v-13.74h2.56zm7.02-7.64h2.36v9.75h-2.36zm2.68-2.84q0 .31-.12.57-.13.27-.33.47-.21.2-.48.32-.28.11-.59.11-.3 0-.58-.11-.27-.12-.47-.32t-.31-.47q-.12-.26-.12-.57t.12-.59q.11-.27.31-.47t.47-.32q.28-.12.58-.12.31 0 .59.12.27.12.48.32.2.2.33.47.12.28.12.59m5.1 12.59h-2.35v-7.98l-.84-.13q-.28-.06-.44-.2-.17-.14-.17-.39v-.96h1.45v-.72q0-.84.26-1.5.25-.67.72-1.13.47-.47 1.14-.72.68-.24 1.52-.24.68 0 1.26.18l-.05 1.17q-.01.14-.08.22-.06.08-.17.12t-.25.06q-.15.01-.31.01-.42 0-.74.09-.33.09-.56.32-.23.22-.35.59-.12.36-.12.9v.65h2.54v1.67h-2.46zm5.63-5.99h4.43q0-.46-.13-.86-.13-.41-.38-.71-.26-.31-.65-.48-.4-.18-.92-.18-1.02 0-1.6.58t-.75 1.65m5.99 1.41h-6.03q.05.75.26 1.3.21.54.55.9.35.36.82.53.47.18 1.04.18t.98-.13q.41-.14.72-.3t.54-.29q.24-.14.45-.14.3 0 .44.22l.68.86q-.39.45-.88.76-.48.31-1.01.5-.53.18-1.07.26-.55.07-1.06.07-1.02 0-1.89-.33-.88-.34-1.52-1-.65-.66-1.02-1.64-.37-.97-.37-2.25 0-1 .32-1.88.33-.88.93-1.53t1.47-1.03 1.96-.38q.92 0 1.7.3.78.29 1.34.86.56.56.88 1.38t.32 1.88q0 .53-.11.72-.12.18-.44.18m14.06-2.31h4.56v5.56q-1.05.77-2.23 1.13-1.18.35-2.53.35-1.68 0-3.05-.52-1.36-.52-2.32-1.45-.97-.93-1.49-2.23-.52-1.29-.52-2.82 0-1.55.5-2.84.51-1.29 1.43-2.22.93-.93 2.25-1.45 1.32-.51 2.96-.51.84 0 1.56.13.73.14 1.35.37.63.23 1.14.57.51.33.94.73l-.73 1.16q-.17.27-.45.33-.27.06-.6-.13-.31-.19-.62-.37-.32-.18-.7-.31-.39-.13-.87-.22-.48-.08-1.1-.08-1.02 0-1.84.34t-1.4.98q-.58.63-.9 1.53-.31.89-.31 1.99 0 1.18.34 2.11.34.92.95 1.56t1.48.98q.86.34 1.92.34.76 0 1.36-.16t1.17-.44v-2.49h-1.73q-.25 0-.38-.14-.14-.13-.14-.33zm8.73-2.27.14 1.1q.46-.87 1.09-1.37.62-.5 1.48-.5.67 0 1.08.3l-.15 1.75q-.05.18-.14.25t-.24.07q-.14 0-.42-.05t-.55-.05q-.39 0-.69.12-.31.11-.55.32-.24.22-.43.52-.18.31-.34.7v6h-2.35v-9.75h1.38q.36 0 .5.13t.19.46m9.33-.74q1.08 0 1.97.35t1.52 1 .97 1.58q.35.93.35 2.08 0 1.16-.35 2.09-.34.93-.97 1.58-.63.66-1.52 1.01t-1.97.35q-1.09 0-1.99-.35-.89-.35-1.52-1.01-.63-.65-.98-1.58t-.35-2.09q0-1.15.35-2.08t.98-1.58 1.52-1q.9-.35 1.99-.35m0 8.24q1.21 0 1.8-.82.58-.82.58-2.39 0-1.58-.58-2.41-.59-.82-1.8-.82-1.24 0-1.83.83t-.59 2.4q0 1.56.59 2.39.59.82 1.83.82m12.65-8.09h2.35v9.75h-1.44q-.46 0-.58-.43l-.17-.78q-.59.61-1.32.99-.72.37-1.7.37-.79 0-1.41-.27-.61-.27-1.03-.76-.42-.5-.63-1.18t-.21-1.49v-6.2h2.34v6.2q0 .89.42 1.38.41.49 1.24.49.6 0 1.14-.27.53-.27 1-.75zm7.01 2.85v4.37q.4.49.87.69t1.02.2q.54 0 .96-.2.43-.2.73-.61t.46-1.03.16-1.47-.14-1.45q-.13-.59-.39-.96t-.62-.54q-.37-.17-.83-.17-.73 0-1.25.3-.51.31-.97.87m-.31-2.42.19.9q.6-.67 1.36-1.09t1.78-.42q.8 0 1.46.33.66.34 1.14.97t.74 1.56q.27.92.27 2.12 0 1.09-.3 2.02-.29.94-.84 1.62t-1.32 1.07q-.77.38-1.73.38-.82 0-1.4-.25t-1.04-.7v3.99h-2.34v-12.93h1.43q.46 0 .6.43m22.41-2.38h-6.1v3.81h4.81v1.96h-4.81v3.89h6.1v2.04h-8.66v-13.74h8.66zm15.23-2.04h1.93v13.74h-2.25v-8.87q0-.53.05-1.15l-4.15 7.8q-.29.56-.9.56h-.36q-.61 0-.9-.56l-4.2-7.83q.03.31.04.62.02.3.02.56v8.87h-2.25v-13.74h1.93q.17 0 .29.01.13.01.23.05t.18.12q.08.09.16.23l4.11 7.63q.16.3.3.63.14.32.27.66.13-.35.27-.68.15-.33.31-.63l4.05-7.61q.08-.14.17-.23.08-.08.18-.12t.22-.05q.13-.01.3-.01m7.87 8.55h4.37l-1.67-4.57q-.12-.3-.25-.72-.14-.42-.27-.9-.12.48-.26.91-.13.42-.25.73zm3.49-8.55 5.4 13.74h-1.98q-.33 0-.54-.17-.21-.16-.31-.41l-1.03-2.8h-5.69l-1.03 2.8q-.07.22-.29.4t-.54.18h-2l5.41-13.74zm16.15 0h2.25v13.74h-1.31q-.3 0-.51-.1-.2-.1-.39-.34l-7.17-9.16q.05.63.05 1.16v8.44h-2.25v-13.74h1.34q.16 0 .28.02.12.01.21.05.09.05.18.13.08.08.19.21l7.2 9.2q-.03-.33-.05-.66-.02-.32-.02-.6zm10.84 11.68q.74 0 1.33-.25.58-.25.98-.69.4-.45.61-1.08.22-.64.22-1.43v-8.23h2.55v8.23q0 1.23-.39 2.27-.4 1.04-1.13 1.79-.74.76-1.79 1.18-1.06.42-2.38.42-1.33 0-2.38-.42-1.06-.42-1.79-1.18-.74-.75-1.14-1.79-.39-1.04-.39-2.27v-8.23h2.56v8.22q0 .79.21 1.43.21.63.62 1.08.4.45.99.7.58.25 1.32.25m17.24-9.64h-6.1v3.81h4.81v1.96h-4.81v3.89h6.1v2.04h-8.66v-13.74h8.66zm4.82 9.59h5.49v2.11h-8.05v-13.74h2.56z"/></svg>