<svg xmlns="http://www.w3.org/2000/svg" width="300" height="200" viewBox="0 0 300 200"><rect width="100%" height="100%" fill="#DDDDDD"/><path fill="#999999" d="M63.18 104.925h8.09v3.11H59.41v-20.24h3.77zm10.34-11.25H77v14.36h-3.48zm3.95-4.19q0 .45-.18.84t-.48.69q-.3.29-.71.47-.41.17-.87.17-.45 0-.85-.17-.39-.18-.69-.47-.29-.3-.47-.69-.17-.39-.17-.84 0-.46.17-.87.18-.4.47-.7.3-.29.69-.47.4-.17.85-.17.46 0 .87.17.41.18.71.47.3.3.48.7.18.41.18.87m7.52 18.55h-3.46v-11.76l-1.25-.2q-.4-.08-.65-.28-.24-.21-.24-.58v-1.42h2.14v-1.06q0-1.23.37-2.21t1.07-1.67q.69-.69 1.68-1.05 1-.36 2.24-.36 1 0 1.85.26l-.07 1.74q-.01.19-.11.31t-.26.19q-.16.06-.37.08t-.45.02q-.62 0-1.1.13-.48.14-.82.47-.33.32-.51.86-.17.54-.17 1.34v.95h3.73v2.47h-3.62zm8.3-8.83h6.53q0-.68-.19-1.27-.19-.6-.57-1.04-.38-.45-.96-.71t-1.35-.26q-1.5 0-2.36.85-.86.86-1.1 2.43m8.82 2.08h-8.89q.08 1.11.39 1.91.31.81.82 1.33.5.53 1.19.79.7.26 1.53.26.84 0 1.45-.2t1.07-.43q.45-.24.8-.44.34-.19.66-.19.44 0 .64.32l1 1.26q-.58.67-1.29 1.12-.71.46-1.49.73-.78.28-1.58.39-.81.11-1.56.11-1.5 0-2.79-.5-1.29-.49-2.24-1.47-.95-.97-1.5-2.41-.54-1.43-.54-3.32 0-1.47.47-2.77.48-1.29 1.37-2.25t2.17-1.52 2.89-.56q1.36 0 2.5.44 1.15.43 1.98 1.26.82.84 1.29 2.05t.47 2.76q0 .79-.17 1.06-.16.27-.64.27m20.72-3.4h6.72v8.19q-1.54 1.13-3.28 1.66-1.75.52-3.73.52-2.48 0-4.49-.77t-3.43-2.14-2.19-3.27q-.77-1.91-.77-4.16 0-2.28.74-4.19.74-1.9 2.11-3.27 1.36-1.38 3.31-2.13 1.94-.76 4.37-.76 1.23 0 2.3.2 1.07.19 1.99.54.91.34 1.67.83t1.39 1.08l-1.08 1.71q-.25.4-.66.49t-.88-.2q-.46-.27-.92-.53-.47-.27-1.03-.46-.57-.2-1.28-.33-.71-.12-1.63-.12-1.5 0-2.71.5-1.21.51-2.06 1.44-.86.94-1.32 2.26-.46 1.31-.46 2.94 0 1.73.5 3.1.49 1.36 1.4 2.31.9.94 2.17 1.44 1.28.5 2.85.5 1.11 0 2-.24.88-.24 1.72-.64v-3.67h-2.55q-.36 0-.57-.21-.2-.2-.2-.49zm12.87-3.35.21 1.63q.67-1.29 1.59-2.02.93-.74 2.19-.74.99 0 1.59.43l-.22 2.59q-.07.26-.2.36-.14.11-.36.11-.21 0-.62-.07-.42-.07-.81-.07-.57 0-1.02.16-.45.17-.81.49-.35.31-.63.76-.27.45-.51 1.02v8.85h-3.46v-14.36h2.03q.54 0 .75.18.21.19.28.68m13.74-1.09q1.6 0 2.91.52t2.24 1.47 1.43 2.32q.51 1.38.51 3.07 0 1.71-.51 3.08-.5 1.37-1.43 2.34-.93.96-2.24 1.48t-2.91.52q-1.61 0-2.92-.52-1.32-.52-2.25-1.48-.93-.97-1.44-2.34t-.51-3.08q0-1.69.51-3.07.51-1.37 1.44-2.32t2.25-1.47q1.31-.52 2.92-.52m0 12.14q1.8 0 2.66-1.2.86-1.21.86-3.53 0-2.33-.86-3.54-.86-1.22-2.66-1.22-1.82 0-2.69 1.22-.88 1.23-.88 3.54t.88 3.52q.87 1.21 2.69 1.21m18.65-11.91h3.46v14.36h-2.11q-.69 0-.87-.63l-.24-1.15q-.88.9-1.94 1.45-1.07.55-2.51.55-1.18 0-2.08-.4-.9-.39-1.52-1.12-.61-.73-.93-1.73-.31-1-.31-2.21v-9.12h3.45v9.12q0 1.32.61 2.04t1.83.72q.89 0 1.68-.4.78-.4 1.48-1.1zm10.34 4.2v6.44q.58.71 1.28 1 .69.3 1.5.3.79 0 1.42-.3.62-.29 1.07-.89.44-.6.68-1.52.23-.92.23-2.16 0-1.26-.2-2.14-.2-.87-.58-1.42t-.92-.8-1.22-.25q-1.08 0-1.84.45-.75.46-1.42 1.29m-.47-3.57.28 1.33q.88-1 2.01-1.61 1.11-.62 2.63-.62 1.17 0 2.15.49.97.49 1.68 1.42.7.93 1.09 2.3.38 1.36.38 3.13 0 1.61-.43 2.98t-1.24 2.38q-.8 1.01-1.95 1.57-1.14.57-2.55.57-1.21 0-2.06-.37t-1.52-1.03v5.88h-3.46v-19.05h2.11q.67 0 .88.63m24.04-6.51v20.24h-3.78v-20.24zm22.5 10.12q0 2.22-.74 4.09-.74 1.86-2.09 3.2-1.34 1.35-3.23 2.09t-4.2.74h-7.72v-20.24h7.72q2.31 0 4.2.74 1.89.75 3.23 2.09 1.35 1.34 2.09 3.2t.74 4.09m-3.87 0q0-1.67-.44-2.99t-1.27-2.24-2.02-1.41q-1.18-.49-2.66-.49h-3.94v14.25h3.94q1.48 0 2.66-.49 1.19-.49 2.02-1.4.83-.92 1.27-2.24.44-1.33.44-2.99m19.96-7.13h-8.99v5.62h7.08v2.89h-7.08v5.73h8.99v3.01h-12.77v-20.24h12.77z"/></svg>