<svg xmlns="http://www.w3.org/2000/svg" width="300" height="200" viewBox="0 0 300 200"><rect width="100%" height="100%" fill="#DDDDDD"/><path fill="#999999" d="M62.305 103.165h5.2v2h-7.62v-13.01h2.42zm6.65-7.23h2.24v9.23h-2.24zm2.54-2.7q0 .29-.12.54-.11.26-.31.45-.19.18-.45.3-.26.11-.56.11-.29 0-.54-.11-.26-.12-.45-.3-.19-.19-.3-.45-.11-.25-.11-.54t.11-.55.3-.45.45-.3q.25-.12.54-.12.3 0 .56.12.26.11.45.3.2.19.31.45.12.26.12.55m4.83 11.93h-2.22v-7.56l-.8-.13q-.26-.05-.42-.18t-.16-.37v-.91h1.38v-.69q0-.79.24-1.42t.68-1.07q.45-.44 1.09-.68.64-.23 1.44-.23.64 0 1.19.17l-.05 1.12q-.01.12-.07.2t-.17.12q-.1.04-.24.05-.13.01-.28.01-.4 0-.71.09t-.53.3q-.21.21-.33.56-.11.34-.11.85v.62h2.41v1.58h-2.34zm5.34-5.68h4.2q0-.43-.13-.81-.12-.39-.36-.67-.24-.29-.62-.46-.37-.17-.87-.17-.96 0-1.51.55-.56.55-.71 1.56m5.67 1.34h-5.71q.05.71.25 1.23t.52.86q.32.33.77.5t.99.17.93-.13.68-.28.51-.28q.22-.12.43-.12.28 0 .42.2l.63.81q-.36.43-.82.73-.46.29-.96.47-.5.17-1.02.24-.52.08-1 .08-.97 0-1.79-.32-.83-.32-1.44-.95-.62-.63-.97-1.55t-.35-2.14q0-.94.31-1.77.3-.84.88-1.45.57-.62 1.39-.98t1.86-.36q.87 0 1.61.28t1.27.82q.53.53.83 1.31t.3 1.78q0 .5-.1.68-.11.17-.42.17m13.32-2.19h4.32v5.27q-.99.73-2.11 1.07-1.12.33-2.4.33-1.59 0-2.88-.49-1.29-.5-2.21-1.38-.91-.88-1.41-2.1-.49-1.23-.49-2.68 0-1.46.48-2.69.47-1.22 1.35-2.1.88-.89 2.13-1.37 1.25-.49 2.81-.49.79 0 1.48.13.69.12 1.28.34t1.07.54q.49.31.89.69l-.69 1.1q-.16.26-.42.32t-.57-.13q-.3-.17-.59-.34-.3-.17-.67-.3-.36-.13-.82-.21-.45-.08-1.04-.08-.97 0-1.74.33-.78.32-1.33.92-.55.61-.85 1.45-.3.85-.3 1.89 0 1.12.32 2 .32.87.9 1.48t1.4.93 1.83.32q.72 0 1.29-.16.56-.15 1.1-.41v-2.36h-1.63q-.24 0-.37-.13t-.13-.32zm8.27-2.15.14 1.05q.43-.83 1.02-1.3.6-.48 1.41-.48.64 0 1.02.28l-.14 1.67q-.05.16-.13.23-.09.07-.23.07t-.4-.05q-.27-.04-.52-.04-.37 0-.66.1-.28.11-.51.31-.23.21-.41.49-.17.29-.33.66v5.69h-2.22v-9.23h1.31q.34 0 .47.12.14.12.18.43m8.84-.7q1.03 0 1.87.33.84.34 1.44.95t.92 1.49q.32.89.32 1.97 0 1.1-.32 1.98-.32.89-.92 1.51t-1.44.95q-.84.34-1.87.34t-1.88-.34q-.85-.33-1.45-.95-.59-.62-.92-1.51-.33-.88-.33-1.98 0-1.08.33-1.97.33-.88.92-1.49.6-.61 1.45-.95.85-.33 1.88-.33m0 7.8q1.15 0 1.71-.77.55-.77.55-2.27 0-1.49-.55-2.27-.56-.79-1.71-.79-1.17 0-1.73.79t-.56 2.27q0 1.49.56 2.27.56.77 1.73.77m11.99-7.65h2.22v9.23h-1.36q-.44 0-.56-.41l-.15-.73q-.57.57-1.25.93-.68.35-1.61.35-.76 0-1.34-.25-.58-.26-.97-.73-.4-.47-.6-1.11t-.2-1.42v-5.86h2.22v5.86q0 .85.39 1.31.39.47 1.17.47.58 0 1.08-.26.51-.26.96-.71zm6.64 2.7v4.14q.38.45.82.64.45.19.97.19.51 0 .91-.19.41-.19.69-.57.28-.39.44-.98.15-.59.15-1.39 0-.81-.13-1.37t-.38-.92q-.24-.35-.59-.51-.34-.16-.78-.16-.7 0-1.18.29-.49.29-.92.83m-.3-2.3.18.86q.57-.64 1.29-1.04t1.69-.4q.76 0 1.38.32.63.31 1.08.91.46.6.71 1.48.24.88.24 2.01 0 1.04-.28 1.92-.27.88-.79 1.53t-1.25 1.01q-.74.37-1.65.37-.77 0-1.32-.24t-.98-.67v3.79h-2.22v-12.25h1.36q.43 0 .56.4m15.45-4.18v5.45h.56q.35 0 .57-.09.23-.1.39-.31l3.59-4.54q.22-.29.47-.4t.63-.11h2.09l-4.39 5.4q-.38.5-.8.71.3.1.54.3.24.19.45.51l4.52 6.09h-2.13q-.44 0-.65-.12t-.35-.36l-3.68-4.8q-.17-.25-.4-.35-.22-.09-.65-.09h-.76v5.72h-2.42v-13.01zm22.33 6.5q0 1.43-.48 2.65-.47 1.22-1.33 2.11-.87.89-2.08 1.39-1.22.5-2.7.5t-2.69-.5q-1.22-.5-2.09-1.39-.86-.89-1.34-2.11t-.48-2.65.48-2.65 1.34-2.11q.87-.89 2.09-1.39 1.21-.5 2.69-.5.99 0 1.86.23t1.6.65 1.31 1.02q.58.59.99 1.33.4.74.62 1.6.21.87.21 1.82m-2.48 0q0-1.07-.29-1.92-.28-.85-.82-1.44-.53-.6-1.29-.91-.76-.32-1.71-.32-.96 0-1.72.32-.76.31-1.29.91-.54.59-.83 1.44-.28.85-.28 1.92t.28 1.92q.29.85.83 1.44.53.59 1.29.91.76.31 1.72.31.95 0 1.71-.31.76-.32 1.29-.91.54-.59.82-1.44.29-.85.29-1.92m7.04-6.5v13.01h-2.43v-13.01zm11.74 0h2.14v13.01h-1.24q-.29 0-.49-.09-.19-.1-.37-.32l-6.79-8.68q.05.59.05 1.1v7.99h-2.13v-13.01h1.27q.15 0 .26.01t.2.05q.08.04.17.12.08.08.18.2l6.82 8.71q-.03-.31-.05-.62-.02-.3-.02-.56zm17.45 6.5q0 1.43-.48 2.65-.47 1.22-1.33 2.11-.87.89-2.08 1.39-1.22.5-2.7.5t-2.69-.5q-1.22-.5-2.09-1.39-.86-.89-1.34-2.11t-.48-2.65.48-2.65 1.34-2.11q.87-.89 2.09-1.39 1.21-.5 2.69-.5.99 0 1.86.23t1.6.65 1.31 1.02q.58.59.99 1.33.4.74.62 1.6.21.87.21 1.82m-2.48 0q0-1.07-.29-1.92-.28-.85-.82-1.44-.53-.6-1.29-.91-.76-.32-1.71-.32-.96 0-1.72.32-.76.31-1.29.91-.54.59-.83 1.44-.28.85-.28 1.92t.28 1.92q.29.85.83 1.44.53.59 1.29.91.76.31 1.72.31.95 0 1.71-.31.76-.32 1.29-.91.54-.59.82-1.44.29-.85.29-1.92m13.45-6.5h2.13v13.01h-1.24q-.29 0-.48-.09-.2-.1-.38-.32l-6.79-8.68q.05.59.05 1.1v7.99h-2.13v-13.01h1.27q.15 0 .26.01.12.01.2.05.09.04.17.12t.18.2l6.82 8.71q-.03-.31-.04-.62-.02-.3-.02-.56zm7.46 0v13.01h-2.43v-13.01zm5.64 8.1h4.14l-1.58-4.33q-.12-.29-.25-.69-.12-.39-.25-.85-.11.46-.24.86t-.24.69zm3.3-8.1 5.12 13.01h-1.88q-.31 0-.51-.16t-.3-.39l-.97-2.65h-5.39l-.97 2.65q-.07.21-.28.38t-.51.17h-1.89l5.12-13.01z"/></svg>