<svg xmlns="http://www.w3.org/2000/svg" width="300" height="200" viewBox="0 0 300 200"><rect width="100%" height="100%" fill="#DDDDDD"/><path fill="#999999" d="M62.375 102.465h4.04v1.55h-5.93v-10.12h1.89zm5.17-5.63h1.74v7.18h-1.74zm1.97-2.1q0 .23-.09.42-.09.2-.24.35-.15.14-.35.23t-.44.09q-.22 0-.42-.09t-.35-.23q-.14-.15-.23-.35-.09-.19-.09-.42t.09-.43.23-.35q.15-.15.35-.23.2-.09.42-.09.24 0 .44.09.2.08.35.23t.24.35.09.43m3.76 9.28h-1.73v-5.88l-.62-.1q-.2-.04-.32-.14-.13-.1-.13-.29v-.71h1.07v-.53q0-.62.19-1.11t.53-.83q.35-.34.85-.53.49-.18 1.12-.18.49 0 .92.14l-.04.86q0 .1-.05.16t-.13.09-.19.04q-.1.01-.22.01-.31 0-.55.07t-.41.23q-.17.17-.25.44-.09.27-.09.67v.47h1.87v1.23h-1.82zm4.15-4.42h3.27q0-.33-.1-.63-.09-.3-.28-.52-.19-.23-.48-.36-.29-.12-.68-.12-.75 0-1.18.42-.43.43-.55 1.21m4.41 1.05h-4.44q.04.55.2.95.15.4.4.67.25.26.6.39t.77.13.72-.1q.31-.1.53-.22l.4-.21q.17-.1.33-.1.22 0 .33.16l.49.63q-.28.34-.64.56-.36.23-.75.37-.38.13-.79.19-.4.05-.78.05-.75 0-1.39-.24-.64-.25-1.12-.74-.48-.48-.75-1.2t-.27-1.67q0-.73.24-1.38.23-.65.68-1.12.44-.48 1.08-.76t1.45-.28q.68 0 1.25.21.58.22.99.64.41.41.65 1.02.23.6.23 1.38 0 .39-.08.53-.09.14-.33.14m10.36-1.71h3.36v4.1q-.77.57-1.64.83t-1.86.26q-1.24 0-2.25-.38-1-.39-1.71-1.07-.71-.69-1.1-1.64-.38-.95-.38-2.08 0-1.14.37-2.09.37-.96 1.05-1.64.69-.69 1.66-1.07.97-.37 2.18-.37.62 0 1.15.09.54.1 1 .27t.83.42q.38.24.7.54l-.54.85q-.13.21-.33.25-.2.05-.44-.1-.23-.13-.46-.27-.23-.13-.52-.23-.28-.1-.63-.16-.36-.06-.82-.06-.75 0-1.35.25-.61.25-1.04.72-.42.47-.66 1.13-.23.66-.23 1.47 0 .87.25 1.55t.7 1.15q.45.48 1.09.73.64.24 1.42.24.56 0 1-.12.44-.11.86-.32v-1.83h-1.27q-.18 0-.28-.1-.11-.1-.11-.25zm6.44-1.67.1.81q.34-.64.8-1.01t1.09-.37q.5 0 .8.22l-.11 1.3q-.04.12-.1.18-.07.05-.18.05t-.31-.04q-.21-.03-.41-.03-.28 0-.51.08-.22.09-.4.24-.18.16-.31.38-.14.23-.26.52v4.42h-1.73v-7.18h1.02q.26 0 .37.09.1.1.14.34m6.87-.54q.8 0 1.45.25.66.26 1.12.74.47.48.72 1.16.25.69.25 1.54t-.25 1.54q-.25.68-.72 1.16-.46.49-1.12.75-.65.25-1.45.25t-1.46-.25q-.66-.26-1.12-.75-.47-.48-.73-1.16-.25-.69-.25-1.54t.25-1.54q.26-.68.73-1.16.46-.48 1.12-.74.66-.25 1.46-.25m0 6.06q.9 0 1.33-.6t.43-1.76-.43-1.77-1.33-.61q-.91 0-1.35.61-.43.61-.43 1.77 0 1.15.43 1.76.44.6 1.35.6m9.33-5.95h1.72v7.18h-1.05q-.35 0-.44-.32l-.12-.57q-.44.45-.97.73-.53.27-1.25.27-.59 0-1.04-.2t-.76-.56q-.31-.37-.47-.87-.15-.5-.15-1.1v-4.56h1.73v4.56q0 .66.3 1.02t.91.36q.45 0 .84-.2.4-.2.75-.55zm5.16 2.1v3.22q.3.35.64.5.35.15.75.15t.71-.15q.32-.15.54-.45t.34-.76q.12-.45.12-1.08t-.11-1.06q-.1-.44-.29-.71-.19-.28-.45-.4-.27-.13-.62-.13-.54 0-.91.23-.38.22-.72.64m-.23-1.79.14.67q.44-.5 1-.81t1.32-.31q.59 0 1.07.25.49.24.84.71.36.47.55 1.15t.19 1.56q0 .81-.22 1.49-.21.69-.62 1.19-.4.51-.97.79t-1.28.28q-.6 0-1.03-.18-.42-.19-.76-.51v2.94h-1.73v-9.53h1.06q.34 0 .44.31m12.01 5.32h4.05v1.55h-5.93v-10.12h1.88zm9.47.03q.54 0 .97-.18t.73-.51q.29-.33.45-.8t.16-1.05v-6.06h1.88v6.06q0 .9-.29 1.67t-.83 1.32q-.55.56-1.32.87-.78.31-1.75.31-.98 0-1.76-.31t-1.32-.87q-.54-.55-.83-1.32t-.29-1.67v-6.06h1.88v6.05q0 .58.16 1.05.15.47.45.8.3.34.73.52t.98.18m13.29-8.6v.69q0 .32-.18.59l-5.2 7.33h5.26v1.51h-7.7v-.74q0-.14.05-.27t.13-.24l5.2-7.37h-5.05v-1.5zm13.89 5.06q0 1.11-.37 2.04t-1.04 1.61q-.67.67-1.62 1.04-.94.37-2.1.37h-3.85v-10.12h3.85q1.16 0 2.1.37.95.38 1.62 1.05.67.66 1.04 1.59.37.94.37 2.05m-1.93 0q0-.83-.22-1.5-.22-.66-.63-1.12-.42-.45-1.01-.7-.59-.24-1.34-.24h-1.96v7.12h1.96q.75 0 1.34-.24.59-.25 1.01-.71.41-.46.63-1.12t.22-1.49m13.25 0q0 1.11-.37 2.06t-1.04 1.64-1.62 1.08q-.94.39-2.1.39-1.15 0-2.09-.39-.95-.39-1.62-1.08-.68-.69-1.05-1.64t-.37-2.06.37-2.06 1.05-1.64q.67-.7 1.62-1.09.94-.38 2.09-.38.77 0 1.45.17.68.18 1.25.51.56.32 1.02.79.45.47.76 1.04.32.57.48 1.24.17.68.17 1.42m-1.93 0q0-.83-.22-1.5-.23-.66-.64-1.12t-1-.71q-.6-.24-1.34-.24t-1.33.24q-.59.25-1.01.71t-.64 1.12q-.22.67-.22 1.5t.22 1.49.64 1.12 1.01.71q.59.24 1.33.24t1.34-.24q.59-.25 1-.71t.64-1.12q.22-.66.22-1.49m16.54-5.06h1.42v10.12h-1.66v-6.54q0-.39.05-.84l-3.06 5.74q-.22.41-.67.41h-.26q-.45 0-.67-.41l-3.09-5.77q.02.24.03.46.02.22.02.41v6.54h-1.66v-10.12h1.64q.09.01.16.04t.13.09.12.17l3.03 5.62q.12.22.22.46t.2.49q.1-.26.2-.5.11-.24.23-.46l2.99-5.61q.05-.11.11-.17.07-.06.14-.09t.17-.04zm7.75 8.6q.55 0 .98-.18t.72-.51q.3-.33.45-.8.16-.47.16-1.05v-6.06h1.88v6.06q0 .9-.29 1.67t-.83 1.32q-.54.56-1.32.87t-1.75.31q-.98 0-1.76-.31-.77-.31-1.31-.87-.55-.55-.84-1.32t-.29-1.67v-6.06h1.88v6.05q0 .58.16 1.05t.46.8q.29.34.73.52.43.18.97.18m13.2-8.6h1.66v10.12h-.97q-.22 0-.37-.07-.16-.08-.3-.25l-5.28-6.75q.04.46.04.85v6.22h-1.66v-10.12h.99q.12 0 .21.01.08.01.15.04t.13.09.14.16l5.31 6.78q-.03-.25-.04-.49t-.01-.44zm12.9 5.06q0 1.11-.37 2.04t-1.05 1.61q-.67.67-1.61 1.04-.95.37-2.1.37h-3.86v-10.12h3.86q1.15 0 2.1.37.94.38 1.61 1.05.68.66 1.05 1.59.37.94.37 2.05m-1.93 0q0-.83-.22-1.5-.22-.66-.64-1.12-.42-.45-1.01-.7-.59-.24-1.33-.24h-1.97v7.12h1.97q.74 0 1.33-.24.59-.25 1.01-.71t.64-1.12.22-1.49m13.24 0q0 1.11-.37 2.06-.36.95-1.04 1.64-.67.69-1.61 1.08-.95.39-2.1.39t-2.1-.39q-.94-.39-1.62-1.08-.67-.69-1.04-1.64t-.37-2.06.37-2.06 1.04-1.64q.68-.7 1.62-1.09.95-.38 2.1-.38.77 0 1.45.17.67.18 1.24.51.57.32 1.02.79t.77 1.04q.31.57.48 1.24.16.68.16 1.42m-1.92 0q0-.83-.23-1.5-.22-.66-.64-1.12-.41-.46-1-.71-.59-.24-1.33-.24-.75 0-1.34.24-.59.25-1.01.71-.41.46-.64 1.12-.22.67-.22 1.5t.22 1.49q.23.66.64 1.12.42.46 1.01.71.59.24 1.34.24.74 0 1.33-.24.59-.25 1-.71.42-.46.64-1.12.23-.66.23-1.49"/></svg>