<svg xmlns="http://www.w3.org/2000/svg" width="300" height="200" viewBox="0 0 300 200"><rect width="100%" height="100%" fill="#DDDDDD"/><path fill="#999999" d="M61.03 104.5h5.2v2h-7.62V93.49h2.42zm6.65-7.23h2.24v9.23h-2.24zm2.54-2.7q0 .29-.12.54-.11.26-.31.45-.19.18-.45.3-.26.11-.56.11-.29 0-.54-.11-.26-.12-.45-.3-.19-.19-.3-.45-.11-.25-.11-.54t.11-.55.3-.45.45-.3q.25-.12.54-.12.3 0 .56.12.26.11.45.3.2.19.31.45.12.26.12.55m4.83 11.93h-2.22v-7.56l-.8-.13q-.26-.05-.42-.18t-.16-.37v-.91h1.38v-.69q0-.79.24-1.42t.68-1.07q.45-.44 1.09-.68.64-.23 1.44-.23.64 0 1.19.17l-.05 1.12q-.01.12-.07.2t-.17.12q-.1.04-.24.05-.13.01-.28.01-.4 0-.71.09t-.53.3q-.21.21-.32.56-.12.34-.12.85v.62h2.41v1.58h-2.34zm5.34-5.68h4.2q0-.43-.13-.81-.12-.39-.36-.67-.24-.29-.62-.46-.37-.17-.87-.17-.96 0-1.51.55-.56.55-.71 1.56m5.67 1.34h-5.71q.05.71.25 1.23t.52.86q.32.33.77.5t.99.17.93-.13.68-.28.51-.28q.22-.12.43-.12.28 0 .42.2l.63.81q-.36.43-.82.73-.46.29-.96.47-.5.17-1.02.24-.52.08-1 .08-.97 0-1.79-.32-.83-.32-1.44-.95-.62-.63-.97-1.55t-.35-2.14q0-.94.31-1.77.3-.84.88-1.45.57-.62 1.39-.98t1.86-.36q.87 0 1.61.28t1.27.82q.53.53.83 1.31t.3 1.78q0 .5-.1.68-.11.17-.42.17m13.32-2.19h4.32v5.27q-.99.73-2.11 1.07-1.12.33-2.4.33-1.59 0-2.88-.49-1.29-.5-2.21-1.38-.91-.88-1.41-2.1-.49-1.23-.49-2.68 0-1.46.48-2.69.47-1.22 1.35-2.1.88-.89 2.13-1.37 1.25-.49 2.81-.49.79 0 1.48.13.69.12 1.28.34t1.07.54q.49.31.89.69l-.69 1.1q-.16.26-.42.32t-.57-.13q-.3-.17-.59-.34-.3-.17-.67-.3-.36-.13-.81-.21-.46-.08-1.05-.08-.97 0-1.74.33-.78.32-1.33.92-.55.61-.85 1.45-.3.85-.3 1.89 0 1.12.32 2 .32.87.9 1.48t1.4.93 1.83.32q.72 0 1.29-.16.56-.15 1.1-.41v-2.36h-1.63q-.24 0-.37-.13t-.13-.32zm8.27-2.15.14 1.05q.43-.83 1.02-1.3.6-.48 1.41-.48.64 0 1.02.28l-.14 1.67q-.05.16-.13.23-.09.07-.23.07t-.4-.05q-.27-.04-.52-.04-.37 0-.66.1-.28.11-.51.31-.23.21-.41.49-.17.29-.33.66v5.69h-2.22v-9.23H107q.34 0 .47.12.14.12.18.43m8.84-.7q1.03 0 1.87.33.84.34 1.44.95t.92 1.49q.32.89.32 1.97 0 1.1-.32 1.98-.32.89-.92 1.51t-1.44.95q-.84.34-1.87.34t-1.88-.34q-.85-.33-1.44-.95-.6-.62-.93-1.51-.33-.88-.33-1.98 0-1.08.33-1.97.33-.88.93-1.49.59-.61 1.44-.95.85-.33 1.88-.33m0 7.8q1.15 0 1.71-.77.55-.77.55-2.27 0-1.49-.55-2.27-.56-.79-1.71-.79-1.17 0-1.73.79t-.56 2.27q0 1.49.56 2.27.56.77 1.73.77m11.99-7.65h2.22v9.23h-1.36q-.44 0-.56-.41l-.15-.73q-.57.57-1.25.93-.68.35-1.61.35-.76 0-1.34-.25-.58-.26-.97-.73-.4-.47-.6-1.11t-.2-1.42v-5.86h2.22v5.86q0 .85.39 1.31.39.47 1.17.47.58 0 1.08-.26.51-.26.96-.71zm6.64 2.7v4.14q.38.45.82.64.45.19.97.19.51 0 .91-.19.41-.19.69-.57.28-.39.44-.98.15-.59.15-1.39 0-.81-.13-1.37t-.38-.92q-.24-.35-.58-.51-.35-.16-.79-.16-.7 0-1.18.29-.49.29-.92.83m-.3-2.3.18.86q.57-.64 1.29-1.04t1.69-.4q.76 0 1.38.32.63.31 1.08.91.46.6.71 1.48.24.88.24 2.01 0 1.04-.28 1.92-.27.88-.79 1.53t-1.25 1.01q-.74.37-1.65.37-.77 0-1.32-.24t-.98-.67v3.79h-2.22V97.27h1.36q.43 0 .56.4m20.56-2.96-.6 1.14q-.11.19-.23.28-.12.08-.3.08-.19 0-.41-.14t-.53-.31-.72-.31-.96-.14q-.51 0-.89.12-.37.13-.63.34-.26.22-.38.52-.13.3-.13.66 0 .46.26.77.25.3.68.52.42.21.96.38l1.11.37q.56.19 1.1.45t.97.65q.42.39.68.96.25.56.25 1.37 0 .88-.3 1.65t-.88 1.35q-.58.57-1.42.9-.83.32-1.91.32-.63 0-1.23-.12t-1.15-.34q-.56-.23-1.04-.54-.49-.32-.87-.71l.71-1.16q.09-.12.24-.21.14-.08.3-.08.23 0 .49.18t.62.41q.36.22.84.41.48.18 1.16.18 1.03 0 1.6-.49t.57-1.41q0-.51-.26-.83-.26-.33-.68-.55t-.96-.37-1.1-.33-1.1-.44q-.54-.25-.96-.65-.42-.41-.68-1.01-.26-.61-.26-1.5 0-.71.29-1.39.28-.67.82-1.2.54-.52 1.33-.83.79-.32 1.82-.32 1.15 0 2.12.36.98.36 1.66 1.01m5.08 6.88h4.14l-1.59-4.33q-.12-.29-.24-.69-.13-.39-.25-.85-.12.46-.25.86-.12.4-.24.69zm3.3-8.1 5.11 13.01H167q-.32 0-.51-.16-.2-.16-.3-.39l-.97-2.65h-5.39l-.98 2.65q-.07.21-.28.38-.2.17-.51.17h-1.89l5.12-13.01zm8.88 11.01h5.2v2h-7.62V93.49h2.42zm16.13-11.01h1.95l-5.25 13.01h-2.19l-5.26-13.01h1.95q.31 0 .51.15t.3.39l3.07 7.94q.15.39.29.85.14.47.26.97.11-.5.24-.97.12-.46.28-.85l3.05-7.94q.07-.2.28-.37t.52-.17m6.04 8.1h4.14l-1.59-4.33q-.11-.29-.24-.69-.12-.39-.25-.85-.12.46-.24.86-.13.4-.25.69zm3.3-8.1 5.11 13.01h-1.87q-.31 0-.51-.16t-.3-.39l-.97-2.65h-5.39l-.97 2.65q-.08.21-.28.38-.21.17-.52.17h-1.89l5.13-13.01zm15.75 10.09.96 1.04q-.72.89-1.73 1.4-1.02.51-2.41.61l-.11.42q.84.2 1.19.53.34.34.34.81 0 .31-.16.55t-.45.41-.7.26q-.4.09-.89.09-.37 0-.69-.05-.32-.04-.63-.14l.21-.7q.05-.2.26-.2.12 0 .27.06.15.07.44.07t.44-.11.15-.28q0-.26-.32-.37-.33-.11-1-.21l.39-1.15q-1.29-.12-2.33-.66-1.04-.53-1.77-1.4-.73-.88-1.12-2.04-.38-1.16-.38-2.53 0-1.46.47-2.68.46-1.22 1.31-2.11.85-.88 2.03-1.37t2.61-.49 2.53.47 1.87 1.22l-.8 1.13q-.08.11-.19.19t-.31.08q-.14 0-.28-.08-.14-.07-.31-.19-.18-.11-.4-.24-.23-.14-.52-.25-.3-.11-.69-.19t-.91-.08q-.87 0-1.59.31-.73.31-1.25.9t-.81 1.44-.29 1.94q0 1.1.31 1.96.31.85.84 1.44.54.58 1.26.89t1.54.31q.5 0 .9-.05.4-.06.74-.17.33-.12.64-.3.3-.19.59-.46.09-.08.19-.13t.21-.05q.2 0 .35.15m5.36-1.99h4.14l-1.59-4.33q-.11-.29-.24-.69-.13-.39-.25-.85-.12.46-.25.86-.12.4-.24.69zm3.3-8.1 5.11 13.01h-1.87q-.32 0-.51-.16-.2-.16-.3-.39l-.97-2.65h-5.39l-.98 2.65q-.07.21-.27.38-.21.17-.52.17h-1.89l5.12-13.01zm-.12-2.28q.2 0 .35-.08t.24-.2q.1-.13.14-.27.05-.15.05-.3h1.36q0 .45-.13.86-.12.41-.36.73-.23.32-.58.51t-.8.19q-.46 0-.79-.15-.34-.14-.62-.31-.28-.16-.51-.31-.23-.14-.47-.14-.21 0-.35.08-.15.08-.24.21-.09.12-.13.28-.05.15-.05.29h-1.37q0-.44.12-.86.13-.41.37-.73t.58-.52q.35-.19.8-.19.46 0 .8.14.34.15.61.31.27.17.51.31.23.15.47.15m18.99 8.78q0 1.43-.47 2.65t-1.34 2.11q-.86.89-2.08 1.39-1.21.5-2.69.5t-2.7-.5q-1.21-.5-2.08-1.39t-1.35-2.11q-.47-1.22-.47-2.65t.47-2.65q.48-1.22 1.35-2.11t2.08-1.39q1.22-.5 2.7-.5.98 0 1.86.23.87.23 1.6.65t1.31 1.02q.58.59.98 1.33.41.74.62 1.6.21.87.21 1.82m-2.47 0q0-1.07-.29-1.92t-.82-1.44q-.53-.6-1.29-.91-.76-.32-1.71-.32-.96 0-1.72.32-.76.31-1.3.91-.53.59-.82 1.44t-.29 1.92.29 1.92.82 1.44q.54.59 1.3.91.76.31 1.72.31.95 0 1.71-.31.76-.32 1.29-.91t.82-1.44.29-1.92"/></svg>