<svg xmlns="http://www.w3.org/2000/svg" width="300" height="200" viewBox="0 0 300 200"><rect width="100%" height="100%" fill="#DDDDDD"/><path fill="#999999" d="M71.83 105.125q.28 0 .5.22l1.38 1.49q-1.14 1.42-2.81 2.17-1.67.76-4.01.76-2.1 0-3.77-.72-1.67-.71-2.85-1.99-1.18-1.27-1.81-3.04t-.63-3.86q0-2.12.67-3.88.68-1.76 1.91-3.04 1.22-1.27 2.93-1.98 1.7-.71 3.77-.71 2.05 0 3.64.68 1.6.68 2.71 1.77l-1.17 1.62q-.1.16-.26.28-.16.11-.45.11-.2 0-.4-.11-.21-.11-.46-.27t-.57-.36q-.33-.19-.75-.36-.43-.16-1-.27-.56-.11-1.31-.11-1.26 0-2.3.45-1.05.45-1.8 1.3-.76.85-1.17 2.08-.42 1.23-.42 2.8 0 1.59.45 2.82.45 1.24 1.21 2.08.77.85 1.81 1.3 1.04.44 2.24.44.71 0 1.29-.07.58-.08 1.07-.25.48-.17.92-.44.44-.26.86-.65.13-.12.28-.19.14-.07.3-.07m12.06-8.91h3.21v13.34h-1.96q-.64 0-.81-.59l-.22-1.06q-.82.83-1.81 1.34-.98.52-2.32.52-1.09 0-1.93-.37t-1.41-1.05q-.58-.68-.87-1.6-.29-.93-.29-2.05v-8.48h3.21v8.48q0 1.22.57 1.89.56.67 1.69.67.83 0 1.56-.37t1.38-1.02zm6.42-5.98h3.21v19.32h-3.21zm10.87 19.53q-1.74 0-2.67-.98-.93-.99-.93-2.71v-7.45h-1.37q-.26 0-.44-.17t-.18-.51v-1.27l2.15-.35.67-3.64q.07-.26.25-.41.18-.14.47-.14h1.66v4.2h3.56v2.29h-3.56v7.22q0 .63.31.98.3.35.83.35.3 0 .5-.07.21-.07.36-.15t.26-.15q.12-.07.24-.07.14 0 .23.07t.2.21l.96 1.56q-.7.59-1.61.89t-1.89.3m11.13-13.76q1.48 0 2.7.48 1.21.49 2.08 1.37.86.88 1.33 2.16.47 1.27.47 2.84 0 1.59-.47 2.86-.47 1.28-1.33 2.18-.87.89-2.08 1.37-1.22.49-2.7.49-1.5 0-2.72-.49-1.22-.48-2.09-1.37-.86-.9-1.33-2.18-.48-1.27-.48-2.86 0-1.57.48-2.84.47-1.28 1.33-2.16.87-.88 2.09-1.37 1.22-.48 2.72-.48m0 11.27q1.66 0 2.46-1.11.8-1.12.8-3.28t-.8-3.29-2.46-1.13q-1.69 0-2.5 1.14-.82 1.14-.82 3.28 0 2.15.82 3.27.81 1.12 2.5 1.12m23.72-1.67v-5.98q-.54-.67-1.19-.94-.64-.27-1.38-.27-.73 0-1.31.27-.59.27-1 .83-.42.55-.64 1.4t-.22 2.01q0 1.17.19 1.98.18.81.54 1.33.35.51.85.74.51.23 1.13.23 1.01 0 1.71-.42t1.32-1.18m0-15.37h3.21v19.32h-1.96q-.64 0-.8-.59l-.28-1.28q-.8.92-1.85 1.49-1.05.58-2.44.58-1.09 0-2-.46t-1.57-1.32q-.65-.86-1.01-2.14-.36-1.27-.36-2.91 0-1.48.41-2.76.4-1.27 1.15-2.21.76-.93 1.81-1.46t2.37-.53q1.11 0 1.91.36.79.35 1.41.94zm8.92 11.12h6.06q0-.63-.18-1.18-.17-.55-.52-.97-.35-.41-.89-.65-.54-.25-1.26-.25-1.39 0-2.19.8-.8.79-1.02 2.25m8.19 1.93h-8.25q.07 1.03.36 1.78t.75 1.23q.47.49 1.12.73.64.24 1.42.24t1.34-.18q.57-.18.99-.4.43-.22.74-.41.32-.18.62-.18.4 0 .6.3l.92 1.17q-.53.62-1.19 1.05-.67.42-1.39.67-.72.26-1.47.36-.74.11-1.45.11-1.39 0-2.58-.47-1.2-.46-2.08-1.36-.89-.91-1.39-2.24-.51-1.33-.51-3.09 0-1.36.44-2.56.44-1.21 1.27-2.1.82-.89 2.01-1.41t2.69-.52q1.26 0 2.32.41 1.07.4 1.84 1.17.76.78 1.2 1.9.44 1.13.44 2.57 0 .73-.16.98t-.6.25m21.84-9.75h-8.34v5.57h7.04v2.79h-7.04v7.66h-3.51v-18.8h11.85zm9.4 12.57v-2.24q-1.39.06-2.34.24-.95.17-1.52.44-.57.28-.82.64-.25.37-.25.79 0 .85.5 1.21.5.37 1.31.37.99 0 1.71-.36t1.41-1.09m-6.79-7-.57-1.03q2.3-2.11 5.54-2.11 1.17 0 2.09.39.93.38 1.56 1.06.64.69.97 1.64.33.94.33 2.08v8.42h-1.45q-.46 0-.7-.14-.25-.13-.39-.55l-.29-.96q-.51.45-.99.8-.48.34-1 .58-.52.23-1.11.35-.59.13-1.31.13-.84 0-1.56-.23-.71-.23-1.23-.68-.52-.46-.81-1.13-.28-.68-.28-1.58 0-.5.16-1 .17-.5.56-.96.38-.45.99-.86.61-.4 1.5-.7t2.08-.49q1.18-.19 2.7-.22v-.78q0-1.34-.57-1.99-.57-.64-1.65-.64-.78 0-1.3.18-.51.18-.9.41t-.71.41-.71.18q-.33 0-.57-.17-.23-.18-.38-.41m16.15 10.45h-3.21v-13.34h1.96q.63 0 .82.59l.21.98q.35-.39.73-.71.39-.33.82-.56.44-.23.94-.37t1.1-.14q1.26 0 2.07.69.81.68 1.22 1.81.31-.66.78-1.14.46-.47 1.02-.77t1.19-.44q.63-.15 1.27-.15 1.11 0 1.96.34.86.34 1.45.99.58.65.89 1.59.3.93.3 2.14v8.49h-3.21v-8.49q0-1.27-.56-1.92-.56-.64-1.64-.64-.49 0-.91.17t-.74.49q-.32.31-.5.8-.19.48-.19 1.1v8.49h-3.22v-8.49q0-1.34-.54-1.95t-1.58-.61q-.7 0-1.31.34-.6.35-1.12.95zm18.68-13.34h3.21v13.34h-3.21zm3.08-5.67h3.12l-3.21 3.4q-.25.26-.47.35-.23.1-.59.1h-1.93l1.85-3.16q.19-.34.45-.51.26-.18.78-.18m3.46-.31h3.21v19.32h-3.21zm6.53 5.98h3.22v13.34h-3.22zm3.66-3.89q0 .42-.17.78-.17.37-.44.64-.28.27-.66.44-.38.16-.81.16-.41 0-.78-.16-.37-.17-.65-.44-.27-.27-.43-.64-.17-.36-.17-.78t.17-.8q.16-.38.43-.65.28-.27.65-.44.37-.16.78-.16.43 0 .81.16.38.17.66.44.27.27.44.65t.17.8m9.88 13.78v-2.24q-1.39.06-2.34.24-.95.17-1.52.44-.57.28-.82.64-.24.37-.24.79 0 .85.5 1.21.5.37 1.3.37.99 0 1.71-.36t1.41-1.09m-6.78-7-.58-1.03q2.31-2.11 5.54-2.11 1.17 0 2.1.39.92.38 1.56 1.06.63.69.96 1.64.34.94.34 2.08v8.42h-1.46q-.46 0-.7-.14-.25-.13-.39-.55l-.29-.96q-.51.45-.99.8-.48.34-1 .58-.52.23-1.11.35-.59.13-1.31.13-.84 0-1.56-.23-.71-.23-1.23-.68-.52-.46-.81-1.13-.28-.68-.28-1.58 0-.5.17-1t.55-.96q.38-.45.99-.86.61-.4 1.51-.7.89-.3 2.07-.49t2.7-.22v-.78q0-1.34-.57-1.99-.57-.64-1.65-.64-.78 0-1.29.18-.52.18-.91.41t-.71.41q-.31.18-.7.18-.34 0-.58-.17-.23-.18-.37-.41"/></svg>