<svg xmlns="http://www.w3.org/2000/svg" width="300" height="200" viewBox="0 0 300 200"><rect width="100%" height="100%" fill="#DDDDDD"/><path fill="#999999" d="M73.455 105.32q.3 0 .53.23l1.43 1.55q-1.19 1.47-2.92 2.25-1.74.79-4.17.79-2.17 0-3.91-.75-1.73-.74-2.96-2.06-1.23-1.33-1.88-3.16-.66-1.84-.66-4.01 0-2.2.71-4.03.7-1.83 1.97-3.15 1.28-1.33 3.05-2.06 1.77-.74 3.91-.74t3.79.7q1.65.71 2.81 1.84l-1.21 1.69q-.11.16-.28.28t-.46.12q-.21 0-.42-.11-.22-.12-.47-.28-.26-.17-.6-.38-.34-.2-.78-.37-.45-.17-1.03-.28-.59-.12-1.36-.12-1.31 0-2.4.47-1.08.47-1.87 1.35-.78.88-1.21 2.16t-.43 2.91q0 1.65.46 2.93.47 1.28 1.26 2.16.8.88 1.88 1.34 1.08.47 2.32.47.74 0 1.35-.08.6-.08 1.1-.26.51-.18.96-.45.45-.28.9-.68.13-.13.28-.2t.31-.07m12.53-9.25h3.34v13.85h-2.04q-.66 0-.84-.61l-.23-1.1q-.85.86-1.88 1.39-1.02.54-2.41.54-1.14 0-2.01-.39-.87-.38-1.46-1.09-.6-.7-.9-1.66-.3-.97-.3-2.13v-8.8h3.33v8.8q0 1.27.59 1.97.59.69 1.76.69.86 0 1.62-.38.76-.39 1.43-1.06zm6.67-6.21h3.33v20.06h-3.33zm11.29 20.28q-1.81 0-2.78-1.02-.96-1.02-.96-2.82v-7.73h-1.42q-.27 0-.46-.18-.19-.17-.19-.53v-1.32l2.23-.36.7-3.78q.07-.27.26-.42t.48-.15h1.73v4.36h3.7v2.38h-3.7v7.5q0 .65.32 1.02.32.36.87.36.31 0 .52-.07.21-.08.36-.16.16-.08.28-.16.12-.07.24-.07.15 0 .25.07.09.08.2.23l1 1.62q-.73.61-1.68.92-.94.31-1.95.31m11.55-14.29q1.54 0 2.8.5 1.27.5 2.16 1.42.9.92 1.39 2.24.48 1.32.48 2.96t-.48 2.97q-.49 1.32-1.39 2.25-.89.93-2.16 1.43-1.26.5-2.8.5-1.55 0-2.82-.5t-2.17-1.43q-.89-.93-1.39-2.25-.49-1.33-.49-2.97t.49-2.96q.5-1.32 1.39-2.24.9-.92 2.17-1.42t2.82-.5m0 11.71q1.73 0 2.56-1.16t.83-3.41q0-2.24-.83-3.41-.83-1.18-2.56-1.18-1.75 0-2.6 1.19-.84 1.18-.84 3.4 0 2.23.84 3.4.85 1.17 2.6 1.17m24.64-1.74v-6.21q-.57-.69-1.24-.98-.66-.28-1.43-.28-.76 0-1.37.28-.6.29-1.04.86-.43.57-.66 1.46-.23.88-.23 2.09t.2 2.05q.19.85.56 1.38.36.53.89.77t1.17.24q1.04 0 1.77-.44.73-.43 1.38-1.22m0-15.96h3.33v20.06h-2.03q-.67 0-.84-.61l-.29-1.33q-.83.95-1.92 1.55-1.09.59-2.53.59-1.13 0-2.08-.47-.94-.47-1.63-1.37-.68-.9-1.05-2.22t-.37-3.02q0-1.54.42-2.87.42-1.32 1.2-2.29t1.88-1.52q1.09-.55 2.45-.55 1.16 0 1.99.37.82.36 1.47.98zm9.26 11.54h6.29q0-.65-.18-1.22t-.55-1.01q-.36-.43-.92-.68t-1.31-.25q-1.44 0-2.27.83-.83.82-1.06 2.33m8.51 2.01h-8.58q.08 1.07.38 1.85.3.77.78 1.28.49.5 1.16.75t1.48.25 1.39-.18q.59-.19 1.03-.42t.77-.42.64-.19q.42 0 .62.31l.96 1.21q-.55.65-1.24 1.09t-1.44.7q-.75.27-1.53.37-.77.11-1.5.11-1.45 0-2.69-.48t-2.16-1.41q-.92-.94-1.44-2.33-.53-1.38-.53-3.2 0-1.42.46-2.67t1.32-2.17q.85-.93 2.09-1.47 1.23-.54 2.79-.54 1.31 0 2.41.42 1.11.42 1.91 1.22.79.81 1.25 1.97.45 1.17.45 2.67 0 .76-.16 1.02-.17.26-.62.26m23.77 1.91q.3 0 .53.23l1.43 1.55q-1.19 1.47-2.93 2.25-1.73.79-4.16.79-2.17 0-3.91-.75-1.73-.74-2.96-2.06-1.23-1.33-1.89-3.16-.65-1.84-.65-4.01 0-2.2.7-4.03t1.98-3.15q1.27-1.33 3.04-2.06 1.77-.74 3.92-.74 2.13 0 3.78.7 1.66.71 2.82 1.84l-1.22 1.69q-.1.16-.27.28t-.47.12q-.2 0-.42-.11-.21-.12-.47-.28-.26-.17-.59-.38-.34-.2-.79-.37-.44-.17-1.03-.28-.59-.12-1.36-.12-1.3 0-2.39.47t-1.87 1.35-1.22 2.16q-.43 1.28-.43 2.91 0 1.65.47 2.93.46 1.28 1.26 2.16t1.88 1.34q1.08.47 2.32.47.74 0 1.34-.08t1.11-.26q.5-.18.96-.45.45-.28.89-.68.14-.13.29-.2t.31-.07m11.24 1.02v-2.33q-1.44.06-2.43.25-.98.18-1.58.46-.59.29-.85.66-.25.38-.25.83 0 .88.52 1.25.52.38 1.35.38 1.03 0 1.78-.37t1.46-1.13m-7.04-7.27-.6-1.07q2.39-2.19 5.75-2.19 1.22 0 2.18.4t1.62 1.11 1 1.69q.35.99.35 2.16v8.75h-1.51q-.48 0-.73-.14-.26-.14-.41-.58l-.3-.99q-.52.47-1.02.83-.5.35-1.04.6-.54.24-1.16.37-.61.13-1.35.13-.88 0-1.62-.24t-1.28-.71-.84-1.17q-.3-.71-.3-1.64 0-.52.18-1.04.17-.52.57-1 .4-.47 1.03-.89.64-.41 1.56-.73.93-.31 2.16-.5 1.22-.2 2.8-.24v-.81q0-1.39-.59-2.06-.59-.66-1.71-.66-.81 0-1.35.18-.53.19-.94.43-.4.24-.73.42-.33.19-.74.19-.35 0-.59-.18t-.39-.42m22.64-1.5-.76 1.2q-.13.21-.28.3t-.38.09q-.24 0-.52-.13-.28-.14-.64-.31-.37-.17-.83-.3-.47-.14-1.1-.14-.99 0-1.55.42t-.56 1.09q0 .45.29.75.29.31.77.54t1.09.41 1.23.4q.63.21 1.24.49t1.09.7q.47.43.76 1.02.3.6.3 1.43 0 1-.36 1.85-.36.84-1.06 1.45-.7.62-1.74.96-1.03.35-2.38.35-.72 0-1.4-.13t-1.31-.36q-.62-.23-1.16-.54-.53-.31-.94-.67l.77-1.27q.15-.23.35-.35.21-.13.52-.13t.58.18q.28.17.65.38.36.2.85.38.5.17 1.25.17.6 0 1.02-.14.43-.14.7-.37.28-.23.41-.54.13-.3.13-.62 0-.49-.29-.8t-.77-.54-1.1-.41q-.61-.18-1.25-.4t-1.26-.51q-.61-.29-1.09-.73-.48-.45-.77-1.1-.29-.64-.29-1.56 0-.85.34-1.62.33-.77.99-1.34.65-.58 1.63-.92.98-.35 2.26-.35 1.43 0 2.61.48 1.17.47 1.96 1.24m9.97 8.77v-2.33q-1.44.06-2.43.25-.98.18-1.58.46-.59.29-.85.66-.25.38-.25.83 0 .88.52 1.25.52.38 1.35.38 1.03 0 1.78-.37t1.46-1.13m-7.04-7.27-.6-1.07q2.39-2.19 5.75-2.19 1.22 0 2.18.4t1.62 1.11 1 1.69q.35.99.35 2.16v8.75h-1.52q-.47 0-.72-.14-.26-.14-.41-.58l-.3-.99q-.52.47-1.02.83-.5.35-1.04.6-.54.24-1.16.37-.61.13-1.35.13-.88 0-1.62-.24-.75-.24-1.29-.71t-.83-1.17q-.3-.71-.3-1.64 0-.52.18-1.04.17-.52.57-1 .4-.47 1.03-.89.64-.41 1.56-.73.93-.31 2.16-.5 1.22-.2 2.8-.24v-.81q0-1.39-.59-2.06-.59-.66-1.72-.66-.81 0-1.34.18-.53.19-.94.43-.4.24-.73.42-.33.19-.74.19-.35 0-.59-.18-.25-.18-.39-.42m13.54-3h3.34v13.85h-3.34zm3.8-4.04q0 .43-.17.81-.18.38-.47.66-.29.29-.68.46t-.84.17q-.43 0-.81-.17-.39-.17-.67-.46-.28-.28-.45-.66t-.17-.81q0-.44.17-.83.17-.4.45-.68t.67-.45q.38-.17.81-.17.45 0 .84.17t.68.45.47.68q.17.39.17.83m12.15 5.54-.75 1.2q-.14.21-.29.3-.14.09-.37.09-.25 0-.52-.13-.28-.14-.64-.31-.37-.17-.84-.3-.46-.14-1.1-.14-.98 0-1.54.42t-.56 1.09q0 .45.29.75.29.31.77.54t1.09.41q.6.18 1.23.4.63.21 1.24.49.6.28 1.08.7.48.43.77 1.02.29.6.29 1.43 0 1-.36 1.85-.35.84-1.06 1.45-.7.62-1.73.96-1.03.35-2.38.35-.72 0-1.4-.13t-1.31-.36-1.16-.54-.94-.67l.77-1.27q.15-.23.35-.35.2-.13.51-.13.32 0 .59.18.28.17.64.38.37.2.86.38.49.17 1.25.17.59 0 1.02-.14.42-.14.7-.37t.41-.54q.12-.3.12-.62 0-.49-.29-.8t-.77-.54-1.09-.41-1.26-.4q-.64-.22-1.25-.51t-1.09-.73q-.48-.45-.77-1.1-.29-.64-.29-1.56 0-.85.33-1.62.34-.77 1-1.34.65-.58 1.63-.92.98-.35 2.26-.35 1.43 0 2.61.48 1.17.47 1.95 1.24"/></svg>