<svg xmlns="http://www.w3.org/2000/svg" width="300" height="200" viewBox="0 0 300 200"><rect width="100%" height="100%" fill="#DDDDDD"/><path fill="#999999" d="M72.905 105.125q.29 0 .51.22l1.38 1.49q-1.14 1.42-2.82 2.17-1.67.76-4.01.76-2.09 0-3.76-.72-1.67-.71-2.85-1.99-1.19-1.27-1.82-3.04t-.63-3.86q0-2.12.68-3.88t1.9-3.04q1.23-1.27 2.94-1.98 1.7-.71 3.77-.71 2.05 0 3.64.68t2.71 1.77l-1.17 1.62q-.1.16-.26.28-.17.11-.45.11-.2 0-.41-.11-.2-.11-.45-.27t-.57-.36q-.33-.19-.76-.36-.43-.16-.99-.27-.57-.11-1.31-.11-1.26 0-2.31.45-1.04.45-1.8 1.3-.75.85-1.17 2.08-.41 1.23-.41 2.8 0 1.59.45 2.82.45 1.24 1.21 2.08.77.85 1.81 1.3 1.04.44 2.24.44.71 0 1.29-.07.58-.08 1.06-.25.49-.17.93-.44.43-.26.86-.65.13-.12.28-.19.14-.07.29-.07m12.07-8.91h3.21v13.34h-1.96q-.64 0-.81-.59l-.22-1.06q-.82.83-1.81 1.34-.99.52-2.32.52-1.1 0-1.94-.37-.83-.37-1.41-1.05-.57-.68-.86-1.6-.29-.93-.29-2.05v-8.48h3.21v8.48q0 1.22.56 1.89.57.67 1.7.67.83 0 1.56-.37t1.38-1.02zm6.42-5.98h3.21v19.32h-3.21zm10.87 19.53q-1.74 0-2.67-.98-.93-.99-.93-2.71v-7.45h-1.37q-.26 0-.44-.17t-.18-.51v-1.27l2.14-.35.68-3.64q.06-.26.25-.41.18-.14.46-.14h1.67v4.2h3.56v2.29h-3.56v7.22q0 .63.3.98.31.35.84.35.3 0 .5-.07t.35-.15.27-.15.23-.07q.15 0 .24.07t.19.21l.97 1.56q-.71.59-1.62.89t-1.88.3m11.13-13.76q1.48 0 2.69.48 1.22.49 2.08 1.37.87.88 1.34 2.16.46 1.27.46 2.84 0 1.59-.46 2.86-.47 1.28-1.34 2.18-.86.89-2.08 1.37-1.21.49-2.69.49-1.5 0-2.72-.49-1.22-.48-2.09-1.37-.86-.9-1.34-2.18-.47-1.27-.47-2.86 0-1.57.47-2.84.48-1.28 1.34-2.16.87-.88 2.09-1.37 1.22-.48 2.72-.48m0 11.27q1.66 0 2.46-1.11.8-1.12.8-3.28t-.8-3.29-2.46-1.13q-1.69 0-2.51 1.14-.81 1.14-.81 3.28 0 2.15.81 3.27.82 1.12 2.51 1.12m23.72-1.67v-5.98q-.54-.67-1.19-.94-.64-.27-1.38-.27-.73 0-1.32.27-.58.27-1 .83-.41.55-.63 1.4t-.22 2.01q0 1.17.18 1.98.19.81.54 1.33.35.51.86.74t1.13.23q1 0 1.71-.42.7-.42 1.32-1.18m0-15.37h3.21v19.32h-1.96q-.64 0-.81-.59l-.27-1.28q-.81.92-1.85 1.49-1.05.58-2.44.58-1.09 0-2-.46t-1.57-1.32q-.65-.86-1.01-2.14-.36-1.27-.36-2.91 0-1.48.4-2.76.41-1.27 1.16-2.21.75-.93 1.81-1.46 1.05-.53 2.36-.53 1.12 0 1.91.36.8.35 1.42.94zm8.92 11.12h6.06q0-.63-.18-1.18-.17-.55-.52-.97-.36-.41-.9-.65-.53-.25-1.25-.25-1.39 0-2.19.8-.8.79-1.02 2.25m8.19 1.93h-8.26q.08 1.03.37 1.78.28.75.75 1.23.47.49 1.11.73.65.24 1.43.24t1.34-.18q.57-.18.99-.4t.74-.41q.32-.18.62-.18.4 0 .6.3l.92 1.17q-.53.62-1.2 1.05-.66.42-1.38.67-.72.26-1.47.36-.75.11-1.45.11-1.39 0-2.59-.47-1.19-.46-2.08-1.36-.88-.91-1.39-2.24-.5-1.33-.5-3.09 0-1.36.44-2.56.44-1.21 1.27-2.1.82-.89 2.01-1.41t2.69-.52q1.26 0 2.32.41 1.07.4 1.84 1.17.76.78 1.2 1.9.43 1.13.43 2.57 0 .73-.15.98-.16.25-.6.25m17.15-12.53v12.12q0 1.58-.39 2.86-.39 1.27-1.17 2.17-.77.9-1.93 1.38-1.15.48-2.69.48-.7 0-1.38-.09-.67-.08-1.41-.26.04-.52.09-1.04t.09-1.04q.04-.29.23-.46.18-.18.54-.18.22 0 .57.09.36.09.91.09.74 0 1.31-.21.57-.22.96-.69.38-.46.57-1.21.2-.75.2-1.81v-12.2zm9.4 5.25q1.48 0 2.69.48 1.22.49 2.08 1.37.87.88 1.34 2.16.46 1.27.46 2.84 0 1.59-.46 2.86-.47 1.28-1.34 2.18-.86.89-2.08 1.37-1.21.49-2.69.49-1.5 0-2.72-.49-1.22-.48-2.09-1.37-.86-.9-1.34-2.18-.47-1.27-.47-2.86 0-1.57.47-2.84.48-1.28 1.34-2.16.87-.88 2.09-1.37 1.22-.48 2.72-.48m0 11.27q1.66 0 2.46-1.11.8-1.12.8-3.28t-.8-3.29-2.46-1.13q-1.69 0-2.51 1.14-.81 1.14-.81 3.28 0 2.15.81 3.27.82 1.12 2.51 1.12m18.52-11.06h2.54l-5.3 13.34h-2.91l-5.29-13.34h2.65q.37 0 .61.17t.32.43l2.57 7.12q.21.63.36 1.23.16.59.28 1.19.13-.6.28-1.19.16-.6.38-1.23l2.63-7.12q.09-.26.32-.43.24-.17.56-.17m6.77 5.14h6.06q0-.63-.17-1.18-.18-.55-.53-.97-.35-.41-.89-.65-.54-.25-1.26-.25-1.39 0-2.19.8-.8.79-1.02 2.25m8.19 1.93h-8.25q.08 1.03.36 1.78.29.75.76 1.23.46.49 1.11.73.64.24 1.42.24t1.35-.18q.56-.18.98-.4.43-.22.75-.41.31-.18.61-.18.41 0 .6.3l.92 1.17q-.53.62-1.19 1.05-.66.42-1.39.67-.72.26-1.47.36-.74.11-1.44.11-1.4 0-2.59-.47-1.2-.46-2.08-1.36-.89-.91-1.39-2.24-.51-1.33-.51-3.09 0-1.36.44-2.56.44-1.21 1.27-2.1t2.01-1.41q1.19-.52 2.69-.52 1.26 0 2.33.41 1.06.4 1.83 1.17.77.78 1.2 1.9.44 1.13.44 2.57 0 .73-.16.98-.15.25-.6.25m5.94-6.48.23 1.05q.4-.4.85-.75.45-.34.95-.58t1.07-.38 1.25-.14q1.09 0 1.93.37.85.37 1.41 1.04.57.67.86 1.6t.29 2.05v8.49h-3.21v-8.49q0-1.22-.56-1.89-.55-.67-1.7-.67-.83 0-1.56.38-.73.37-1.38 1.02v9.65h-3.21v-13.34h1.97q.62 0 .81.59m20.75.85-.73 1.16q-.13.21-.27.29-.14.09-.36.09-.24 0-.5-.13-.27-.13-.62-.29-.35-.17-.8-.3t-1.06-.13q-.95 0-1.49.41-.54.4-.54 1.05 0 .43.28.72t.74.51q.46.23 1.05.4.58.18 1.19.38.6.21 1.19.48.58.27 1.04.68.47.4.75.98.28.57.28 1.37 0 .97-.35 1.78-.34.81-1.02 1.4t-1.67.93q-.99.33-2.29.33-.69 0-1.35-.13-.66-.12-1.26-.34-.61-.22-1.12-.52t-.9-.65l.74-1.22q.14-.22.34-.34.19-.12.49-.12t.57.17q.26.17.61.37.35.19.83.36.47.17 1.2.17.57 0 .98-.14.41-.13.68-.36.27-.22.39-.51t.12-.6q0-.47-.28-.77t-.74-.52-1.05-.4q-.59-.17-1.21-.38t-1.21-.49-1.05-.71-.74-1.05-.28-1.51q0-.82.32-1.56.33-.74.96-1.29t1.57-.88q.94-.34 2.18-.34 1.38 0 2.51.46 1.13.45 1.88 1.19"/></svg>