<svg xmlns="http://www.w3.org/2000/svg" width="300" height="200" viewBox="0 0 300 200"><rect width="100%" height="100%" fill="#DDDDDD"/><path fill="#999999" d="M67.575 102.35q.23 0 .41.18l1.11 1.21q-.92 1.14-2.27 1.75t-3.24.61q-1.69 0-3.04-.58t-2.31-1.61q-.95-1.03-1.46-2.45-.51-1.43-.51-3.12 0-1.71.55-3.14.54-1.42 1.53-2.45 1-1.03 2.37-1.6 1.38-.57 3.05-.57 1.66 0 2.94.54 1.29.55 2.19 1.43l-.94 1.32q-.09.12-.22.22-.13.09-.36.09-.16 0-.33-.09t-.36-.22q-.2-.13-.47-.29-.26-.16-.61-.29-.34-.13-.8-.22t-1.05-.09q-1.02 0-1.87.37-.84.36-1.45 1.05-.61.68-.95 1.68-.33.99-.33 2.26 0 1.28.36 2.28.36.99.98 1.68.62.68 1.46 1.04t1.81.36q.57 0 1.04-.06t.86-.2q.4-.14.75-.35.35-.22.7-.53.1-.1.22-.15.11-.06.24-.06m9.74-7.19h2.6v10.77h-1.59q-.51 0-.65-.47l-.18-.86q-.66.67-1.46 1.08-.8.42-1.88.42-.88 0-1.56-.3t-1.14-.85q-.46-.54-.7-1.29-.23-.75-.23-1.66v-6.84h2.59V102q0 .99.46 1.53t1.37.54q.67 0 1.26-.3t1.11-.82zm5.19-4.83h2.59v15.6h-2.59zm8.78 15.77q-1.41 0-2.16-.79-.75-.8-.75-2.19V97.1h-1.1q-.21 0-.36-.14-.15-.13-.15-.41v-1.03l1.73-.28.55-2.94q.05-.21.2-.32.15-.12.38-.12h1.34v3.39h2.88v1.85h-2.88v5.84q0 .5.25.78.25.29.68.29.24 0 .4-.06t.28-.12.22-.12q.09-.06.19-.06.11 0 .19.06.07.06.15.17l.78 1.26q-.57.47-1.3.72-.74.24-1.52.24m8.98-11.11q1.2 0 2.18.39.99.39 1.68 1.1.7.71 1.08 1.74t.38 2.3q0 1.28-.38 2.31t-1.08 1.76q-.69.72-1.68 1.11-.98.39-2.18.39t-2.19-.39-1.69-1.11q-.69-.73-1.08-1.76-.38-1.03-.38-2.31 0-1.27.38-2.3.39-1.03 1.08-1.74.7-.71 1.69-1.1t2.19-.39m0 9.1q1.35 0 1.99-.9.65-.9.65-2.65 0-1.74-.65-2.65-.64-.92-1.99-.92-1.36 0-2.02.92-.65.92-.65 2.65 0 1.74.65 2.64.66.91 2.02.91m19.17-1.35v-4.83q-.44-.54-.96-.76t-1.12-.22q-.59 0-1.06.22t-.81.67q-.34.44-.52 1.13-.17.69-.17 1.62 0 .95.15 1.61.15.65.43 1.07.29.41.7.6.41.18.91.18.81 0 1.38-.34.56-.33 1.07-.95m0-12.41h2.59v15.6h-1.58q-.52 0-.66-.47l-.22-1.04q-.65.74-1.49 1.21-.85.46-1.97.46-.88 0-1.62-.37-.73-.37-1.26-1.07-.53-.69-.82-1.72t-.29-2.36q0-1.19.32-2.22.33-1.03.94-1.79.61-.75 1.46-1.18.85-.42 1.91-.42.9 0 1.54.28t1.15.77zm7.2 8.97h4.89q0-.5-.14-.95-.14-.44-.42-.78-.29-.33-.72-.53-.44-.19-1.02-.19-1.12 0-1.77.64-.64.64-.82 1.81m6.62 1.57h-6.67q.06.83.29 1.43.23.61.61 1t.9.59q.52.19 1.15.19t1.08-.15q.46-.14.8-.32t.6-.33q.26-.14.5-.14.33 0 .48.24l.75.94q-.43.51-.97.85-.53.34-1.12.54-.58.21-1.18.29-.61.09-1.17.09-1.13 0-2.09-.38-.97-.37-1.68-1.1-.72-.73-1.13-1.8-.41-1.08-.41-2.5 0-1.1.36-2.07t1.03-1.69q.66-.72 1.62-1.14t2.17-.42q1.02 0 1.88.32.86.33 1.48.95.62.63.97 1.54t.35 2.07q0 .59-.12.79-.13.21-.48.21m18.49 1.48q.23 0 .41.18l1.11 1.21q-.93 1.14-2.28 1.75-1.34.61-3.23.61-1.69 0-3.04-.58t-2.31-1.61q-.95-1.03-1.46-2.45-.51-1.43-.51-3.12 0-1.71.54-3.14.55-1.42 1.54-2.45t2.37-1.6q1.37-.57 3.04-.57 1.66 0 2.95.54 1.29.55 2.19 1.43l-.95 1.32q-.08.12-.21.22-.13.09-.36.09-.16 0-.33-.09t-.37-.22-.46-.29-.61-.29q-.34-.13-.8-.22t-1.06-.09q-1.01 0-1.86.37-.85.36-1.45 1.05-.61.68-.95 1.68-.34.99-.34 2.26 0 1.28.37 2.28.36.99.98 1.68.62.68 1.46 1.04t1.8.36q.58 0 1.05-.06t.86-.2.75-.35q.35-.22.69-.53.11-.1.22-.15.12-.06.25-.06m5.1-3.05h4.89q0-.5-.14-.95-.14-.44-.43-.78-.28-.33-.71-.53-.44-.19-1.02-.19-1.12 0-1.77.64-.64.64-.82 1.81m6.61 1.57h-6.66q.06.83.29 1.43.23.61.61 1t.9.59q.52.19 1.15.19t1.08-.15q.46-.14.8-.32t.6-.33q.26-.14.5-.14.32 0 .48.24l.75.94q-.43.51-.97.85-.53.34-1.12.54-.58.21-1.18.29-.61.09-1.17.09-1.13 0-2.09-.38-.97-.37-1.68-1.1-.72-.73-1.13-1.8-.41-1.08-.41-2.5 0-1.1.36-2.07t1.02-1.69q.67-.72 1.63-1.14t2.17-.42q1.02 0 1.88.32.86.33 1.48.95.62.63.97 1.54t.35 2.07q0 .59-.12.79-.13.21-.49.21m2.59-10.54h2.59v15.6h-2.59zm7.23 8.97h4.89q0-.5-.14-.95-.14-.44-.42-.78-.29-.33-.72-.53-.44-.19-1.02-.19-1.12 0-1.76.64-.65.64-.83 1.81m6.62 1.57h-6.67q.06.83.29 1.43.23.61.61 1t.9.59q.52.19 1.15.19t1.09-.15q.45-.14.79-.32.35-.18.6-.33.26-.14.5-.14.33 0 .48.24l.75.94q-.43.51-.97.85-.53.34-1.11.54-.59.21-1.19.29-.6.09-1.17.09-1.13 0-2.09-.38-.97-.37-1.68-1.1-.72-.73-1.12-1.8-.41-1.08-.41-2.5 0-1.1.35-2.07.36-.97 1.03-1.69.66-.72 1.62-1.14t2.17-.42q1.02 0 1.88.32.86.33 1.48.95.62.63.97 1.54.36.91.36 2.07 0 .59-.13.79-.13.21-.48.21m5.14-2.56v4.83q.44.53.96.75t1.1.22q.6 0 1.08-.21.47-.22.81-.67.34-.46.51-1.17.18-.71.18-1.7 0-1.77-.59-2.56-.58-.8-1.69-.8-.74 0-1.3.35-.55.34-1.06.96m0-7.98v6.15q.65-.68 1.44-1.09.8-.4 1.82-.4.93 0 1.68.37.75.36 1.28 1.05t.82 1.67q.28.97.28 2.19 0 1.31-.33 2.38-.32 1.07-.93 1.84-.6.76-1.45 1.18t-1.89.42q-.5 0-.91-.1t-.76-.28-.63-.44q-.29-.25-.56-.57l-.11.73q-.06.27-.22.38-.15.12-.41.12h-1.71v-15.6zm11.61 5.48.16 1.22q.51-.97 1.2-1.52t1.64-.55q.74 0 1.19.32l-.16 1.95q-.06.18-.16.26t-.26.08-.47-.05-.61-.05q-.43 0-.76.12-.34.13-.61.37-.26.23-.47.57-.2.33-.38.76v6.64h-2.59V95.16h1.52q.4 0 .55.14.16.14.21.51m11.24 7.34v-1.82q-1.12.05-1.89.2-.77.14-1.23.36t-.66.51q-.2.3-.2.64 0 .68.4.98.41.29 1.06.29.8 0 1.38-.29.58-.28 1.14-.87m-5.48-5.66-.46-.83q1.85-1.7 4.47-1.7.94 0 1.69.31t1.26.86.78 1.32q.27.76.27 1.68v6.8h-1.18q-.36 0-.56-.11t-.32-.45l-.23-.77q-.41.36-.8.64t-.81.47-.89.29q-.48.1-1.06.1-.68 0-1.26-.19-.58-.18-1-.55-.42-.36-.65-.91t-.23-1.27q0-.41.14-.81.13-.41.44-.78.31-.36.81-.69.49-.33 1.21-.57t1.68-.39q.95-.15 2.18-.18v-.63q0-1.09-.46-1.61t-1.34-.52q-.63 0-1.04.15-.42.15-.73.33-.32.19-.57.33-.26.15-.58.15-.27 0-.46-.14t-.3-.33m18.21 5.89.74.94q-.71.84-1.61 1.24-.9.39-1.85.49l-.14.52q.99.23 1.38.63.39.39.39.94 0 .35-.18.64-.18.28-.53.48-.34.2-.8.3-.47.11-1.04.11-.43 0-.81-.06-.37-.06-.73-.17l.23-.81q.06-.24.3-.24.15 0 .33.08.18.07.51.07.35 0 .52-.13.18-.13.18-.32 0-.3-.38-.43t-1.17-.25l.47-1.37q-.89-.13-1.64-.56-.76-.42-1.31-1.12-.56-.7-.88-1.66-.32-.97-.32-2.18 0-1.18.34-2.2.34-1.01 1-1.75t1.64-1.16 2.25-.42q1.2 0 2.11.39t1.64 1.11l-.69.95q-.11.14-.22.23-.11.08-.32.08-.2 0-.39-.12t-.45-.27q-.27-.16-.63-.28t-.9-.12q-.68 0-1.19.25-.52.25-.86.71t-.51 1.12q-.17.65-.17 1.48 0 .86.19 1.54.18.67.53 1.12.35.46.84.7.49.23 1.11.23t1-.15q.39-.15.65-.33.26-.19.46-.34.19-.15.43-.15.32 0 .48.24m8.07-.23v-1.82q-1.12.05-1.89.2-.77.14-1.23.36t-.66.51q-.2.3-.2.64 0 .68.4.98.41.29 1.06.29.8 0 1.38-.29.58-.28 1.14-.87m-5.48-5.66-.46-.83q1.86-1.7 4.47-1.7.94 0 1.69.31t1.26.86.78 1.32q.27.76.27 1.68v6.8h-1.18q-.36 0-.56-.11t-.32-.45l-.23-.77q-.41.36-.8.64t-.81.47-.89.29q-.48.1-1.06.1-.68 0-1.26-.19-.58-.18-1-.55-.42-.36-.65-.91t-.23-1.27q0-.41.14-.81.14-.41.44-.78.31-.36.81-.69.49-.33 1.21-.57t1.68-.39q.95-.15 2.18-.18v-.63q0-1.09-.46-1.61t-1.34-.52q-.63 0-1.04.15-.42.15-.73.33-.32.19-.57.33-.26.15-.57.15-.28 0-.47-.14t-.3-.33m4.89-5.83q.32 0 .5-.17.17-.18.17-.63h1.58q0 .59-.16 1.07-.17.48-.45.82t-.68.52q-.39.19-.86.19-.38 0-.71-.14-.32-.14-.61-.29-.28-.16-.53-.3-.24-.14-.45-.14-.31 0-.48.19-.17.18-.17.62h-1.61q0-.58.16-1.06t.46-.82q.29-.34.69-.53.39-.19.85-.19.38 0 .71.14.33.13.62.29.28.16.52.29.24.14.45.14m10.32 3.33q1.2 0 2.18.39t1.68 1.1 1.08 1.74.38 2.3q0 1.28-.38 2.31t-1.08 1.76q-.7.72-1.68 1.11t-2.18.39-2.19-.39-1.69-1.11q-.69-.73-1.08-1.76-.38-1.03-.38-2.31 0-1.27.38-2.3.39-1.03 1.08-1.74.7-.71 1.69-1.1t2.19-.39m0 9.1q1.35 0 1.99-.9.65-.9.65-2.65 0-1.74-.65-2.65-.64-.92-1.99-.92-1.36 0-2.02.92-.65.92-.65 2.65 0 1.74.65 2.64.66.91 2.02.91"/></svg>