<svg xmlns="http://www.w3.org/2000/svg" width="800" height="500" viewBox="0 0 800 500"><rect width="100%" height="100%" fill="#DDDDDD"/><path fill="#999999" d="M176.945 258.18v-4.75q-2.94.13-4.95.5-2 .37-3.21.95t-1.74 1.35q-.52.77-.52 1.68 0 1.78 1.06 2.56 1.06.76 2.76.76 2.09 0 3.62-.75 1.53-.76 2.98-2.3m-14.35-14.82-1.21-2.17q4.87-4.46 11.71-4.46 2.48 0 4.43.81 1.95.82 3.3 2.26t2.05 3.45.7 4.4v17.82h-3.08q-.96 0-1.48-.29-.53-.29-.83-1.17l-.6-2.03q-1.08.96-2.09 1.69-1.02.73-2.12 1.22-1.1.5-2.35.76t-2.77.26q-1.78 0-3.3-.48-1.51-.48-2.61-1.45-1.1-.96-1.7-2.39-.61-1.43-.61-3.33 0-1.07.36-2.13.36-1.05 1.17-2.02.81-.96 2.1-1.81 1.29-.86 3.18-1.49 1.88-.63 4.38-1.03 2.51-.4 5.72-.48v-1.65q0-2.83-1.21-4.19-1.21-1.37-3.49-1.37-1.65 0-2.73.39-1.09.38-1.92.87-.82.48-1.49.86-.68.39-1.5.39-.72 0-1.21-.37-.5-.37-.8-.87m34.15 22.11h-6.79v-28.21h4.15q1.32 0 1.74 1.23l.44 2.09q.74-.82 1.55-1.51t1.73-1.18q.92-.5 1.98-.79t2.33-.29q2.66 0 4.38 1.45 1.72 1.44 2.57 3.83.66-1.4 1.65-2.4.99-1.01 2.18-1.64 1.18-.63 2.51-.93 1.34-.31 2.68-.31 2.34 0 4.16.72 1.81.71 3.05 2.09 1.24 1.37 1.88 3.35.65 1.98.65 4.54v17.96h-6.79v-17.96q0-2.69-1.19-4.05-1.18-1.37-3.46-1.37-1.05 0-1.94.36t-1.57 1.03q-.67.68-1.06 1.69-.38 1.02-.38 2.34v17.96h-6.82v-17.96q0-2.83-1.14-4.12-1.14-1.3-3.34-1.3-1.49 0-2.77.73t-2.38 2zm46.07-19.96v12.64q1.15 1.41 2.51 1.99 1.36.57 2.96.57 1.54 0 2.78-.57 1.23-.58 2.1-1.76.87-1.19 1.33-2.99.47-1.8.47-4.25 0-2.47-.4-4.19t-1.14-2.79q-.74-1.08-1.8-1.57-1.06-.5-2.41-.5-2.11 0-3.6.9-1.48.89-2.8 2.52m-.91-7.02.55 2.62q1.73-1.96 3.93-3.17t5.17-1.21q2.31 0 4.22.97 1.91.96 3.3 2.79 1.39 1.82 2.15 4.51.75 2.68.75 6.14 0 3.16-.85 5.86-.85 2.69-2.43 4.68-1.58 1.98-3.82 3.09-2.25 1.11-5.02 1.11-2.37 0-4.05-.73-1.67-.72-2.99-2.02v11.55h-6.8v-37.42h4.16q1.32 0 1.73 1.23m25.44-13.89h6.79v40.87h-6.79zm13.8 12.66h6.82v28.21h-6.82zm7.76-8.23q0 .88-.36 1.65t-.95 1.35-1.39.92q-.8.35-1.7.35-.88 0-1.67-.35-.78-.34-1.36-.92t-.92-1.35-.34-1.65q0-.9.34-1.7t.92-1.38q.58-.57 1.36-.92.79-.34 1.67-.34.9 0 1.7.34.8.35 1.39.92.59.58.95 1.38t.36 1.7m20.9 29.15v-4.75q-2.95.13-4.95.5-2.01.37-3.22.95t-1.73 1.35q-.53.77-.53 1.68 0 1.78 1.06 2.56 1.06.76 2.77.76 2.09 0 3.61-.75 1.53-.76 2.99-2.3m-14.36-14.82-1.21-2.17q4.87-4.46 11.72-4.46 2.47 0 4.42.81 1.96.82 3.3 2.26 1.35 1.44 2.05 3.45t.7 4.4v17.82h-3.08q-.96 0-1.48-.29t-.83-1.17l-.6-2.03q-1.07.96-2.09 1.69t-2.12 1.22q-1.1.5-2.35.76t-2.76.26q-1.79 0-3.3-.48-1.52-.48-2.62-1.45-1.1-.96-1.7-2.39-.61-1.43-.61-3.33 0-1.07.36-2.13.36-1.05 1.17-2.02.81-.96 2.1-1.81 1.3-.86 3.18-1.49t4.39-1.03q2.5-.4 5.72-.48v-1.65q0-2.83-1.21-4.19-1.21-1.37-3.5-1.37-1.65 0-2.73.39-1.09.38-1.91.87-.83.48-1.5.86-.68.39-1.5.39-.72 0-1.21-.37-.5-.37-.8-.87m49.36-2.61-1.78 2.47q-.31.39-.59.61-.29.22-.84.22-.53 0-1.02-.32-.5-.31-1.18-.71-.69-.4-1.64-.72-.95-.31-2.35-.31-1.79 0-3.14.64-1.34.65-2.24 1.86-.89 1.21-1.33 2.93-.44 1.71-.44 3.89 0 2.25.48 4.01t1.39 2.96q.91 1.19 2.2 1.81t2.91.62q1.63 0 2.63-.4 1-.39 1.69-.88.69-.48 1.2-.88t1.14-.4q.82 0 1.24.64l1.95 2.47q-1.13 1.32-2.45 2.22-1.32.89-2.73 1.43-1.42.53-2.92.75t-2.98.22q-2.62 0-4.93-.97-2.31-.98-4.04-2.85t-2.73-4.58q-1.01-2.71-1.01-6.17 0-3.11.9-5.76.89-2.66 2.62-4.6t4.29-3.03q2.56-1.11 5.89-1.11 3.16 0 5.54 1.02t4.27 2.92m19.42 17.43v-4.75q-2.94.13-4.95.5t-3.22.95-1.73 1.35-.52 1.68q0 1.78 1.06 2.56 1.05.76 2.76.76 2.09 0 3.62-.75 1.52-.76 2.98-2.3m-14.36-14.82-1.21-2.17q4.87-4.46 11.72-4.46 2.47 0 4.43.81 1.95.82 3.3 2.26 1.34 1.44 2.05 3.45.7 2.01.7 4.4v17.82h-3.08q-.97 0-1.49-.29t-.82-1.17l-.61-2.03q-1.07.96-2.09 1.69t-2.12 1.22q-1.1.5-2.35.76t-2.76.26q-1.79 0-3.3-.48t-2.61-1.45q-1.1-.96-1.71-2.39-.6-1.43-.6-3.33 0-1.07.35-2.13.36-1.05 1.17-2.02.81-.96 2.11-1.81 1.29-.86 3.17-1.49 1.89-.63 4.39-1.03t5.72-.48v-1.65q0-2.83-1.21-4.19-1.21-1.37-3.49-1.37-1.65 0-2.74.39-1.09.38-1.91.87-.83.48-1.5.86-.67.39-1.5.39-.71 0-1.21-.37-.49-.37-.8-.87m39.85-6.55q3.14 0 5.71 1.02t4.4 2.89 2.82 4.57q.99 2.69.99 6.02 0 3.35-.99 6.05-.99 2.69-2.82 4.59t-4.4 2.92q-2.57 1.01-5.71 1.01-3.16 0-5.75-1.01-2.58-1.02-4.41-2.92t-2.83-4.59q-1.01-2.7-1.01-6.05 0-3.33 1.01-6.02 1-2.7 2.83-4.57t4.41-2.89q2.59-1.02 5.75-1.02m0 23.85q3.52 0 5.21-2.37 1.69-2.36 1.69-6.93 0-4.56-1.69-6.96-1.69-2.39-5.21-2.39-3.57 0-5.29 2.41t-1.72 6.94q0 4.54 1.72 6.92t5.29 2.38m18.89-8.97v-5.66h14.25v5.66zm34.16 7.45h10.2q1.1 0 1.75.62.64.62.64 1.64v4.07h-27.28v-2.25q0-.69.29-1.45t.92-1.36l12.08-12.1q1.51-1.54 2.71-2.94 1.19-1.4 1.99-2.78.8-1.37 1.22-2.79.43-1.42.43-2.99 0-1.43-.41-2.51-.42-1.09-1.17-1.83-.76-.74-1.82-1.11t-2.38-.37q-1.21 0-2.24.34t-1.83.96q-.79.62-1.34 1.45-.55.82-.83 1.81-.47 1.26-1.21 1.68-.74.41-2.14.19l-3.58-.63q.41-2.86 1.6-5.02 1.18-2.16 2.95-3.6 1.78-1.45 4.07-2.18 2.3-.72 4.94-.72 2.75 0 5.03.81t3.91 2.29q1.62 1.49 2.53 3.58.9 2.09.9 4.64 0 2.2-.64 4.08-.65 1.87-1.73 3.57-1.09 1.71-2.55 3.3t-3.05 3.24l-8.97 9.16q1.3-.38 2.58-.59 1.27-.21 2.43-.21m45.65-13.55q0 5.19-1.11 9.03-1.12 3.84-3.08 6.34-1.97 2.5-4.65 3.73-2.68 1.22-5.79 1.22t-5.76-1.22q-2.66-1.23-4.61-3.73t-3.05-6.34-1.1-9.03q0-5.23 1.1-9.05t3.05-6.33q1.95-2.5 4.61-3.72 2.65-1.22 5.76-1.22t5.79 1.22 4.65 3.72q1.96 2.51 3.08 6.33 1.11 3.82 1.11 9.05m-7.01 0q0-4.32-.64-7.15-.63-2.83-1.69-4.51t-2.43-2.35q-1.38-.68-2.86-.68-1.46 0-2.82.68-1.36.67-2.41 2.35-1.04 1.68-1.66 4.51t-.62 7.15.62 7.15 1.66 4.51q1.05 1.68 2.41 2.35t2.82.67q1.48 0 2.86-.67 1.37-.67 2.43-2.35t1.69-4.51q.64-2.83.64-7.15m25.16 13.55h10.2q1.1 0 1.75.62.64.62.64 1.64v4.07h-27.28v-2.25q0-.69.29-1.45t.92-1.36l12.08-12.1q1.51-1.54 2.71-2.94 1.19-1.4 1.99-2.78.8-1.37 1.22-2.79.43-1.42.43-2.99 0-1.43-.41-2.51-.42-1.09-1.17-1.83-.76-.74-1.82-1.11t-2.38-.37q-1.21 0-2.24.34t-1.83.96q-.79.62-1.34 1.45-.55.82-.83 1.81-.47 1.26-1.21 1.68-.74.41-2.14.19l-3.58-.63q.41-2.86 1.6-5.02 1.18-2.16 2.95-3.6 1.78-1.45 4.07-2.18 2.3-.72 4.94-.72 2.75 0 5.03.81t3.91 2.29q1.62 1.49 2.53 3.58.9 2.09.9 4.64 0 2.2-.64 4.08-.65 1.87-1.73 3.57-1.09 1.71-2.55 3.3t-3.05 3.24l-8.97 9.16q1.3-.38 2.58-.59 1.27-.21 2.43-.21m21.67-21.72-3.58-.63q.42-2.86 1.6-5.02t2.96-3.6q1.77-1.45 4.07-2.18 2.29-.72 4.93-.72 2.75 0 4.97.78 2.21.78 3.78 2.17 1.56 1.39 2.4 3.26t.84 4.04q0 1.9-.42 3.34-.43 1.45-1.23 2.52t-1.98 1.82q-1.18.74-2.67 1.23 3.58 1.13 5.34 3.44t1.76 5.8q0 2.97-1.1 5.26-1.1 2.28-2.97 3.83t-4.33 2.35-5.21.8q-3 0-5.23-.69t-3.88-2.03q-1.65-1.35-2.8-3.3-1.16-1.96-1.98-4.51l3-1.24q1.18-.49 2.21-.26t1.5 1.11q.49.96 1.09 1.9.59.93 1.41 1.66.83.73 1.94 1.19 1.11.45 2.65.45 1.74 0 3.03-.56 1.29-.57 2.16-1.48.86-.9 1.29-2.02.43-1.11.43-2.24 0-1.43-.31-2.6-.3-1.17-1.26-1.99-.96-.83-2.76-1.29-1.81-.47-4.83-.47v-4.84q2.5-.03 4.15-.47t2.63-1.22q.97-.79 1.36-1.88.38-1.11.38-2.43 0-2.8-1.56-4.26-1.57-1.45-4.18-1.45-1.21 0-2.23.34t-1.83.96-1.36 1.45q-.55.82-.83 1.81-.46 1.26-1.22 1.68-.76.41-2.13.19m27.72 24.31q0-.85.32-1.62.31-.77.86-1.32t1.32-.88 1.65-.33 1.64.33q.75.33 1.32.88.56.55.89 1.32t.33 1.62q0 .88-.33 1.64-.33.75-.89 1.3-.57.55-1.32.87-.76.32-1.64.32t-1.65-.32-1.32-.87-.86-1.3q-.32-.76-.32-1.64m14.27-24.47h6.82v29.17q0 1.85-.48 3.47t-1.54 2.84q-1.06 1.23-2.78 1.93t-4.19.7q-.96 0-1.79-.12-.82-.13-1.7-.4l.24-3.66q.09-.55.44-.7.36-.15 1.38-.15t1.72-.21q.7-.2 1.11-.66.41-.45.59-1.19.18-.75.18-1.85zm7.76-8.23q0 .88-.36 1.65t-.95 1.35-1.4.92q-.81.35-1.72.35-.88 0-1.65-.35-.77-.34-1.35-.92t-.92-1.35-.34-1.65q0-.9.34-1.7t.92-1.38q.58-.57 1.35-.92.77-.34 1.65-.34.91 0 1.72.34.81.35 1.4.92.59.58.95 1.38t.36 1.7m12.78 16.48v12.64q1.16 1.41 2.52 1.99 1.36.57 2.96.57 1.54 0 2.77-.57 1.24-.58 2.11-1.76.86-1.19 1.33-2.99t.47-4.25q0-2.47-.4-4.19t-1.14-2.79q-.74-1.08-1.8-1.57-1.06-.5-2.41-.5-2.12 0-3.6.9-1.49.89-2.81 2.52m-.9-7.02.55 2.62q1.73-1.96 3.93-3.17t5.17-1.21q2.31 0 4.22.97 1.91.96 3.3 2.79 1.39 1.82 2.15 4.51.75 2.68.75 6.14 0 3.16-.85 5.86-.85 2.69-2.43 4.68-1.59 1.98-3.83 3.09t-5.02 1.11q-2.36 0-4.04-.73-1.68-.72-3-2.02v11.55h-6.79v-37.42h4.15q1.32 0 1.74 1.23m35.66 12.19q1.27 0 2.2-.35.94-.34 1.56-.95.62-.6.93-1.46.32-.85.32-1.86 0-2.09-1.25-3.32-1.25-1.22-3.76-1.22-2.5 0-3.75 1.22-1.25 1.23-1.25 3.32 0 .98.32 1.84.31.85.93 1.47t1.57.96q.95.35 2.18.35m7.68 16.05q0-.82-.5-1.34-.49-.52-1.35-.81-.85-.29-1.99-.43t-2.42-.21q-1.28-.06-2.64-.12t-2.65-.22q-1.13.63-1.83 1.48-.7.86-.7 1.98 0 .75.37 1.39.37.65 1.18 1.12t2.1.73q1.3.26 3.17.26 1.89 0 3.27-.29 1.37-.29 2.27-.8.89-.51 1.3-1.21.42-.7.42-1.53m-1.35-28.51h8.11v2.53q0 1.21-1.46 1.48l-2.53.47q.58 1.46.58 3.19 0 2.09-.84 3.78t-2.32 2.87q-1.49 1.19-3.51 1.83-2.02.65-4.36.65-.82 0-1.59-.08-.77-.09-1.51-.22-1.32.79-1.32 1.79 0 .85.78 1.25.78.39 2.08.56 1.29.16 2.94.21 1.65.04 3.38.18 1.73.13 3.38.48 1.65.34 2.95 1.08 1.29.74 2.07 2.02.79 1.28.79 3.29 0 1.87-.92 3.63-.93 1.76-2.67 3.14-1.75 1.37-4.29 2.21-2.55.84-5.79.84-3.19 0-5.56-.62-2.36-.62-3.93-1.65t-2.34-2.38-.77-2.8q0-1.99 1.2-3.32t3.29-2.13q-1.13-.58-1.79-1.54t-.66-2.53q0-.63.23-1.31.24-.67.69-1.33t1.14-1.25 1.62-1.06q-2.14-1.15-3.36-3.08-1.23-1.93-1.23-4.51 0-2.09.84-3.78t2.34-2.89 3.55-1.83q2.04-.63 4.46-.63 1.82 0 3.41.37 1.6.37 2.92 1.09"/></svg>