<svg xmlns="http://www.w3.org/2000/svg" width="800" height="500" viewBox="0 0 800 500"><rect width="100%" height="100%" fill="#DDDDDD"/><path fill="#999999" d="m188.835 238.895-2.15 2.97q-.36.46-.71.73-.34.26-1 .26-.63 0-1.22-.38-.6-.38-1.42-.85-.83-.48-1.97-.86t-2.82-.38q-2.14 0-3.76.77-1.62.78-2.69 2.23t-1.6 3.52q-.53 2.06-.53 4.66 0 2.71.58 4.82t1.67 3.55q1.08 1.44 2.64 2.18 1.55.74 3.49.74 1.95 0 3.16-.48 1.2-.48 2.02-1.05.83-.58 1.44-1.06t1.37-.48q.99 0 1.48.76l2.35 2.97q-1.36 1.58-2.94 2.66-1.58 1.07-3.28 1.71-1.7.65-3.5.91t-3.58.26q-3.14 0-5.91-1.17t-4.85-3.41q-2.08-2.25-3.28-5.5-1.21-3.25-1.21-7.41 0-3.72 1.08-6.91 1.07-3.18 3.15-5.51t5.14-3.65q3.07-1.32 7.07-1.32 3.79 0 6.65 1.23 2.85 1.22 5.13 3.49m11.84 8.85h15.38q0-1.59-.44-2.99-.45-1.4-1.34-2.46-.89-1.05-2.26-1.66-1.37-.62-3.18-.62-3.54 0-5.56 2.02-2.03 2.01-2.6 5.71m20.79 4.91h-20.95q.2 2.61.92 4.51.73 1.9 1.92 3.13 1.19 1.24 2.82 1.85t3.61.61 3.42-.46q1.43-.46 2.51-1.02 1.07-.56 1.88-1.03.81-.46 1.56-.46 1.03 0 1.52.76l2.35 2.97q-1.36 1.58-3.04 2.66-1.68 1.07-3.51 1.71-1.84.65-3.73.91-1.9.26-3.68.26-3.53 0-6.57-1.17t-5.28-3.46q-2.24-2.3-3.53-5.68t-1.29-7.84q0-3.46 1.12-6.51 1.13-3.06 3.22-5.32 2.1-2.26 5.12-3.58t6.81-1.32q3.2 0 5.91 1.03 2.7 1.02 4.65 2.98 1.95 1.97 3.05 4.82 1.11 2.86 1.11 6.52 0 1.85-.4 2.49-.39.64-1.52.64m8.12-33.13h8.15v49.04h-8.15zm37.33 15.18h8.15v33.86h-4.99q-1.61 0-2.04-1.49l-.56-2.7q-2.08 2.11-4.59 3.41-2.51 1.31-5.91 1.31-2.77 0-4.9-.94t-3.58-2.66-2.19-4.07q-.75-2.36-.75-5.2v-21.52h8.16v21.52q0 3.1 1.43 4.8 1.44 1.7 4.31 1.7 2.11 0 3.96-.94t3.5-2.59zm16.3-15.18h8.15v49.04h-8.15zm34.19 40.29v-5.7q-3.54.16-5.94.61-2.41.44-3.87 1.13-1.45.7-2.07 1.62-.63.93-.63 2.01 0 2.15 1.27 3.07 1.27.93 3.32.93 2.5 0 4.34-.91 1.83-.91 3.58-2.76m-17.23-17.78-1.45-2.61q5.84-5.34 14.06-5.34 2.97 0 5.31.97t3.96 2.7q1.62 1.74 2.46 4.15.84 2.4.84 5.28v21.38h-3.7q-1.15 0-1.78-.35-.63-.34-.99-1.4l-.73-2.44q-1.28 1.15-2.5 2.03-1.22.87-2.54 1.47-1.32.59-2.83.9-1.5.32-3.31.32-2.15 0-3.96-.58-1.82-.58-3.14-1.73-1.32-1.16-2.04-2.87-.73-1.72-.73-4 0-1.28.43-2.55t1.4-2.43q.98-1.15 2.53-2.18 1.55-1.02 3.81-1.78t5.26-1.24q3-.47 6.87-.57v-1.98q0-3.4-1.46-5.04-1.45-1.63-4.19-1.63-1.98 0-3.28.46t-2.29 1.04-1.8 1.04-1.8.46q-.86 0-1.45-.44-.6-.45-.96-1.04m55.34-3.67-1.85 2.94q-.33.53-.69.74-.36.22-.92.22-.6 0-1.27-.33-.68-.33-1.57-.74-.89-.42-2.03-.75t-2.69-.33q-2.41 0-3.78 1.03-1.37 1.02-1.37 2.67 0 1.09.71 1.83t1.88 1.3q1.17.57 2.66 1.01 1.48.45 3.02.97 1.53.53 3.02 1.21 1.48.68 2.65 1.72 1.17 1.03 1.88 2.49.71 1.45.71 3.5 0 2.44-.87 4.5-.88 2.06-2.59 3.56-1.72 1.5-4.24 2.35-2.53.84-5.83.84-1.75 0-3.41-.32-1.67-.31-3.2-.87-1.54-.56-2.84-1.32t-2.29-1.65l1.88-3.1q.36-.56.85-.86.5-.3 1.26-.3t1.43.43q.68.43 1.57.93.89.49 2.1.92 1.2.43 3.05.43 1.45 0 2.49-.35 1.04-.34 1.72-.91.67-.56.99-1.3.31-.74.31-1.53 0-1.19-.71-1.95t-1.88-1.32-2.67-1.01q-1.5-.44-3.07-.97t-3.07-1.24-2.67-1.8q-1.18-1.08-1.88-2.67-.71-1.58-.71-3.83 0-2.08.82-3.96.83-1.88 2.43-3.28t3.99-2.24q2.39-.85 5.53-.85 3.49 0 6.37 1.16 2.87 1.15 4.78 3.03m6.24 13.67v-6.8h17.09v6.8zm40.98 8.94h12.25q1.32 0 2.09.74.78.74.78 1.97v4.88h-32.74v-2.71q0-.82.35-1.73.34-.91 1.1-1.63l14.49-14.52q1.82-1.85 3.25-3.53 1.44-1.69 2.39-3.34.96-1.65 1.47-3.35t.51-3.58q0-1.71-.49-3.02-.5-1.3-1.4-2.19-.91-.89-2.18-1.34-1.27-.44-2.86-.44-1.45 0-2.69.41-1.23.41-2.19 1.16-.96.74-1.62 1.73t-.99 2.18q-.56 1.51-1.45 2.01-.89.49-2.57.23l-4.29-.76q.49-3.43 1.91-6.02t3.55-4.32q2.13-1.74 4.88-2.61 2.76-.88 5.93-.88 3.3 0 6.03.98 2.74.97 4.69 2.75 1.95 1.79 3.04 4.29 1.09 2.51 1.09 5.58 0 2.64-.78 4.88-.78 2.25-2.08 4.29-1.3 2.05-3.05 3.96-1.75 1.92-3.66 3.9l-10.76 10.99q1.55-.47 3.08-.71 1.54-.25 2.92-.25m54.78-16.27q0 6.24-1.33 10.84-1.34 4.6-3.7 7.61-2.36 3-5.58 4.47-3.21 1.47-6.94 1.47t-6.92-1.47q-3.18-1.47-5.52-4.47-2.35-3.01-3.67-7.61t-1.32-10.84q0-6.27 1.32-10.86 1.32-4.58 3.67-7.59 2.34-3 5.52-4.47 3.19-1.47 6.92-1.47t6.94 1.47q3.22 1.47 5.58 4.47 2.36 3.01 3.7 7.59 1.33 4.59 1.33 10.86m-8.41 0q0-5.18-.76-8.58t-2.03-5.41-2.92-2.82-3.43-.81q-1.75 0-3.38.81-1.64.81-2.89 2.82-1.26 2.01-2 5.41t-.74 8.58.74 8.58 2 5.41q1.25 2.02 2.89 2.82 1.63.81 3.38.81 1.78 0 3.43-.81 1.65-.8 2.92-2.82 1.27-2.01 2.03-5.41t.76-8.58m35.64 17.75h8.58v6.11h-26.4v-6.11h9.67v-27.81q0-1.65.1-3.4l-6.87 5.74q-.59.46-1.17.58-.58.11-1.09.01t-.91-.34q-.39-.25-.59-.55l-2.57-3.53 14.55-12.37h6.7zm23.59-27.29q0 4 2.07 6.09 2.06 2.1 5.85 2.1 1.98 0 3.53-.63 1.56-.63 2.61-1.71 1.06-1.09 1.6-2.58.55-1.48.55-3.2 0-1.95-.6-3.48-.59-1.54-1.68-2.59-1.09-1.06-2.59-1.62t-3.28-.56q-1.85 0-3.34.61-1.48.61-2.54 1.7-1.05 1.09-1.62 2.59-.56 1.5-.56 3.28m-3.99 33.4 14.82-18.51q.56-.7 1.05-1.36.5-.66.96-1.32-1.65 1.06-3.63 1.6-1.98.55-4.16.55-2.47 0-4.85-.86-2.37-.86-4.22-2.59t-2.99-4.29-1.14-5.99q0-3.2 1.19-6 1.19-2.81 3.33-4.92 2.15-2.11 5.15-3.34 3-1.22 6.63-1.22 3.67 0 6.59 1.16 2.92 1.15 4.98 3.23t3.17 4.99q1.1 2.9 1.1 6.36 0 2.22-.37 4.2-.38 1.98-1.08 3.81-.69 1.83-1.68 3.58t-2.21 3.46l-10.92 15.58q-.57.79-1.69 1.34-1.12.54-2.54.54zm34.22-4.49q0-1.02.38-1.95.38-.92 1.04-1.58t1.58-1.06q.93-.39 1.98-.39 1.06 0 1.97.39.91.4 1.58 1.06.68.66 1.07 1.58.4.93.4 1.95 0 1.06-.4 1.97-.39.9-1.07 1.56-.67.66-1.58 1.04t-1.97.38q-1.05 0-1.98-.38-.92-.38-1.58-1.04t-1.04-1.56q-.38-.91-.38-1.97m17.13-29.37h8.18v35.02q0 2.21-.57 4.15-.58 1.95-1.85 3.42t-3.34 2.31q-2.06.84-5.03.84-1.15 0-2.14-.15t-2.05-.48l.3-4.39q.1-.66.53-.84.42-.18 1.65-.18 1.22 0 2.06-.25.84-.24 1.33-.79.5-.54.71-1.43.22-.89.22-2.21zm9.3-9.87q0 1.06-.42 1.98-.43.93-1.14 1.62t-1.69 1.11q-.97.41-2.06.41-1.05 0-1.98-.41-.92-.42-1.62-1.11-.69-.69-1.1-1.62-.41-.92-.41-1.98 0-1.08.41-2.04t1.1-1.65q.7-.69 1.62-1.11.93-.41 1.98-.41 1.09 0 2.06.41.98.42 1.69 1.11t1.14 1.65q.42.96.42 2.04m15.35 19.77v15.18q1.39 1.68 3.02 2.38 1.63.69 3.55.69 1.84 0 3.33-.69 1.48-.7 2.52-2.11 1.04-1.42 1.6-3.58.57-2.17.57-5.1 0-2.97-.48-5.04-.48-2.06-1.37-3.35-.89-1.28-2.16-1.88-1.27-.59-2.89-.59-2.54 0-4.32 1.07-1.79 1.07-3.37 3.02m-1.09-8.41.66 3.13q2.08-2.34 4.72-3.79t6.2-1.45q2.78 0 5.07 1.15t3.96 3.35q1.67 2.19 2.57 5.41.91 3.22.91 7.38 0 3.79-1.02 7.03-1.03 3.23-2.92 5.61-1.9 2.37-4.59 3.71-2.69 1.33-6.02 1.33-2.84 0-4.85-.87-2.02-.87-3.6-2.43v13.86h-8.15v-44.91h4.98q1.59 0 2.08 1.49m42.8 14.62q1.52 0 2.64-.42 1.12-.41 1.87-1.13.74-.73 1.12-1.75.38-1.03.38-2.25 0-2.51-1.5-3.97-1.51-1.47-4.51-1.47t-4.5 1.47q-1.5 1.46-1.5 3.97 0 1.19.38 2.21.37 1.03 1.12 1.77.74.74 1.88 1.15 1.14.42 2.62.42m9.21 19.27q0-.99-.6-1.62-.59-.63-1.61-.97-1.03-.35-2.39-.51-1.37-.17-2.91-.25-1.53-.08-3.17-.15-1.63-.07-3.18-.26-1.35.75-2.2 1.78-.84 1.02-.84 2.37 0 .9.45 1.67.44.78 1.42 1.34.97.56 2.52.87 1.55.32 3.8.32 2.27 0 3.92-.35t2.73-.96q1.07-.61 1.56-1.45.5-.84.5-1.83m-1.62-34.22h9.74v3.03q0 1.46-1.75 1.78l-3.04.57q.69 1.74.69 3.82 0 2.51-1 4.54-1.01 2.03-2.79 3.45t-4.21 2.19q-2.42.78-5.23.78-.99 0-1.91-.1-.93-.1-1.82-.26-1.58.95-1.58 2.14 0 1.02.94 1.5t2.49.68 3.53.25 4.06.21q2.08.17 4.06.58t3.53 1.3 2.49 2.43q.94 1.53.94 3.94 0 2.25-1.1 4.36-1.11 2.11-3.2 3.76-2.1 1.65-5.15 2.66-3.05 1-6.95 1-3.83 0-6.66-.74-2.84-.74-4.72-1.98t-2.81-2.85q-.92-1.62-.92-3.37 0-2.38 1.43-3.98 1.44-1.6 3.95-2.55-1.36-.7-2.15-1.85-.79-1.16-.79-3.04 0-.76.28-1.57.28-.8.83-1.6.54-.79 1.36-1.5.83-.71 1.95-1.27-2.57-1.38-4.04-3.69t-1.47-5.42q0-2.5 1.01-4.53 1-2.03 2.8-3.47 1.8-1.43 4.26-2.19t5.36-.76q2.18 0 4.09.44 1.92.45 3.5 1.31"/></svg>