<svg xmlns="http://www.w3.org/2000/svg" width="800" height="500" viewBox="0 0 800 500"><rect width="100%" height="100%" fill="#DDDDDD"/><path fill="#999999" d="M168.91 266.31h-7.16v-24.36l-2.58-.41q-.84-.17-1.35-.59t-.51-1.2v-2.93h4.44v-2.21q0-2.55.77-4.58t2.2-3.45q1.44-1.42 3.5-2.18 2.06-.75 4.64-.75 2.06 0 3.83.55l-.15 3.6q-.03.4-.23.65t-.54.38q-.33.13-.77.17-.43.04-.92.04-1.28 0-2.28.28t-1.7.96q-.69.68-1.05 1.8-.37 1.11-.37 2.77v1.97h7.75v5.1h-7.52zm30.02-29.75h7.16v29.75h-4.38q-1.42 0-1.79-1.31l-.5-2.37q-1.82 1.85-4.03 3-2.2 1.14-5.19 1.14-2.43 0-4.31-.82-1.87-.83-3.14-2.34-1.28-1.51-1.93-3.58t-.65-4.57v-18.9h7.16v18.9q0 2.73 1.26 4.22 1.26 1.5 3.79 1.5 1.85 0 3.48-.83 1.62-.83 3.07-2.28zm20.44 1.3.5 2.35q.9-.9 1.9-1.67t2.11-1.3q1.12-.54 2.4-.84 1.27-.31 2.78-.31 2.44 0 4.32.83 1.89.82 3.15 2.32 1.26 1.49 1.91 3.57.65 2.07.65 4.56v18.94h-7.16v-18.94q0-2.72-1.25-4.22-1.24-1.49-3.79-1.49-1.86 0-3.48.84-1.63.84-3.08 2.29v21.52h-7.16v-29.75h4.38q1.39 0 1.82 1.3m45.19 19.63v-13.34q-1.22-1.48-2.66-2.08-1.43-.61-3.09-.61-1.62 0-2.92.61-1.31.6-2.24 1.84-.93 1.23-1.42 3.13t-.49 4.48q0 2.61.42 4.42.42 1.82 1.2 2.96.79 1.15 1.92 1.65 1.13.51 2.52.51 2.23 0 3.8-.93 1.56-.93 2.96-2.64m0-34.27h7.16v43.09h-4.38q-1.42 0-1.8-1.31l-.61-2.87q-1.79 2.06-4.13 3.34-2.33 1.27-5.44 1.27-2.43 0-4.46-1.01t-3.5-2.94q-1.46-1.93-2.26-4.77-.8-2.85-.8-6.5 0-3.31.9-6.15t2.58-4.93q1.69-2.09 4.03-3.26 2.35-1.18 5.28-1.18 2.5 0 4.27.79 1.76.78 3.16 2.11zm29.95 35.4v-5.01q-3.1.14-5.22.53-2.11.4-3.39 1-1.28.61-1.83 1.43-.55.81-.55 1.76 0 1.89 1.12 2.7t2.91.81q2.21 0 3.82-.79 1.61-.8 3.14-2.43m-15.13-15.63-1.28-2.29q5.13-4.7 12.35-4.7 2.61 0 4.67.86t3.48 2.38 2.16 3.64q.74 2.11.74 4.64v18.79h-3.25q-1.01 0-1.56-.3-.55-.31-.87-1.24l-.64-2.14q-1.13 1.01-2.2 1.78-1.08.77-2.24 1.29t-2.48.8q-1.32.27-2.91.27-1.89 0-3.48-.5-1.6-.51-2.76-1.53-1.16-1.01-1.79-2.52-.64-1.51-.64-3.51 0-1.13.38-2.25.37-1.11 1.23-2.13.85-1.01 2.22-1.91 1.36-.9 3.35-1.57 1.98-.66 4.62-1.08t6.03-.51v-1.74q0-2.99-1.27-4.42-1.28-1.44-3.69-1.44-1.74 0-2.88.41-1.15.4-2.02.91t-1.58.91q-.71.41-1.58.41-.75 0-1.27-.39-.53-.39-.84-.92m52.05-2.75-1.88 2.61q-.32.41-.63.64-.3.23-.88.23-.55 0-1.08-.33-.52-.34-1.24-.76-.73-.42-1.73-.75-1-.34-2.48-.34-1.88 0-3.3.69-1.42.68-2.37 1.95-.94 1.28-1.4 3.09-.47 1.81-.47 4.1 0 2.38.51 4.24.51 1.85 1.46 3.12.96 1.26 2.32 1.91 1.37.65 3.08.65t2.77-.42 1.78-.93q.73-.5 1.26-.92.54-.42 1.21-.42.87 0 1.3.66l2.06 2.61q-1.19 1.39-2.58 2.34-1.39.94-2.89 1.51-1.49.56-3.07.79t-3.15.23q-2.75 0-5.19-1.02-2.43-1.03-4.26-3.01-1.83-1.97-2.89-4.82-1.05-2.86-1.05-6.52 0-3.27.94-6.07t2.77-4.84q1.82-2.05 4.52-3.21t6.21-1.16q3.33 0 5.84 1.07 2.51 1.08 4.51 3.08m20.47 18.38v-5.01q-3.1.14-5.22.53-2.11.4-3.39 1-1.27.61-1.83 1.43-.55.81-.55 1.76 0 1.89 1.12 2.7t2.91.81q2.21 0 3.82-.79 1.61-.8 3.14-2.43m-15.13-15.63-1.28-2.29q5.13-4.7 12.35-4.7 2.61 0 4.67.86t3.48 2.38 2.16 3.64q.74 2.11.74 4.64v18.79h-3.24q-1.02 0-1.57-.3-.55-.31-.87-1.24l-.64-2.14q-1.13 1.01-2.2 1.78-1.08.77-2.24 1.29t-2.47.8q-1.32.27-2.92.27-1.88 0-3.48-.5-1.59-.51-2.75-1.53-1.16-1.01-1.8-2.52t-.64-3.51q0-1.13.38-2.25.37-1.11 1.23-2.13.85-1.01 2.22-1.91 1.36-.9 3.35-1.57 1.98-.66 4.62-1.08t6.03-.51v-1.74q0-2.99-1.27-4.42-1.28-1.44-3.68-1.44-1.74 0-2.89.41-1.15.4-2.02.91t-1.58.91q-.71.41-1.58.41-.75 0-1.27-.39t-.84-.92m42.02-6.9q3.3 0 6.02 1.07 2.71 1.08 4.64 3.05 1.92 1.97 2.97 4.81 1.04 2.85 1.04 6.35 0 3.54-1.04 6.39-1.05 2.84-2.97 4.84-1.93 2-4.64 3.07-2.72 1.07-6.02 1.07-3.34 0-6.06-1.07-2.73-1.07-4.66-3.07t-2.98-4.84q-1.06-2.85-1.06-6.39 0-3.5 1.06-6.35 1.05-2.84 2.98-4.81t4.66-3.05q2.72-1.07 6.06-1.07m0 25.14q3.71 0 5.49-2.49 1.79-2.49 1.79-7.31 0-4.81-1.79-7.33-1.78-2.53-5.49-2.53-3.77 0-5.58 2.54-1.82 2.54-1.82 7.32 0 4.79 1.82 7.3 1.81 2.5 5.58 2.5m19.92-9.45v-5.97h15.02v5.97zm36.02 7.86h10.76q1.16 0 1.84.65t.68 1.73v4.29h-28.77v-2.38q0-.72.31-1.52.3-.8.97-1.44l12.73-12.76q1.59-1.62 2.86-3.1 1.26-1.48 2.1-2.93t1.29-2.94q.45-1.5.45-3.15 0-1.51-.44-2.65-.43-1.15-1.23-1.93t-1.91-1.17q-1.12-.4-2.51-.4-1.28 0-2.36.37-1.09.36-1.93 1.01t-1.42 1.52-.87 1.92q-.5 1.33-1.28 1.77-.78.43-2.26.2l-3.77-.67q.43-3.01 1.68-5.29t3.12-3.8 4.29-2.29 5.2-.77q2.9 0 5.31.86 2.41.85 4.12 2.42t2.67 3.77q.95 2.2.95 4.9 0 2.32-.68 4.29t-1.82 3.77q-1.15 1.8-2.69 3.48-1.53 1.68-3.22 3.42l-9.45 9.66q1.36-.41 2.71-.62 1.35-.22 2.57-.22m48.14-14.3q0 5.48-1.18 9.53-1.17 4.04-3.24 6.68-2.08 2.64-4.9 3.93-2.83 1.29-6.11 1.29t-6.07-1.29q-2.8-1.29-4.86-3.93t-3.22-6.68q-1.16-4.05-1.16-9.53 0-5.51 1.16-9.54t3.22-6.67 4.86-3.93q2.79-1.29 6.07-1.29t6.11 1.29q2.82 1.29 4.9 3.93 2.07 2.64 3.24 6.67 1.18 4.03 1.18 9.54m-7.4 0q0-4.55-.66-7.54-.67-2.98-1.79-4.75-1.11-1.77-2.56-2.48t-3.02-.71q-1.54 0-2.97.71-1.44.71-2.54 2.48t-1.75 4.75q-.66 2.99-.66 7.54 0 4.56.66 7.54.65 2.99 1.75 4.76t2.54 2.48q1.43.71 2.97.71 1.57 0 3.02-.71t2.56-2.48q1.12-1.77 1.79-4.76.66-2.98.66-7.54m31.32 15.6h7.54v5.37h-23.2v-5.37h8.5V236.5q0-1.45.09-2.99l-6.03 5.05q-.53.4-1.03.5-.51.11-.96.02t-.8-.31q-.35-.21-.52-.47l-2.26-3.11 12.79-10.87h5.88zm24.42-30.07-1.48 8.73q1.39-.29 2.67-.42t2.47-.13q3.3 0 5.82.99 2.53.98 4.24 2.72t2.58 4.08q.87 2.33.87 5.03 0 3.33-1.17 6.09-1.18 2.75-3.27 4.71T539 265.7q-2.86 1.07-6.22 1.07-1.97 0-3.74-.4-1.77-.41-3.32-1.09-1.56-.68-2.87-1.57-1.32-.88-2.37-1.87l2.21-3.04q.69-.99 1.82-.99.73 0 1.48.47.76.46 1.73 1.01t2.29 1.02q1.32.46 3.17.46 1.98 0 3.48-.64 1.51-.64 2.51-1.78 1-1.15 1.51-2.73t.51-3.43q0-3.43-1.99-5.35-1.99-1.93-5.87-1.93-2.99 0-6.12 1.1l-4.47-1.28 3.48-20.35h20.71v3.04q0 1.54-.96 2.49-.95.96-3.25.96zm22.88 31.5q0-.9.34-1.72.33-.81.91-1.39t1.39-.93q.81-.34 1.74-.34t1.73.34q.79.35 1.39.93.59.58.94 1.39.35.82.35 1.72 0 .92-.35 1.72t-.94 1.38q-.6.58-1.39.91-.8.34-1.73.34t-1.74-.34q-.81-.33-1.39-.91t-.91-1.38q-.34-.8-.34-1.72m15.05-25.81h7.2v30.77q0 1.94-.51 3.65t-1.63 3q-1.11 1.29-2.92 2.03-1.82.74-4.43.74-1.01 0-1.88-.13t-1.8-.42l.26-3.86q.09-.58.46-.74.38-.16 1.45-.16 1.08 0 1.82-.21.74-.22 1.17-.7.44-.48.63-1.26.18-.78.18-1.94zm8.18-8.68q0 .93-.38 1.74-.37.82-1 1.43-.62.6-1.47.97-.86.36-1.82.36-.93 0-1.74-.36-.81-.37-1.42-.97-.61-.61-.97-1.43-.36-.81-.36-1.74 0-.95.36-1.79t.97-1.45 1.42-.97q.81-.37 1.74-.37.96 0 1.82.37.85.36 1.47.97.63.61 1 1.45.38.84.38 1.79m13.49 17.38v13.34q1.22 1.47 2.65 2.08 1.44.61 3.12.61 1.62 0 2.93-.61 1.3-.61 2.22-1.85.91-1.25 1.4-3.15t.49-4.48q0-2.61-.42-4.42t-1.2-2.95q-.78-1.13-1.9-1.65t-2.54-.52q-2.23 0-3.8.94-1.56.94-2.95 2.66m-.96-7.4.58 2.76q1.83-2.06 4.15-3.34t5.45-1.28q2.43 0 4.45 1.02 2.02 1.01 3.48 2.94t2.26 4.76.8 6.48q0 3.34-.9 6.18t-2.57 4.93q-1.66 2.09-4.03 3.26-2.36 1.17-5.29 1.17-2.49 0-4.26-.76-1.77-.77-3.16-2.14v12.18h-7.17v-39.46h4.38q1.39 0 1.83 1.3m37.61 12.85q1.34 0 2.32-.36.99-.37 1.64-1 .65-.64.99-1.54.33-.9.33-1.97 0-2.21-1.32-3.5t-3.96-1.29-3.96 1.29-1.32 3.5q0 1.04.34 1.94.33.9.98 1.55.66.65 1.66 1.02 1 .36 2.3.36m8.09 16.93q0-.87-.52-1.42t-1.42-.85q-.9-.31-2.1-.45-1.21-.15-2.55-.22-1.35-.07-2.79-.13-1.43-.06-2.8-.23-1.19.66-1.92 1.56-.74.9-.74 2.09 0 .79.39 1.47t1.24 1.17q.86.49 2.22.77 1.37.28 3.34.28 2 0 3.45-.31 1.45-.3 2.39-.84t1.38-1.28q.43-.74.43-1.61m-1.42-30.07h8.56v2.67q0 1.27-1.54 1.56l-2.67.5q.61 1.53.61 3.36 0 2.21-.88 3.99-.89 1.78-2.45 3.03-1.57 1.25-3.7 1.93t-4.6.68q-.87 0-1.68-.09-.81-.08-1.59-.23-1.4.84-1.4 1.89 0 .9.83 1.32t2.19.59 3.1.22q1.74.04 3.57.19 1.83.14 3.57.5 1.74.37 3.1 1.15t2.19 2.13.83 3.47q0 1.97-.98 3.82-.97 1.86-2.81 3.31t-4.52 2.33q-2.69.89-6.11.89-3.36 0-5.86-.65-2.49-.66-4.14-1.74-1.66-1.09-2.47-2.51t-.81-2.96q0-2.09 1.26-3.49 1.26-1.41 3.47-2.25-1.19-.61-1.89-1.63-.69-1.01-.69-2.66 0-.67.24-1.38.25-.71.73-1.41.48-.69 1.2-1.32.73-.62 1.71-1.11-2.26-1.22-3.55-3.25t-1.29-4.76q0-2.2.88-3.99.89-1.78 2.47-3.04t3.74-1.93 4.71-.67q1.92 0 3.6.4 1.68.39 3.07 1.14"/></svg>