<svg xmlns="http://www.w3.org/2000/svg" width="800" height="500" viewBox="0 0 800 500"><rect width="100%" height="100%" fill="#DDDDDD"/><path fill="#999999" d="m187.355 237.485-1.99 3.16q-.35.56-.74.8-.39.23-1 .23-.64 0-1.36-.36-.73-.35-1.69-.8-.96-.44-2.18-.8-1.23-.35-2.9-.35-2.59 0-4.06 1.1t-1.47 2.87q0 1.18.76 1.98.76.79 2.02 1.4 1.26.6 2.86 1.08t3.25 1.05 3.25 1.29q1.59.73 2.85 1.85 1.27 1.12 2.03 2.68t.76 3.76q0 2.63-.94 4.85t-2.79 3.83q-1.84 1.62-4.56 2.52-2.71.91-6.26.91-1.88 0-3.68-.34-1.79-.34-3.44-.94t-3.05-1.42q-1.41-.82-2.47-1.78l2.02-3.33q.39-.61.93-.93.53-.31 1.34-.31.82 0 1.55.46t1.68.99q.96.53 2.26.99 1.29.47 3.28.47 1.56 0 2.68-.38 1.12-.37 1.85-.97.73-.61 1.06-1.4.34-.8.34-1.66 0-1.27-.76-2.09-.77-.82-2.03-1.42t-2.87-1.08q-1.62-.48-3.3-1.05-1.69-.57-3.3-1.33-1.62-.76-2.88-1.94-1.26-1.17-2.02-2.87-.77-1.71-.77-4.12 0-2.24.89-4.26t2.61-3.53 4.3-2.42q2.57-.9 5.94-.9 3.77 0 6.85 1.24 3.09 1.24 5.15 3.27m23.11-4.51q4.05 0 7.37 1.31 3.32 1.32 5.68 3.73t3.64 5.89q1.27 3.48 1.27 7.78 0 4.33-1.27 7.81-1.28 3.48-3.64 5.93t-5.68 3.76-7.37 1.31q-4.08 0-7.42-1.31-3.33-1.31-5.7-3.76-2.36-2.45-3.65-5.93-1.3-3.48-1.3-7.81 0-4.3 1.3-7.78 1.29-3.48 3.65-5.89 2.37-2.41 5.7-3.73 3.34-1.31 7.42-1.31m0 30.78q4.55 0 6.73-3.06 2.18-3.05 2.18-8.94t-2.18-8.98-6.73-3.09q-4.61 0-6.83 3.1-2.22 3.11-2.22 8.97t2.22 8.93 6.83 3.07m53.07-25.7-2.3 3.19q-.39.5-.77.78-.37.29-1.08.29-.67 0-1.31-.41t-1.53-.93q-.89-.51-2.11-.92-1.23-.41-3.04-.41-2.3 0-4.04.84-1.74.83-2.9 2.39-1.15 1.57-1.72 3.78-.57 2.22-.57 5.03 0 2.91.62 5.18.63 2.27 1.8 3.82 1.17 1.54 2.84 2.34t3.76.8 3.39-.52q1.3-.51 2.18-1.13.89-.62 1.55-1.14.65-.51 1.47-.51 1.07 0 1.6.81l2.52 3.2q-1.46 1.7-3.16 2.86-1.7 1.15-3.53 1.84t-3.77.98q-1.93.28-3.85.28-3.37 0-6.35-1.26t-5.22-3.67q-2.24-2.42-3.53-5.91-1.3-3.5-1.3-7.97 0-4.01 1.16-7.44 1.15-3.43 3.39-5.93 2.23-2.5 5.53-3.92 3.31-1.42 7.6-1.42 4.08 0 7.15 1.31 3.07 1.32 5.52 3.77m6.11-4.51h8.8v36.42h-8.8zm10.01-10.62q0 1.14-.46 2.13-.46 1-1.23 1.74-.76.75-1.79 1.19t-2.2.44q-1.13 0-2.15-.44-1.01-.44-1.75-1.19-.75-.74-1.19-1.74-.45-.99-.45-2.13 0-1.17.45-2.2.44-1.03 1.19-1.77.74-.75 1.75-1.19 1.02-.45 2.15-.45 1.17 0 2.2.45 1.03.44 1.79 1.19.77.74 1.23 1.77t.46 2.2m26.98 37.63v-6.14q-3.8.18-6.39.66t-4.15 1.22q-1.56.75-2.24 1.74-.67 1-.67 2.17 0 2.3 1.36 3.3 1.37.99 3.57.99 2.7 0 4.67-.97 1.97-.98 3.85-2.97m-18.53-19.13-1.56-2.81q6.28-5.75 15.12-5.75 3.2 0 5.72 1.05t4.26 2.91 2.64 4.46q.91 2.59.91 5.68v23h-3.98q-1.24 0-1.92-.37-.67-.38-1.06-1.51l-.78-2.63q-1.39 1.24-2.7 2.18-1.31.95-2.73 1.58-1.42.64-3.04.98-1.61.34-3.57.34-2.3 0-4.26-.62-1.95-.62-3.37-1.87-1.42-1.24-2.2-3.09-.78-1.84-.78-4.29 0-1.39.46-2.75.46-1.37 1.51-2.61t2.71-2.34q1.67-1.11 4.1-1.92 2.44-.82 5.67-1.33 3.23-.52 7.38-.62v-2.13q0-3.66-1.56-5.42t-4.51-1.76q-2.13 0-3.53.5t-2.47 1.12q-1.06.62-1.93 1.12t-1.94.5q-.92 0-1.56-.48t-1.03-1.12m35.43-24.21h8.77v52.75h-8.77zm17.25 34.96v-7.31h18.39v7.31zm44.09 9.62h13.17q1.42 0 2.26.8.83.8.83 2.12v5.25h-35.21v-2.91q0-.89.37-1.86.37-.98 1.19-1.76l15.58-15.62q1.96-1.99 3.5-3.8t2.57-3.59q1.03-1.77 1.58-3.6t.55-3.85q0-1.85-.53-3.25t-1.51-2.36q-.97-.96-2.34-1.44t-3.07-.48q-1.56 0-2.89.45-1.34.44-2.37 1.24t-1.74 1.86q-.71 1.07-1.06 2.35-.6 1.63-1.56 2.16t-2.77.25l-4.62-.82q.54-3.69 2.06-6.48 1.53-2.78 3.82-4.65 2.29-1.86 5.25-2.8 2.97-.94 6.38-.94 3.55 0 6.49 1.05 2.95 1.04 5.04 2.96 2.1 1.92 3.27 4.62 1.17 2.69 1.17 5.99 0 2.84-.83 5.26-.84 2.41-2.24 4.61t-3.28 4.26q-1.89 2.06-3.94 4.19l-11.58 11.82q1.67-.49 3.32-.76t3.14-.27m58.93-17.5q0 6.71-1.43 11.67-1.44 4.95-3.98 8.18t-6 4.81-7.47 1.58-7.44-1.58-5.95-4.81-3.94-8.18q-1.42-4.96-1.42-11.67 0-6.74 1.42-11.68 1.42-4.93 3.94-8.16t5.95-4.81 7.44-1.58 7.47 1.58 6 4.81 3.98 8.16q1.43 4.94 1.43 11.68m-9.05 0q0-5.57-.82-9.23-.81-3.65-2.18-5.82-1.37-2.16-3.14-3.03-1.78-.87-3.69-.87-1.88 0-3.64.87t-3.11 3.03q-1.35 2.17-2.15 5.82-.79 3.66-.79 9.23 0 5.58.79 9.23.8 3.66 2.15 5.83 1.35 2.16 3.11 3.03t3.64.87q1.91 0 3.69-.87 1.77-.87 3.14-3.03 1.37-2.17 2.18-5.83.82-3.65.82-9.23m32.48 17.5h13.17q1.42 0 2.26.8.83.8.83 2.12v5.25h-35.21v-2.91q0-.89.37-1.86.37-.98 1.19-1.76l15.58-15.62q1.96-1.99 3.5-3.8t2.57-3.59q1.03-1.77 1.58-3.6t.55-3.85q0-1.85-.53-3.25t-1.51-2.36q-.97-.96-2.34-1.44t-3.07-.48q-1.56 0-2.89.45-1.34.44-2.37 1.24t-1.74 1.86q-.71 1.07-1.06 2.35-.6 1.63-1.56 2.16t-2.77.25l-4.62-.82q.54-3.69 2.06-6.48 1.53-2.78 3.82-4.65 2.29-1.86 5.25-2.8 2.97-.94 6.38-.94 3.55 0 6.49 1.05 2.95 1.04 5.04 2.96 2.1 1.92 3.27 4.62 1.17 2.69 1.17 5.99 0 2.84-.83 5.26-.84 2.41-2.24 4.61t-3.28 4.26q-1.89 2.06-3.94 4.19l-11.58 11.82q1.67-.49 3.32-.76t3.14-.27m47.04 1.6h9.23v6.57h-28.4v-6.57h10.4v-29.92q0-1.78.11-3.66l-7.39 6.18q-.63.49-1.26.62-.62.12-1.17.02-.55-.11-.97-.38-.43-.26-.64-.58l-2.77-3.8 15.65-13.31h7.21zm16.72 1.74q0-1.1.41-2.09.41-1 1.12-1.71t1.7-1.13q1-.43 2.13-.43 1.14 0 2.11.43.98.42 1.71 1.13t1.15 1.71q.43.99.43 2.09 0 1.14-.43 2.11-.42.98-1.15 1.69t-1.71 1.12q-.97.41-2.11.41-1.13 0-2.13-.41-.99-.41-1.7-1.12t-1.12-1.69q-.41-.97-.41-2.11m18.43-31.59h8.8v37.66q0 2.38-.62 4.48-.62 2.09-1.99 3.67t-3.58 2.48q-2.22.91-5.42.91-1.24 0-2.31-.16-1.06-.16-2.2-.51l.32-4.73q.11-.71.57-.9.46-.2 1.78-.2 1.31 0 2.21-.26.91-.27 1.44-.85.53-.59.77-1.55.23-.96.23-2.38zm10.01-10.62q0 1.14-.46 2.13-.47 1-1.23 1.74-.76.75-1.81 1.19t-2.22.44q-1.13 0-2.13-.44-.99-.44-1.74-1.19-.74-.74-1.19-1.74-.44-.99-.44-2.13 0-1.17.44-2.2.45-1.03 1.19-1.77.75-.75 1.74-1.19 1-.45 2.13-.45 1.17 0 2.22.45 1.05.44 1.81 1.19.76.74 1.23 1.77.46 1.03.46 2.2m16.5 21.27v16.33q1.5 1.81 3.25 2.55 1.76.75 3.82.75 1.99 0 3.58-.75 1.6-.74 2.72-2.27t1.72-3.85q.61-2.33.61-5.49 0-3.19-.52-5.41-.51-2.22-1.47-3.6-.96-1.39-2.33-2.03-1.36-.64-3.1-.64-2.74 0-4.65 1.16-1.92 1.15-3.63 3.25m-1.17-9.06.71 3.38q2.24-2.52 5.08-4.09 2.84-1.56 6.67-1.56 2.99 0 5.45 1.24 2.47 1.25 4.26 3.61 1.8 2.36 2.77 5.82.98 3.46.98 7.93 0 4.09-1.1 7.57-1.1 3.47-3.14 6.03-2.05 2.56-4.94 3.99-2.89 1.44-6.48 1.44-3.05 0-5.22-.94-2.16-.94-3.87-2.61v14.91h-8.76v-48.31h5.36q1.7 0 2.23 1.59m46.05 15.73q1.63 0 2.84-.44 1.2-.45 2-1.23t1.21-1.88.41-2.41q0-2.7-1.62-4.28-1.61-1.58-4.84-1.58t-4.85 1.58q-1.61 1.58-1.61 4.28 0 1.27.4 2.38.41 1.1 1.21 1.89.8.8 2.02 1.25 1.23.44 2.83.44m9.9 20.73q0-1.06-.64-1.74-.64-.67-1.74-1.04-1.1-.38-2.57-.55-1.47-.18-3.13-.27-1.65-.09-3.4-.16-1.76-.07-3.43-.28-1.45.81-2.36 1.91t-.91 2.56q0 .96.48 1.79.48.84 1.53 1.44t2.72.94q1.66.34 4.08.34 2.45 0 4.22-.38 1.78-.37 2.93-1.02 1.16-.66 1.69-1.57.53-.9.53-1.97m-1.74-36.81h10.47v3.27q0 1.56-1.88 1.91l-3.26.61q.74 1.88.74 4.11 0 2.7-1.08 4.89-1.08 2.18-3 3.7-1.92 1.53-4.53 2.37-2.61.83-5.62.83-1.07 0-2.06-.11-1-.1-1.96-.28-1.7 1.03-1.7 2.31 0 1.1 1.01 1.61 1.01.52 2.68.73t3.8.27q2.13.05 4.37.23 2.23.17 4.36.62 2.13.44 3.8 1.4t2.68 2.61 1.01 4.24q0 2.42-1.18 4.69-1.19 2.27-3.45 4.05-2.25 1.77-5.54 2.85-3.28 1.09-7.47 1.09-4.12 0-7.17-.8t-5.08-2.13q-2.02-1.33-3.01-3.07-1-1.74-1-3.62 0-2.56 1.55-4.28 1.54-1.72 4.24-2.75-1.46-.75-2.31-1.99t-.85-3.27q0-.81.3-1.68t.89-1.73q.58-.85 1.47-1.61t2.1-1.37q-2.77-1.49-4.35-3.97-1.58-2.49-1.58-5.83 0-2.69 1.08-4.88 1.08-2.18 3.02-3.72 1.93-1.55 4.58-2.37 2.64-.81 5.77-.81 2.34 0 4.4.48t3.76 1.4"/></svg>