<svg xmlns="http://www.w3.org/2000/svg" width="800" height="500" viewBox="0 0 800 500"><rect width="100%" height="100%" fill="#DDDDDD"/><path fill="#999999" d="M174.09 268.805q-4.35 0-6.68-2.45-2.32-2.46-2.32-6.78v-18.62h-3.41q-.65 0-1.11-.43-.45-.42-.45-1.26v-3.19l5.36-.88 1.69-9.1q.16-.65.62-1 .45-.36 1.17-.36h4.16v10.5h8.9v5.72h-8.9v18.07q0 1.56.76 2.43.77.88 2.1.88.75 0 1.25-.18t.88-.37q.37-.2.66-.37.3-.18.59-.18.36 0 .58.18.23.17.49.53l2.41 3.9q-1.76 1.46-4.03 2.21-2.28.75-4.72.75m19.41-21.03h15.14q0-1.56-.44-2.94t-1.31-2.42q-.88-1.04-2.23-1.64t-3.14-.6q-3.47 0-5.47 1.98t-2.55 5.62m20.47 4.84h-20.64q.2 2.57.91 4.44.72 1.87 1.89 3.09t2.78 1.82 3.56.6 3.36-.45q1.41-.46 2.47-1.01 1.06-.56 1.85-1.01.8-.45 1.55-.45 1 0 1.49.74l2.31 2.93q-1.33 1.56-2.99 2.61-1.66 1.06-3.46 1.69-1.81.64-3.68.9-1.86.26-3.62.26-3.48 0-6.47-1.16-2.99-1.15-5.2-3.41t-3.47-5.59q-1.27-3.33-1.27-7.72 0-3.41 1.1-6.42 1.11-3 3.17-5.23 2.07-2.23 5.04-3.52 2.97-1.31 6.71-1.31 3.15 0 5.82 1.01 2.66 1.01 4.58 2.94 1.92 1.94 3.01 4.75t1.09 6.42q0 1.82-.39 2.45t-1.5.63m15.93 15.67h-8.03v-33.34h4.91q1.56 0 2.04 1.46l.52 2.47q.88-.98 1.84-1.79t2.05-1.4q1.09-.58 2.34-.92 1.25-.35 2.74-.35 3.16 0 5.19 1.71t3.04 4.53q.78-1.65 1.95-2.84t2.56-1.93q1.4-.75 2.98-1.11 1.57-.36 3.17-.36 2.76 0 4.9.85 2.15.84 3.61 2.47 1.46 1.62 2.23 3.96.76 2.34.76 5.37v21.22h-8.03v-21.22q0-3.19-1.39-4.8-1.4-1.61-4.1-1.61-1.23 0-2.29.43-1.06.42-1.85 1.22-.8.79-1.25 2-.46 1.2-.46 2.76v21.22h-8.06v-21.22q0-3.35-1.35-4.88t-3.95-1.53q-1.75 0-3.26.87-1.51.86-2.81 2.35zm54.43-23.6v14.96q1.37 1.65 2.98 2.33 1.61.69 3.49.69 1.82 0 3.28-.69 1.47-.68 2.49-2.07 1.02-1.4 1.58-3.53.55-2.13.55-5.02 0-2.93-.47-4.96t-1.35-3.3-2.13-1.85q-1.25-.59-2.84-.59-2.51 0-4.26 1.06-1.76 1.06-3.32 2.97m-1.07-8.28.65 3.08q2.05-2.3 4.65-3.73t6.11-1.43q2.73 0 4.99 1.13 2.26 1.14 3.9 3.3t2.53 5.33q.9 3.17.9 7.27 0 3.73-1.01 6.92-1.01 3.18-2.88 5.52t-4.52 3.66q-2.64 1.32-5.93 1.32-2.79 0-4.77-.86-1.99-.87-3.55-2.39v13.65h-8.02v-44.23h4.9q1.56 0 2.05 1.46m30.06-16.42h8.03v48.3h-8.03zm30.81 14.43q3.71 0 6.75 1.21 3.04 1.2 5.2 3.41t3.33 5.39q1.17 3.19 1.17 7.12 0 3.97-1.17 7.15-1.17 3.19-3.33 5.43t-5.2 3.44q-3.04 1.21-6.75 1.21-3.73 0-6.79-1.21-3.05-1.2-5.22-3.44-2.16-2.24-3.34-5.43-1.19-3.18-1.19-7.15 0-3.93 1.19-7.12 1.18-3.18 3.34-5.39 2.17-2.21 5.22-3.41 3.06-1.21 6.79-1.21m0 28.18q4.16 0 6.16-2.79 2-2.8 2-8.19 0-5.4-2-8.22-2-2.83-6.16-2.83-4.22 0-6.25 2.84t-2.03 8.21q0 5.36 2.03 8.17t6.25 2.81m22.33-10.59v-6.7h16.84v6.7zm40.37 8.8h12.05q1.3 0 2.07.74.76.73.76 1.93v4.81h-32.24v-2.67q0-.81.34-1.7.34-.9 1.09-1.61l14.27-14.3q1.79-1.82 3.2-3.48 1.41-1.65 2.36-3.28.94-1.63 1.44-3.3.51-1.67.51-3.53 0-1.68-.49-2.97-.49-1.28-1.38-2.16-.9-.88-2.15-1.32t-2.81-.44q-1.43 0-2.65.41t-2.16 1.14-1.59 1.7q-.65.98-.98 2.15-.55 1.49-1.43 1.98-.87.49-2.53.23l-4.23-.75q.49-3.38 1.89-5.93t3.49-4.26q2.1-1.7 4.81-2.56 2.72-.87 5.84-.87 3.25 0 5.94.96 2.7.96 4.62 2.72 1.92 1.75 2.99 4.22t1.07 5.49q0 2.6-.76 4.81-.77 2.21-2.05 4.23t-3.01 3.9q-1.72 1.89-3.6 3.83l-10.6 10.83q1.53-.46 3.04-.7 1.51-.25 2.88-.25m53.95-16.02q0 6.14-1.32 10.68-1.32 4.53-3.64 7.49t-5.49 4.4q-3.17 1.45-6.84 1.45-3.68 0-6.81-1.45-3.14-1.44-5.45-4.4-2.3-2.96-3.6-7.49-1.3-4.54-1.3-10.68 0-6.17 1.3-10.69t3.6-7.47q2.31-2.96 5.45-4.41 3.13-1.45 6.81-1.45 3.67 0 6.84 1.45t5.49 4.41q2.32 2.95 3.64 7.47t1.32 10.69m-8.29 0q0-5.1-.75-8.45t-2-5.33-2.87-2.78q-1.63-.79-3.38-.79-1.73 0-3.34.79-1.6.8-2.84 2.78-1.23 1.98-1.97 5.33-.73 3.35-.73 8.45 0 5.11.73 8.45.74 3.35 1.97 5.33 1.24 1.98 2.84 2.78 1.61.8 3.34.8 1.75 0 3.38-.8 1.62-.8 2.87-2.78t2-5.33q.75-3.34.75-8.45m35.1 17.49h8.45v6.01h-26v-6.01h9.52v-27.4q0-1.63.1-3.35l-6.76 5.66q-.59.45-1.16.57-.56.11-1.07.01-.5-.1-.89-.34t-.59-.53l-2.53-3.48 14.33-12.19h6.6zm15.53-40.99h32.47v3.48q0 1.56-.32 2.52-.33.96-.65 1.61l-17.81 36.66q-.56 1.14-1.56 1.93-1.01.8-2.7.8h-5.82l18.17-35.91q.62-1.11 1.22-2.03.6-.93 1.35-1.78h-22.49q-.75 0-1.3-.55-.56-.55-.56-1.3zm37.48 42.58q0-1.01.37-1.92t1.02-1.56 1.56-1.04 1.95-.39 1.94.39q.89.39 1.56 1.04.66.65 1.05 1.56t.39 1.92q0 1.04-.39 1.93-.39.9-1.05 1.55-.67.65-1.56 1.02-.9.38-1.94.38t-1.95-.38q-.91-.37-1.56-1.02t-1.02-1.55q-.37-.89-.37-1.93m16.86-28.92h8.06v34.48q0 2.17-.57 4.09-.56 1.92-1.82 3.37-1.25 1.44-3.28 2.27t-4.95.83q-1.14 0-2.12-.15-.97-.14-2.01-.47l.29-4.32q.1-.65.52-.83t1.63-.18q1.2 0 2.03-.24t1.31-.78q.49-.54.7-1.42.21-.87.21-2.17zm9.17-9.72q0 1.04-.42 1.95-.43.91-1.13 1.59-.69.68-1.65 1.09t-2.03.41q-1.04 0-1.95-.41t-1.6-1.09q-.68-.68-1.09-1.59-.4-.91-.4-1.95 0-1.07.4-2.02.41-.94 1.09-1.62.69-.69 1.6-1.09.91-.41 1.95-.41 1.07 0 2.03.41.96.4 1.65 1.09.7.68 1.13 1.62.42.95.42 2.02m15.11 19.46v14.96q1.37 1.65 2.97 2.33 1.61.69 3.5.69 1.82 0 3.28-.69 1.46-.68 2.49-2.07 1.02-1.4 1.57-3.53.56-2.13.56-5.02 0-2.93-.48-4.96-.47-2.03-1.34-3.3-.88-1.27-2.13-1.85-1.25-.59-2.85-.59-2.5 0-4.25 1.06-1.76 1.06-3.32 2.97m-1.07-8.28.65 3.08q2.05-2.3 4.65-3.73t6.11-1.43q2.73 0 4.98 1.13 2.26 1.14 3.9 3.3 1.65 2.16 2.54 5.33t.89 7.27q0 3.73-1 6.92-1.01 3.18-2.88 5.52t-4.52 3.66-5.93 1.32q-2.79 0-4.78-.86-1.98-.87-3.54-2.39v13.65h-8.03v-44.23h4.91q1.56 0 2.05 1.46m42.15 14.4q1.5 0 2.6-.41 1.11-.41 1.84-1.12.73-.72 1.1-1.72.38-1.01.38-2.22 0-2.46-1.48-3.91t-4.44-1.45-4.44 1.45q-1.47 1.45-1.47 3.91 0 1.17.37 2.18t1.1 1.74q.74.73 1.86 1.14t2.58.41m9.07 18.98q0-.98-.59-1.6-.58-.62-1.59-.96t-2.36-.5q-1.34-.16-2.86-.24-1.51-.09-3.12-.15-1.6-.07-3.13-.26-1.33.75-2.16 1.75-.83 1.01-.83 2.35 0 .87.44 1.64.44.76 1.39 1.31.96.56 2.49.86 1.53.31 3.74.31 2.24 0 3.87-.34 1.62-.34 2.68-.94 1.05-.6 1.54-1.43t.49-1.8m-1.59-33.71h9.58v2.99q0 1.43-1.72 1.76l-2.99.55q.68 1.72.68 3.77 0 2.47-.99 4.47t-2.74 3.39q-1.76 1.4-4.15 2.17-2.39.76-5.15.76-.97 0-1.88-.1-.91-.09-1.79-.26-1.56.94-1.56 2.11 0 1.01.92 1.48.93.48 2.46.67t3.48.24 3.99.21q2.05.17 4 .57 1.95.41 3.48 1.29 1.53.87 2.45 2.39.93 1.51.93 3.88 0 2.21-1.09 4.29t-3.15 3.71q-2.07 1.62-5.07 2.61-3.01.99-6.84.99-3.77 0-6.57-.73-2.79-.73-4.65-1.95-1.85-1.22-2.76-2.81t-.91-3.31q0-2.35 1.41-3.92 1.42-1.58 3.89-2.52-1.33-.68-2.11-1.82t-.78-2.99q0-.75.27-1.54.28-.8.81-1.58.54-.78 1.35-1.48.82-.7 1.92-1.25-2.53-1.37-3.98-3.64-1.45-2.28-1.45-5.33 0-2.47.99-4.47 1-2 2.77-3.41 1.77-1.42 4.19-2.16 2.42-.75 5.28-.75 2.15 0 4.03.44 1.89.44 3.45 1.28"/></svg>