<svg xmlns="http://www.w3.org/2000/svg" width="500" height="300" viewBox="0 0 500 300"><rect width="100%" height="100%" fill="#DDDDDD"/><path fill="#999999" d="M114.69 171.73h11.29q3.11 0 5.23-.75 2.11-.75 3.38-1.99 1.26-1.25 1.82-2.91.57-1.66.57-3.53 0-1.95-.63-3.5-.62-1.56-1.95-2.66t-3.42-1.68q-2.1-.58-5.04-.58h-11.25zm9.5-42.67h-9.5v17.35h8.88q5.73 0 8.65-2.08 2.93-2.07 2.93-6.59 0-4.69-2.66-6.69-2.65-1.99-8.3-1.99m-20.66-8.63h20.66q5.9 0 10.09 1.12t6.87 3.2q2.67 2.07 3.92 5.02 1.24 2.94 1.24 6.64 0 2.12-.62 4.04-.62 1.93-1.93 3.62-1.31 1.68-3.32 3.05-2.01 1.36-4.79 2.32 12.36 2.78 12.36 13.36 0 3.82-1.45 7.06-1.45 3.23-4.23 5.58-2.78 2.34-6.85 3.67t-9.29 1.33h-22.66zm75.53 49.01v-7.18q-4.44.21-7.47.77t-4.86 1.43-2.61 2.04q-.79 1.16-.79 2.53 0 2.7 1.6 3.86 1.59 1.16 4.17 1.16 3.15 0 5.45-1.14 2.31-1.14 4.51-3.47m-21.67-22.37-1.82-3.27q7.34-6.73 17.68-6.73 3.73 0 6.68 1.23 2.94 1.22 4.98 3.4 2.03 2.18 3.09 5.21t1.06 6.64v26.89h-4.65q-1.45 0-2.24-.44-.79-.43-1.25-1.76l-.91-3.07q-1.62 1.45-3.15 2.55-1.54 1.1-3.2 1.85t-3.55 1.14-4.17.39q-2.7 0-4.98-.72-2.28-.73-3.94-2.18t-2.57-3.61q-.92-2.16-.92-5.02 0-1.62.54-3.22t1.77-3.05q1.22-1.45 3.17-2.74t4.79-2.24q2.85-.95 6.62-1.56 3.78-.6 8.64-.72v-2.49q0-4.28-1.83-6.33t-5.27-2.05q-2.49 0-4.13.58t-2.88 1.3q-1.25.73-2.27 1.31-1.01.58-2.26.58-1.08 0-1.82-.56-.75-.56-1.21-1.31m55.49 34.03q-5.56 0-8.53-3.13t-2.97-8.65v-23.78h-4.35q-.83 0-1.42-.54-.58-.54-.58-1.62v-4.07l6.85-1.12 2.16-11.62q.21-.83.79-1.28.58-.46 1.49-.46h5.31v13.4H223v7.31h-11.37v23.07q0 1.99.98 3.12.97 1.12 2.68 1.12.95 0 1.59-.23.65-.23 1.12-.48.48-.25.85-.48.38-.23.75-.23.46 0 .75.23t.62.69l3.07 4.98q-2.24 1.86-5.14 2.82-2.91.95-6.02.95m17.01-43.24h10.3v42.58h-10.3zm11.71-12.41q0 1.33-.54 2.49t-1.43 2.04q-.9.87-2.1 1.39t-2.57.52q-1.33 0-2.51-.52-1.19-.52-2.06-1.39-.87-.88-1.39-2.04t-.52-2.49q0-1.37.52-2.57t1.39-2.08q.87-.87 2.06-1.39 1.18-.51 2.51-.51 1.37 0 2.57.51 1.2.52 2.1 1.39.89.88 1.43 2.08t.54 2.57m37.35 17.02-2.33 3.69q-.41.66-.87.93t-1.16.27q-.75 0-1.6-.41-.85-.42-1.97-.93-1.12-.52-2.55-.94-1.43-.41-3.38-.41-3.03 0-4.76 1.28-1.72 1.29-1.72 3.36 0 1.37.89 2.31.9.93 2.37 1.64 1.47.7 3.34 1.26t3.8 1.23q1.93.66 3.79 1.51 1.87.85 3.35 2.16 1.47 1.31 2.36 3.13.89 1.83.89 4.4 0 3.07-1.1 5.67-1.1 2.59-3.25 4.48-2.16 1.89-5.34 2.95-3.17 1.05-7.32 1.05-2.2 0-4.3-.39-2.09-.39-4.02-1.1t-3.57-1.66-2.89-2.08l2.37-3.9q.46-.7 1.08-1.07.62-.38 1.58-.38.95 0 1.8.54t1.97 1.16q1.12.63 2.64 1.16 1.51.54 3.84.54 1.82 0 3.13-.43 1.31-.44 2.16-1.14.85-.71 1.24-1.64.4-.94.4-1.93 0-1.5-.9-2.45-.89-.95-2.36-1.66t-3.36-1.27-3.86-1.22-3.86-1.56q-1.89-.89-3.36-2.26-1.48-1.37-2.37-3.36t-.89-4.81q0-2.62 1.04-4.98 1.03-2.37 3.05-4.13 2.01-1.77 5.02-2.82 3.01-1.06 6.95-1.06 4.4 0 8.01 1.45t6.02 3.82m18.42 37.97h-10.25v-42.58h6.27q1.99 0 2.61 1.87l.67 3.15q1.12-1.24 2.34-2.28 1.23-1.04 2.62-1.78 1.39-.75 2.98-1.19 1.6-.43 3.51-.43 4.03 0 6.62 2.18 2.59 2.17 3.88 5.79 1-2.12 2.49-3.64 1.49-1.51 3.28-2.47 1.78-.95 3.8-1.41 2.01-.45 4.04-.45 3.53 0 6.27 1.08 2.74 1.07 4.61 3.15 1.86 2.07 2.84 5.06.97 2.99.97 6.85v27.1h-10.25v-27.1q0-4.07-1.78-6.12-1.79-2.05-5.23-2.05-1.58 0-2.93.53-1.34.54-2.36 1.56t-1.6 2.55q-.58 1.54-.58 3.53v27.1H311.9v-27.1q0-4.27-1.72-6.22-1.73-1.95-5.05-1.95-2.24 0-4.17 1.09-1.93 1.1-3.59 3.01zm78.11-43.24q4.73 0 8.61 1.53 3.88 1.54 6.64 4.36t4.25 6.89 1.49 9.09q0 5.06-1.49 9.13-1.49 4.06-4.25 6.93-2.76 2.86-6.64 4.4-3.88 1.53-8.61 1.53-4.78 0-8.68-1.53-3.9-1.54-6.66-4.4-2.76-2.87-4.27-6.93-1.52-4.07-1.52-9.13 0-5.02 1.52-9.09 1.51-4.07 4.27-6.89t6.66-4.36q3.9-1.53 8.68-1.53m0 35.98q5.31 0 7.86-3.57t2.55-10.46-2.55-10.5-7.86-3.61q-5.4 0-7.99 3.63-2.6 3.63-2.6 10.48t2.6 10.44q2.59 3.59 7.99 3.59"/></svg>