<svg xmlns="http://www.w3.org/2000/svg" width="500" height="300" viewBox="0 0 500 300"><rect width="100%" height="100%" fill="#DDDDDD"/><path fill="#999999" d="M116.545 153.805q.38 0 .67.29l1.8 1.96q-1.5 1.85-3.68 2.84-2.19.98-5.24.98-2.74 0-4.93-.93-2.18-.94-3.73-2.6-1.55-1.67-2.37-3.98t-.82-5.05q0-2.77.88-5.08.88-2.3 2.49-3.97 1.61-1.66 3.83-2.59 2.23-.92 4.93-.92 2.69 0 4.77.88t3.55 2.31l-1.53 2.13q-.14.2-.35.35-.21.16-.59.16-.25 0-.53-.15-.27-.14-.59-.35-.32-.22-.75-.47-.42-.26-.98-.47t-1.3-.36q-.74-.14-1.71-.14-1.65 0-3.02.59-1.37.58-2.36 1.7-.98 1.11-1.53 2.72-.54 1.6-.54 3.66 0 2.07.59 3.69.58 1.61 1.59 2.72 1 1.1 2.36 1.69t2.92.59q.94 0 1.7-.11.75-.1 1.39-.32t1.21-.57 1.13-.86q.17-.15.35-.24.19-.1.39-.1m15.78-11.64h4.2v17.44h-2.57q-.83 0-1.05-.77l-.29-1.39q-1.07 1.09-2.36 1.76t-3.05.67q-1.42 0-2.52-.48-1.1-.49-1.84-1.37-.75-.89-1.14-2.1-.38-1.22-.38-2.68v-11.08h4.2v11.08q0 1.6.74 2.48.74.87 2.22.87 1.09 0 2.04-.48.95-.49 1.8-1.34zm8.4-7.82h4.2v25.26h-4.2zm14.21 25.53q-2.28 0-3.49-1.28-1.22-1.29-1.22-3.55v-9.74h-1.78q-.34 0-.58-.22t-.24-.66v-1.67l2.81-.46.88-4.76q.09-.34.32-.52.24-.19.62-.19h2.17v5.49h4.66v2.99h-4.66v9.45q0 .82.4 1.28t1.1.46q.39 0 .65-.09.27-.1.46-.2.2-.1.35-.2.15-.09.31-.09.18 0 .3.09.12.1.26.28l1.25 2.04q-.91.77-2.1 1.16t-2.47.39m14.55-17.98q1.94 0 3.53.62 1.59.63 2.72 1.79t1.74 2.82q.62 1.67.62 3.72 0 2.08-.62 3.74-.61 1.67-1.74 2.84-1.13 1.18-2.72 1.81t-3.53.63q-1.95 0-3.55-.63t-2.73-1.81q-1.13-1.17-1.75-2.84-.62-1.66-.62-3.74 0-2.05.62-3.72.62-1.66 1.75-2.82t2.73-1.79q1.6-.62 3.55-.62m0 14.73q2.18 0 3.22-1.46 1.05-1.46 1.05-4.28t-1.05-4.3q-1.04-1.48-3.22-1.48-2.21 0-3.27 1.49-1.06 1.48-1.06 4.29 0 2.8 1.06 4.27t3.27 1.47m31.03-2.19v-7.82q-.72-.87-1.56-1.22-.84-.36-1.81-.36-.95 0-1.71.36-.77.35-1.31 1.08-.55.72-.84 1.83-.29 1.12-.29 2.63 0 1.53.25 2.59t.71 1.74q.46.67 1.12.97.66.29 1.48.29 1.31 0 2.22-.54.92-.55 1.74-1.55m0-20.09h4.2v25.26h-2.57q-.83 0-1.05-.77l-.36-1.68q-1.05 1.21-2.42 1.96t-3.19.75q-1.43 0-2.62-.6t-2.05-1.73-1.32-2.79q-.47-1.67-.47-3.81 0-1.94.53-3.6.52-1.67 1.51-2.89.99-1.23 2.36-1.92 1.38-.69 3.1-.69 1.46 0 2.5.46 1.03.46 1.85 1.24zm11.66 14.53h7.92q0-.81-.23-1.54-.23-.72-.69-1.26-.45-.55-1.16-.86-.71-.32-1.64-.32-1.82 0-2.87 1.04-1.04 1.04-1.33 2.94m10.71 2.54h-10.79q.1 1.34.47 2.32.38.97.99 1.61t1.45.95q.84.32 1.86.32t1.76-.24 1.29-.53q.56-.29.97-.52.42-.24.81-.24.53 0 .78.39l1.21 1.53q-.7.81-1.56 1.37-.87.55-1.82.88-.94.33-1.92.47-.97.14-1.89.14-1.82 0-3.38-.61-1.57-.6-2.72-1.78-1.16-1.19-1.82-2.93-.67-1.74-.67-4.04 0-1.78.58-3.35.58-1.58 1.66-2.74t2.63-1.84q1.56-.68 3.51-.68 1.65 0 3.05.52 1.39.53 2.39 1.54 1.01 1.01 1.58 2.48t.57 3.36q0 .95-.21 1.28-.2.34-.78.34m29.94 2.39q.37 0 .66.29l1.8 1.96q-1.49 1.85-3.68 2.84-2.18.98-5.24.98-2.74 0-4.92-.93-2.19-.94-3.74-2.6-1.54-1.67-2.37-3.98-.82-2.31-.82-5.05 0-2.77.88-5.08.89-2.3 2.49-3.97 1.61-1.66 3.84-2.59 2.22-.92 4.93-.92 2.68 0 4.76.88 2.09.88 3.55 2.31l-1.53 2.13q-.14.2-.35.35-.21.16-.59.16-.25 0-.52-.15-.27-.14-.6-.35-.32-.22-.75-.47-.42-.26-.98-.47t-1.3-.36q-.74-.14-1.71-.14-1.65 0-3.02.59-1.37.58-2.35 1.7-.99 1.11-1.53 2.72-.55 1.6-.55 3.66 0 2.07.59 3.69.59 1.61 1.59 2.72 1 1.1 2.36 1.69t2.93.59q.93 0 1.69-.11.75-.1 1.39-.32t1.21-.57 1.13-.86q.17-.15.36-.24.18-.1.39-.1m8.26-4.93h7.92q0-.81-.23-1.54-.23-.72-.69-1.26-.46-.55-1.16-.86-.71-.32-1.64-.32-1.82 0-2.87 1.04-1.04 1.04-1.33 2.94m10.71 2.54h-10.8q.11 1.34.48 2.32.37.97.99 1.61.61.64 1.45.95.84.32 1.86.32t1.76-.24 1.29-.53q.56-.29.97-.52.42-.24.81-.24.53 0 .78.39l1.21 1.53q-.7.81-1.57 1.37-.86.55-1.81.88-.94.33-1.92.47-.97.14-1.89.14-1.82 0-3.39-.61-1.56-.6-2.72-1.78-1.15-1.19-1.81-2.93-.67-1.74-.67-4.04 0-1.78.58-3.35.58-1.58 1.66-2.74t2.63-1.84q1.56-.68 3.51-.68 1.65 0 3.05.52 1.39.53 2.39 1.54 1.01 1.01 1.58 2.48t.57 3.36q0 .95-.21 1.28-.2.34-.78.34m4.18-17.07h4.2v25.26h-4.2zm11.71 14.53h7.93q0-.81-.23-1.54-.23-.72-.69-1.26-.46-.55-1.17-.86-.7-.32-1.64-.32-1.82 0-2.86 1.04-1.05 1.04-1.34 2.94m10.71 2.54h-10.79q.1 1.34.48 2.32.37.97.98 1.61t1.45.95q.85.32 1.87.32t1.76-.24 1.29-.53.97-.52q.41-.24.8-.24.53 0 .79.39l1.2 1.53q-.69.81-1.56 1.37-.87.55-1.81.88t-1.92.47-1.9.14q-1.82 0-3.38-.61-1.56-.6-2.72-1.78-1.16-1.19-1.82-2.93t-.66-4.04q0-1.78.58-3.35.57-1.58 1.65-2.74t2.64-1.84q1.55-.68 3.51-.68 1.65 0 3.04.52 1.4.53 2.4 1.54t1.57 2.48.57 3.36q0 .95-.2 1.28-.21.34-.79.34m8.33-4.15v7.82q.72.86 1.56 1.22t1.78.36q.97 0 1.74-.35t1.32-1.09q.54-.74.83-1.88.29-1.15.29-2.75 0-2.87-.95-4.16-.96-1.28-2.74-1.28-1.21 0-2.11.55t-1.72 1.56m0-12.92v9.96q1.06-1.11 2.34-1.76 1.29-.65 2.93-.65 1.52 0 2.73.59 1.22.6 2.08 1.71t1.31 2.69q.46 1.58.46 3.56 0 2.12-.52 3.86-.53 1.73-1.51 2.96-.98 1.24-2.35 1.91-1.38.69-3.06.69-.82 0-1.48-.17-.66-.16-1.23-.45-.56-.29-1.02-.7-.47-.42-.9-.93l-.18 1.17q-.11.45-.35.63-.25.19-.67.19h-2.77v-25.26zm18.81 8.87.25 1.97q.82-1.56 1.94-2.45 1.12-.9 2.65-.9 1.21 0 1.94.53l-.27 3.15q-.09.3-.25.43t-.43.13q-.26 0-.76-.09-.5-.08-.98-.08-.69 0-1.24.2-.54.21-.98.59-.43.38-.76.92-.33.55-.62 1.25v10.74h-4.2v-17.44h2.47q.64 0 .9.23.25.23.34.82m18.19 11.89v-2.95q-1.82.09-3.06.32t-1.99.58q-.75.36-1.07.84-.33.47-.33 1.03 0 1.11.66 1.59.65.47 1.71.47 1.29 0 2.23-.47.95-.46 1.85-1.41m-8.88-9.17-.75-1.34q3.01-2.76 7.25-2.76 1.53 0 2.73.51 1.21.5 2.04 1.39.84.89 1.27 2.13t.43 2.72v11.02h-1.9q-.6 0-.92-.18t-.51-.72l-.37-1.26q-.67.6-1.29 1.05-.63.45-1.31.75-.68.31-1.46.47-.77.16-1.71.16-1.1 0-2.04-.3-.93-.29-1.61-.89-.68-.59-1.05-1.48-.38-.88-.38-2.05 0-.67.22-1.32.22-.66.72-1.25.51-.6 1.31-1.12.79-.53 1.96-.92 1.16-.39 2.71-.64t3.54-.3v-1.02q0-1.75-.75-2.59t-2.16-.84q-1.02 0-1.69.24t-1.18.53q-.51.3-.93.54t-.93.24q-.44 0-.74-.23-.31-.23-.5-.54m29.48 9.54 1.21 1.53q-1.16 1.36-2.61 2-1.46.63-3 .79l-.22.85q1.59.37 2.23 1.01t.64 1.52q0 .58-.3 1.04t-.85.78-1.31.49q-.75.17-1.67.17-.7 0-1.31-.09t-1.19-.28l.37-1.31q.11-.39.5-.39.23 0 .52.13.29.12.84.12.56 0 .84-.21t.28-.52q0-.49-.61-.7-.62-.22-1.89-.4l.75-2.23q-1.43-.2-2.65-.89-1.23-.69-2.13-1.82t-1.42-2.7q-.52-1.56-.52-3.52 0-1.92.55-3.56.56-1.64 1.63-2.84 1.07-1.19 2.65-1.87t3.64-.68q1.95 0 3.42.62 1.47.63 2.65 1.81l-1.11 1.53q-.18.23-.36.37t-.52.14q-.32 0-.63-.2-.31-.19-.73-.44-.43-.25-1.01-.44-.59-.2-1.46-.2-1.1 0-1.93.4-.84.4-1.39 1.15t-.82 1.81q-.28 1.06-.28 2.4 0 1.4.3 2.49.3 1.08.86 1.82t1.36 1.13q.8.38 1.8.38t1.62-.25q.63-.24 1.05-.54.43-.3.74-.55.31-.24.71-.24.51 0 .76.39m13.07-.37v-2.95q-1.82.09-3.06.32t-1.99.58q-.74.36-1.07.84-.32.47-.32 1.03 0 1.11.65 1.59.66.47 1.71.47 1.3 0 2.24-.47.94-.46 1.84-1.41m-8.87-9.17-.75-1.34q3.01-2.76 7.24-2.76 1.53 0 2.74.51 1.21.5 2.04 1.39t1.27 2.13q.43 1.24.43 2.72v11.02h-1.9q-.6 0-.92-.18t-.51-.72l-.38-1.26q-.66.6-1.29 1.05t-1.31.75q-.68.31-1.45.47t-1.71.16q-1.1 0-2.04-.3-.93-.29-1.61-.89-.68-.59-1.06-1.48-.37-.88-.37-2.05 0-.67.22-1.32.22-.66.72-1.25.5-.6 1.3-1.12.8-.53 1.97-.92 1.16-.39 2.71-.64 1.54-.25 3.53-.3v-1.02q0-1.75-.74-2.59-.75-.84-2.16-.84-1.02 0-1.7.24-.67.24-1.18.53l-.92.54q-.42.24-.93.24-.44 0-.75-.23-.3-.23-.49-.54m7.92-9.43q.51 0 .8-.28t.29-1.02h2.55q0 .96-.26 1.73-.27.77-.73 1.33-.46.55-1.09.85-.64.29-1.41.29-.61 0-1.13-.22-.53-.22-.99-.47-.46-.26-.86-.48t-.74-.22q-.49 0-.77.3-.28.29-.28 1.01h-2.6q0-.95.26-1.73.26-.77.74-1.32.48-.56 1.11-.86.64-.31 1.39-.31.61 0 1.15.22.53.22.99.48.46.25.85.48.39.22.73.22m16.71 5.39q1.94 0 3.53.62 1.59.63 2.72 1.79t1.74 2.82q.61 1.67.61 3.72 0 2.08-.61 3.74-.61 1.67-1.74 2.84-1.13 1.18-2.72 1.81t-3.53.63q-1.95 0-3.55-.63t-2.73-1.81q-1.13-1.17-1.75-2.84-.62-1.66-.62-3.74 0-2.05.62-3.72.62-1.66 1.75-2.82t2.73-1.79q1.6-.62 3.55-.62m0 14.73q2.18 0 3.22-1.46 1.05-1.46 1.05-4.28t-1.05-4.3q-1.04-1.48-3.22-1.48-2.21 0-3.27 1.49-1.06 1.48-1.06 4.29 0 2.8 1.06 4.27t3.27 1.47"/></svg>