<svg xmlns="http://www.w3.org/2000/svg" width="500" height="300" viewBox="0 0 500 300"><rect width="100%" height="100%" fill="#DDDDDD"/><path fill="#999999" d="M115.415 155.905q.33 0 .58.26l1.59 1.73q-1.32 1.63-3.25 2.5-1.92.87-4.62.87-2.42 0-4.35-.82-1.92-.83-3.29-2.3-1.36-1.47-2.09-3.51t-.73-4.45q0-2.45.78-4.48.78-2.04 2.2-3.5 1.42-1.47 3.38-2.29 1.97-.82 4.35-.82 2.37 0 4.21.78t3.13 2.04l-1.35 1.88q-.12.18-.31.31t-.52.13q-.22 0-.46-.12-.24-.13-.53-.32-.28-.18-.66-.41-.37-.22-.87-.41-.49-.19-1.15-.32-.65-.13-1.5-.13-1.46 0-2.67.52-1.2.52-2.07 1.5-.87.99-1.35 2.4-.48 1.42-.48 3.24 0 1.83.51 3.25.52 1.42 1.41 2.4.88.98 2.08 1.49 1.2.52 2.58.52.83 0 1.49-.09.67-.09 1.23-.28.57-.2 1.07-.51t1-.75q.15-.14.31-.22.17-.09.35-.09m11.17-10.51q1.71 0 3.11.56 1.41.55 2.4 1.57 1 1.02 1.54 2.49t.54 3.29q0 1.83-.54 3.3-.54 1.46-1.54 2.5-.99 1.03-2.4 1.59-1.4.55-3.11.55-1.72 0-3.13-.55-1.41-.56-2.41-1.59-1-1.04-1.55-2.5-.54-1.47-.54-3.3 0-1.82.54-3.29.55-1.47 1.55-2.49t2.41-1.57q1.41-.56 3.13-.56m0 13q1.92 0 2.84-1.29.93-1.29.93-3.77 0-2.5-.93-3.8-.92-1.3-2.84-1.3-1.95 0-2.89 1.31-.93 1.31-.93 3.79 0 2.47.93 3.77.94 1.29 2.89 1.29m13.64-12.08.25 1.21q.47-.46.98-.86.52-.4 1.1-.68.58-.27 1.24-.43t1.44-.16q1.26 0 2.23.43.98.43 1.63 1.2t.99 1.84q.34 1.08.34 2.37v9.79h-3.71v-9.79q0-1.42-.64-2.19-.65-.77-1.97-.77-.96 0-1.8.44-.84.43-1.59 1.18v11.13h-3.7v-15.39h2.26q.72 0 .95.68m18.49 14.71h-3.7v-12.6l-1.34-.21q-.43-.09-.7-.31-.26-.21-.26-.62v-1.51h2.3v-1.14q0-1.32.39-2.38.4-1.04 1.14-1.78.75-.74 1.81-1.13 1.07-.38 2.4-.38 1.07 0 1.98.28l-.07 1.86q-.02.21-.12.34-.11.13-.28.19-.17.07-.4.09-.22.03-.48.03-.66 0-1.18.14-.51.14-.87.49t-.55.93-.19 1.44v1.02h4.01v2.63h-3.89zm8.9-9.46h6.99q0-.73-.21-1.36-.2-.64-.6-1.12-.41-.48-1.03-.76-.62-.27-1.45-.27-1.6 0-2.53.91-.92.92-1.17 2.6m9.45 2.23h-9.53q.09 1.19.42 2.05t.87 1.42q.54.57 1.28.84.75.28 1.65.28t1.55-.21 1.14-.46q.49-.26.85-.47.37-.21.72-.21.46 0 .69.34l1.06 1.36q-.61.72-1.38 1.2-.76.49-1.6.78-.83.3-1.69.41-.86.12-1.67.12-1.61 0-2.99-.53t-2.4-1.57-1.6-2.58q-.59-1.54-.59-3.57 0-1.57.51-2.96t1.46-2.41q.96-1.03 2.33-1.63t3.1-.6q1.45 0 2.68.47 1.23.46 2.12 1.35.88.9 1.38 2.19.51 1.3.51 2.97 0 .84-.18 1.13t-.69.29m6.91-7.23.23 1.74q.72-1.38 1.71-2.17.99-.78 2.34-.78 1.06 0 1.71.46l-.24 2.78q-.08.27-.22.38t-.38.11q-.23 0-.67-.07-.44-.08-.86-.08-.62 0-1.1.18t-.86.52-.68.82q-.29.48-.54 1.09v9.48h-3.71v-15.39h2.18q.57 0 .79.2.23.21.3.73m10.85 5h6.99q0-.73-.21-1.36-.2-.64-.6-1.12-.41-.48-1.03-.76-.62-.27-1.45-.27-1.6 0-2.53.91-.92.92-1.17 2.6m9.45 2.23h-9.53q.09 1.19.42 2.05t.87 1.42q.54.57 1.28.84.75.28 1.65.28t1.55-.21 1.14-.46q.49-.26.85-.47.37-.21.72-.21.46 0 .69.34l1.06 1.36q-.61.72-1.38 1.2-.76.49-1.6.78-.83.3-1.69.41-.86.12-1.67.12-1.61 0-2.99-.53t-2.4-1.57-1.6-2.58q-.59-1.54-.59-3.57 0-1.57.51-2.96t1.46-2.41q.96-1.03 2.33-1.63t3.1-.6q1.45 0 2.68.47 1.23.46 2.12 1.35.88.9 1.38 2.19.51 1.3.51 2.97 0 .84-.18 1.13t-.69.29m-3.99-14.46 3.43 4.17h-2.47q-.21 0-.43-.08t-.43-.29l-1.47-1.56q-.16-.16-.31-.36-.17.2-.32.36l-1.5 1.56q-.18.19-.4.28-.23.09-.45.09h-2.57l3.44-4.17zm10.84 6.98.26 1.21q.46-.46.98-.86t1.09-.68q.58-.27 1.24-.43t1.44-.16q1.26 0 2.24.43.97.43 1.62 1.2.66.77.99 1.84.34 1.08.34 2.37v9.79h-3.71v-9.79q0-1.42-.64-2.19t-1.96-.77q-.96 0-1.8.44-.85.43-1.6 1.18v11.13h-3.7v-15.39h2.27q.72 0 .94.68m25.71 1.23-.97 1.35q-.17.21-.33.33-.15.12-.45.12-.29 0-.56-.18-.27-.17-.64-.39-.38-.21-.9-.39-.51-.17-1.28-.17-.98 0-1.71.35t-1.22 1.01-.73 1.6-.24 2.13q0 1.22.26 2.18.27.96.76 1.62.5.65 1.2.99t1.59.34 1.43-.22q.55-.22.93-.48.37-.26.65-.48t.62-.22q.45 0 .68.34l1.06 1.36q-.61.72-1.33 1.2-.72.49-1.5.78-.77.3-1.59.41-.81.12-1.62.12-1.43 0-2.69-.53t-2.21-1.55q-.94-1.02-1.49-2.5-.54-1.47-.54-3.36 0-1.7.48-3.15.49-1.44 1.44-2.5.94-1.06 2.34-1.66 1.39-.6 3.2-.6 1.73 0 3.03.56 1.3.55 2.33 1.59m2.58-1.91h3.72v15.39h-3.72zm4.23-4.49q0 .49-.19.91-.2.42-.52.73t-.76.5q-.43.19-.93.19-.48 0-.91-.19-.42-.19-.74-.5-.31-.31-.5-.73t-.19-.91.19-.92q.19-.44.5-.75.32-.32.74-.51.43-.18.91-.18.5 0 .93.18.44.19.76.51.32.31.52.75.19.43.19.92m11.4 15.91v-2.6q-1.6.07-2.7.28-1.09.2-1.75.52-.66.31-.95.73-.28.42-.28.91 0 .98.57 1.4.58.42 1.51.42 1.14 0 1.97-.41t1.63-1.25m-7.83-8.09-.66-1.18q2.66-2.43 6.39-2.43 1.35 0 2.42.44 1.06.44 1.8 1.23.73.79 1.11 1.88t.38 2.4v9.72h-1.67q-.53 0-.82-.16-.28-.16-.44-.63l-.33-1.12q-.59.53-1.15.93-.55.4-1.15.66-.6.28-1.28.42t-1.51.14q-.97 0-1.8-.26-.82-.26-1.42-.79-.6-.52-.93-1.3-.33-.79-.33-1.82 0-.58.19-1.16.2-.58.64-1.1.44-.53 1.15-.99.7-.47 1.73-.82 1.03-.34 2.39-.56 1.37-.22 3.12-.26v-.9q0-1.54-.66-2.29-.66-.74-1.9-.74-.9 0-1.5.21-.59.21-1.04.47-.45.27-.82.48-.36.21-.81.21-.39 0-.66-.21-.27-.2-.44-.47m31.87 7.5v-6.9q-.63-.76-1.37-1.08-.74-.31-1.59-.31-.84 0-1.52.31-.67.32-1.16.95-.47.64-.73 1.62-.26.99-.26 2.32 0 1.35.22 2.29t.62 1.53q.41.59 1 .85.58.27 1.3.27 1.16 0 1.96-.48.82-.48 1.53-1.37m0-17.73h3.71v22.29h-2.26q-.74 0-.93-.67l-.32-1.49q-.93 1.07-2.14 1.73-1.2.65-2.81.65-1.26 0-2.31-.52t-1.81-1.52-1.17-2.47-.41-3.36q0-1.71.47-3.18.46-1.47 1.33-2.55t2.08-1.69q1.22-.6 2.73-.6 1.3 0 2.21.4.92.4 1.63 1.1zm15.5 18.32v-2.6q-1.61.07-2.7.28-1.1.2-1.76.52-.66.31-.94.73-.29.42-.29.91 0 .98.58 1.4t1.51.42q1.14 0 1.97-.41t1.63-1.25m-7.83-8.09-.66-1.18q2.65-2.43 6.39-2.43 1.35 0 2.41.44 1.07.44 1.8 1.23.74.79 1.12 1.88t.38 2.4v9.72h-1.68q-.52 0-.81-.16-.28-.16-.45-.63l-.33-1.12q-.58.53-1.14.93-.55.4-1.15.66-.6.28-1.28.42-.69.14-1.51.14-.98 0-1.8-.26-.83-.26-1.43-.79-.6-.52-.93-1.3-.33-.79-.33-1.82 0-.58.2-1.16.19-.58.64-1.1.44-.53 1.14-.99.71-.47 1.74-.82 1.02-.34 2.39-.56 1.36-.22 3.12-.26v-.9q0-1.54-.66-2.29-.66-.74-1.91-.74-.9 0-1.49.21t-1.04.47q-.45.27-.82.48t-.82.21q-.39 0-.66-.21-.27-.2-.43-.47m36.48-6.42h-9.63v6.42h8.13v3.23h-8.13v8.83h-4.05v-21.69h13.68zm10.84 14.51v-2.6q-1.6.07-2.69.28-1.1.2-1.76.52-.66.31-.94.73-.29.42-.29.91 0 .98.58 1.4t1.5.42q1.15 0 1.98-.41t1.62-1.25m-7.83-8.09-.66-1.18q2.66-2.43 6.39-2.43 1.35 0 2.42.44t1.8 1.23q.74.79 1.12 1.88t.38 2.4v9.72h-1.68q-.52 0-.81-.16t-.45-.63l-.33-1.12q-.59.53-1.14.93-.56.4-1.15.66-.61.28-1.29.42t-1.51.14q-.97 0-1.79-.26-.83-.26-1.43-.79-.6-.52-.93-1.3-.33-.79-.33-1.82 0-.58.2-1.16.19-.58.63-1.1.45-.53 1.15-.99.71-.47 1.73-.82 1.03-.34 2.4-.56 1.36-.22 3.11-.26v-.9q0-1.54-.66-2.29-.65-.74-1.9-.74-.9 0-1.49.21t-1.05.47q-.45.27-.81.48-.37.21-.82.21-.39 0-.66-.21-.27-.2-.44-.47m18.63 12.06h-3.7v-15.39h2.26q.72 0 .95.68l.24 1.14q.4-.46.85-.83.44-.37.94-.64t1.08-.43 1.27-.16q1.45 0 2.39.79t1.4 2.09q.36-.76.9-1.31t1.19-.9q.64-.34 1.37-.5.73-.17 1.46-.17 1.28 0 2.27.39t1.66 1.14q.68.75 1.03 1.83t.35 2.48v9.79h-3.7v-9.79q0-1.47-.65-2.22-.64-.74-1.89-.74-.57 0-1.05.2-.49.19-.86.56-.37.36-.58.92t-.21 1.28v9.79h-3.72v-9.79q0-1.55-.62-2.25-.62-.71-1.82-.71-.81 0-1.51.4-.7.39-1.3 1.09zm21.54-15.39h3.72v15.39h-3.72zm4.24-4.49q0 .49-.2.91-.19.42-.52.73-.32.31-.76.5-.43.19-.93.19-.48 0-.9-.19-.43-.19-.75-.5-.31-.31-.5-.73t-.19-.91.19-.92q.19-.44.5-.75.32-.32.75-.51.42-.18.9-.18.5 0 .93.18.44.19.76.51.33.31.52.75.2.43.2.92m3.31-2.41h3.7v22.29h-3.7zm7.53 6.9h3.72v15.39h-3.72zm4.23-4.49q0 .49-.19.91-.2.42-.52.73t-.76.5q-.43.19-.93.19-.48 0-.91-.19-.42-.19-.74-.5-.31-.31-.5-.73t-.19-.91.19-.92q.19-.44.5-.75.32-.32.74-.51.43-.18.91-.18.5 0 .93.18.44.19.76.51.32.31.52.75.19.43.19.92m11.4 15.91v-2.6q-1.6.07-2.7.28-1.09.2-1.75.52-.66.31-.95.73-.28.42-.28.91 0 .98.57 1.4.58.42 1.51.42 1.14 0 1.97-.41.84-.41 1.63-1.25m-7.83-8.09-.66-1.18q2.66-2.43 6.39-2.43 1.35 0 2.42.44 1.06.44 1.8 1.23.73.79 1.11 1.88.39 1.09.39 2.4v9.72h-1.68q-.53 0-.81-.16-.29-.16-.45-.63l-.33-1.12q-.59.53-1.14.93-.56.4-1.16.66-.6.28-1.28.42t-1.51.14q-.97 0-1.8-.26-.82-.26-1.42-.79-.6-.52-.93-1.3-.33-.79-.33-1.82 0-.58.19-1.16.2-.58.64-1.1.44-.53 1.15-.99.7-.47 1.73-.82 1.03-.34 2.39-.56 1.37-.22 3.12-.26v-.9q0-1.54-.66-2.29-.66-.74-1.9-.74-.9 0-1.5.21-.59.21-1.04.47-.45.27-.82.48-.36.21-.81.21-.39 0-.66-.21-.27-.2-.44-.47"/></svg>