<svg xmlns="http://www.w3.org/2000/svg" width="500" height="300" viewBox="0 0 500 300"><rect width="100%" height="100%" fill="#DDDDDD"/><path fill="#999999" d="M115.05 141.305h-11.24v7.02h8.86v3.62h-8.86v7.16h11.24v3.76H99.09v-25.31h15.96zm7.22 4.39.3 1.42q.54-.54 1.15-1.01.6-.46 1.28-.78.67-.33 1.44-.51.77-.19 1.68-.19 1.47 0 2.61.5 1.13.5 1.9 1.4.76.9 1.15 2.16.39 1.25.39 2.75v11.43h-4.32v-11.43q0-1.64-.75-2.54-.75-.91-2.29-.91-1.12 0-2.1.51t-1.86 1.38v12.99h-4.32v-17.96h2.64q.84 0 1.1.79m30 1.44-1.14 1.57q-.19.25-.37.39-.19.14-.54.14-.33 0-.65-.2-.31-.21-.75-.46t-1.04-.45q-.6-.21-1.5-.21-1.13 0-1.99.42-.86.41-1.43 1.18t-.85 1.86-.28 2.48q0 1.43.31 2.55t.88 1.88q.58.76 1.4 1.16.83.39 1.86.39t1.67-.25q.64-.26 1.08-.56.43-.31.76-.56.32-.26.72-.26.53 0 .79.41l1.24 1.57q-.71.84-1.55 1.41t-1.74.91q-.91.34-1.86.48t-1.9.14q-1.66 0-3.13-.62t-2.57-1.81q-1.11-1.19-1.74-2.91-.64-1.73-.64-3.93 0-1.98.57-3.67.56-1.69 1.67-2.92 1.1-1.24 2.73-1.94 1.62-.7 3.74-.7 2.01 0 3.53.65 1.51.65 2.72 1.86m10.81-2.51q2 0 3.64.65 1.63.65 2.8 1.84 1.16 1.19 1.79 2.9.63 1.72.63 3.84 0 2.13-.63 3.85-.63 1.71-1.79 2.92-1.17 1.21-2.8 1.85-1.64.65-3.64.65-2.01 0-3.65-.65-1.65-.64-2.81-1.85-1.17-1.21-1.8-2.92-.64-1.72-.64-3.85 0-2.12.64-3.84.63-1.71 1.8-2.9 1.16-1.19 2.81-1.84 1.64-.65 3.65-.65m0 15.18q2.24 0 3.32-1.51 1.08-1.5 1.08-4.41 0-2.9-1.08-4.43-1.08-1.52-3.32-1.52-2.27 0-3.36 1.53-1.1 1.53-1.1 4.42t1.1 4.4q1.09 1.52 3.36 1.52m15.91-14.11.3 1.42q.54-.54 1.15-1.01.6-.46 1.27-.78.68-.33 1.45-.51.77-.19 1.68-.19 1.47 0 2.6.5 1.14.5 1.9 1.4t1.16 2.16q.39 1.25.39 2.75v11.43h-4.32v-11.43q0-1.64-.75-2.54-.76-.91-2.3-.91-1.12 0-2.1.51t-1.85 1.38v12.99h-4.32v-17.96h2.64q.84 0 1.1.79m21.98 17.45q-2.34 0-3.59-1.32-1.26-1.32-1.26-3.65v-10.03h-1.83q-.35 0-.6-.23-.24-.22-.24-.68v-1.71l2.88-.48.91-4.9q.09-.35.34-.54.24-.19.63-.19h2.24v5.65h4.79v3.08h-4.79v9.73q0 .84.41 1.31.41.48 1.13.48.4 0 .67-.1t.47-.2l.36-.2q.16-.1.32-.1.19 0 .31.1.12.09.26.29l1.3 2.1q-.95.78-2.17 1.19-1.23.4-2.54.4m10.85-17.15.26 2.03q.84-1.61 2-2.53 1.15-.92 2.73-.92 1.24 0 1.99.54l-.28 3.24q-.08.32-.25.45t-.45.13q-.26 0-.77-.09-.52-.09-1.01-.09-.72 0-1.28.21t-1 .61q-.45.39-.79.95t-.64 1.28v11.06h-4.32v-17.96h2.53q.67 0 .93.24t.35.85m17.19-1.37q1.99 0 3.63.65 1.63.65 2.8 1.84 1.16 1.19 1.79 2.9.63 1.72.63 3.84 0 2.13-.63 3.85-.63 1.71-1.79 2.92-1.17 1.21-2.8 1.85-1.64.65-3.63.65-2.02 0-3.66-.65-1.65-.64-2.81-1.85t-1.8-2.92q-.64-1.72-.64-3.85 0-2.12.64-3.84.64-1.71 1.8-2.9t2.81-1.84q1.64-.65 3.66-.65m0 15.18q2.24 0 3.31-1.51 1.08-1.5 1.08-4.41 0-2.9-1.08-4.43-1.07-1.52-3.31-1.52-2.28 0-3.37 1.53-1.1 1.53-1.1 4.42t1.1 4.4q1.09 1.52 3.37 1.52m31.93-2.26v-8.05q-.73-.89-1.6-1.26-.86-.37-1.86-.37-.98 0-1.77.37t-1.35 1.11-.85 1.89q-.3 1.15-.3 2.7 0 1.58.25 2.67.26 1.1.73 1.79t1.15 1q.69.3 1.53.3 1.34 0 2.29-.56t1.78-1.59m0-20.69h4.33v26.01h-2.65q-.85 0-1.08-.79l-.37-1.73q-1.08 1.24-2.49 2.01t-3.28.77q-1.47 0-2.7-.61-1.22-.61-2.11-1.78-.88-1.16-1.36-2.88-.48-1.71-.48-3.92 0-1.99.54-3.71.54-1.71 1.56-2.97 1.01-1.26 2.43-1.97t3.18-.71q1.51 0 2.58.47 1.07.48 1.9 1.28zm12.01 14.97h8.15q0-.84-.23-1.59-.24-.74-.71-1.3t-1.2-.88q-.72-.33-1.69-.33-1.87 0-2.95 1.07-1.07 1.07-1.37 3.03m11.03 2.6h-11.12q.11 1.39.49 2.39.39 1.01 1.02 1.67.63.65 1.49.98.87.32 1.92.32t1.81-.25q.76-.24 1.33-.54t1-.54q.43-.25.83-.25.54 0 .81.41l1.24 1.57q-.72.84-1.61 1.41-.9.57-1.87.91t-1.97.48q-1.01.14-1.96.14-1.87 0-3.48-.62t-2.8-1.84q-1.19-1.21-1.87-3.01-.68-1.79-.68-4.15 0-1.84.59-3.46.6-1.62 1.71-2.82t2.71-1.9 3.61-.7q1.7 0 3.14.55 1.43.54 2.46 1.58 1.04 1.04 1.62 2.56.59 1.51.59 3.45 0 .98-.21 1.32t-.8.34m23.08-16.87v16.31q0 2.14-.53 3.85-.52 1.72-1.56 2.93-1.05 1.2-2.6 1.85-1.56.65-3.63.65-.94 0-1.85-.11-.91-.12-1.91-.36.05-.7.12-1.4t.13-1.4q.05-.39.3-.62.26-.24.73-.24.3 0 .78.12t1.21.12q1 0 1.77-.28.77-.29 1.29-.92.51-.63.78-1.64.26-1.01.26-2.44v-16.42zm12.65 7.07q1.99 0 3.63.65t2.8 1.84q1.17 1.19 1.79 2.9.63 1.72.63 3.84 0 2.13-.63 3.85-.62 1.71-1.79 2.92-1.16 1.21-2.8 1.85-1.64.65-3.63.65-2.01 0-3.66-.65-1.64-.64-2.81-1.85-1.16-1.21-1.8-2.92-.64-1.72-.64-3.85 0-2.12.64-3.84.64-1.71 1.8-2.9 1.17-1.19 2.81-1.84 1.65-.65 3.66-.65m0 15.18q2.24 0 3.32-1.51 1.07-1.5 1.07-4.41 0-2.9-1.07-4.43-1.08-1.52-3.32-1.52-2.28 0-3.37 1.53t-1.09 4.42 1.09 4.4q1.09 1.52 3.37 1.52m24.94-14.9h3.41l-7.12 17.96h-3.92l-7.12-17.96h3.57q.49 0 .81.23t.43.58l3.46 9.59q.28.84.49 1.64.21.81.37 1.61.18-.8.39-1.61.21-.8.5-1.64l3.54-9.59q.12-.35.44-.58.31-.23.75-.23m9.12 6.92h8.15q0-.84-.24-1.59-.23-.74-.7-1.3-.48-.56-1.2-.88-.73-.33-1.69-.33-1.87 0-2.95 1.07t-1.37 3.03m11.02 2.6h-11.11q.1 1.39.49 2.39.38 1.01 1.01 1.67.63.65 1.5.98.87.32 1.92.32t1.81-.25q.76-.24 1.33-.54t.99-.54q.43-.25.84-.25.54 0 .8.41l1.24 1.57q-.71.84-1.61 1.41-.89.57-1.86.91t-1.98.48q-1 .14-1.95.14-1.87 0-3.48-.62t-2.8-1.84q-1.19-1.21-1.87-3.01-.69-1.79-.69-4.15 0-1.84.6-3.46.59-1.62 1.7-2.82 1.12-1.2 2.72-1.9t3.61-.7q1.7 0 3.13.55 1.44.54 2.47 1.58t1.62 2.56q.59 1.51.59 3.45 0 .98-.21 1.32t-.81.34m8-8.73.3 1.42q.54-.54 1.14-1.01.61-.46 1.28-.78.67-.33 1.44-.51.77-.19 1.68-.19 1.47 0 2.61.5t1.9 1.4 1.15 2.16q.4 1.25.4 2.75v11.43h-4.32v-11.43q0-1.64-.76-2.54-.75-.91-2.29-.91-1.12 0-2.1.51t-1.85 1.38v12.99h-4.33v-17.96h2.65q.84 0 1.1.79m27.93 1.16-.98 1.55q-.18.28-.37.4-.19.11-.49.11-.32 0-.67-.17-.36-.18-.84-.4-.47-.22-1.07-.39-.6-.18-1.43-.18-1.28 0-2 .55-.73.54-.73 1.41 0 .58.38.98.38.39 1 .69.62.29 1.41.53.78.24 1.6.52.81.28 1.6.64.79.35 1.41.91.62.55.99 1.32.38.77.38 1.85 0 1.3-.46 2.39-.47 1.09-1.38 1.89t-2.25 1.24q-1.33.45-3.08.45-.93 0-1.82-.17-.88-.16-1.69-.46-.82-.3-1.51-.7t-1.22-.88l1-1.64q.2-.3.46-.46.26-.15.66-.15.41 0 .76.22.36.23.83.49.48.27 1.12.49.63.23 1.62.23.76 0 1.32-.18.55-.19.91-.48.35-.3.52-.69.17-.4.17-.82 0-.63-.38-1.03-.37-.4-1-.7-.62-.3-1.41-.53-.8-.24-1.63-.52t-1.63-.66q-.79-.37-1.42-.95-.62-.58-.99-1.42-.38-.84-.38-2.03 0-1.1.44-2.1.43-1 1.28-1.74t2.12-1.19 2.93-.45q1.86 0 3.38.62 1.52.61 2.54 1.61"/></svg>