<svg xmlns="http://www.w3.org/2000/svg" width="500" height="300" viewBox="0 0 500 300"><rect width="100%" height="100%" fill="#DDDDDD"/><path fill="#999999" d="M121.635 154.705q.46 0 .82.36l2.23 2.41q-1.85 2.29-4.55 3.51t-6.48 1.22q-3.38 0-6.08-1.16-2.7-1.15-4.61-3.21t-2.93-4.92q-1.01-2.85-1.01-6.23 0-3.43 1.09-6.27 1.09-2.85 3.07-4.91 1.99-2.05 4.74-3.2 2.75-1.14 6.09-1.14 3.32 0 5.89 1.09t4.38 2.86l-1.89 2.62q-.17.25-.43.44t-.73.19q-.31 0-.65-.18-.33-.18-.73-.44t-.93-.58q-.52-.31-1.21-.57-.7-.27-1.61-.44-.91-.18-2.11-.18-2.04 0-3.73.72-1.69.73-2.91 2.1-1.22 1.38-1.89 3.36-.67 1.99-.67 4.53 0 2.56.72 4.55.73 2 1.97 3.36 1.24 1.37 2.92 2.09 1.68.73 3.61.73 1.15 0 2.09-.13.93-.12 1.72-.4.79-.27 1.49-.7.71-.43 1.4-1.06.21-.19.44-.31.23-.11.48-.11m19.49-14.39h5.19v21.55h-3.17q-1.03 0-1.31-.95l-.35-1.72q-1.33 1.35-2.92 2.18-1.6.83-3.76.83-1.76 0-3.12-.6-1.35-.6-2.28-1.69-.92-1.1-1.39-2.6-.48-1.5-.48-3.3v-13.7h5.19v13.7q0 1.97.91 3.05.92 1.08 2.74 1.08 1.35 0 2.52-.6 1.18-.59 2.23-1.64zm10.37-9.66h5.19v31.21h-5.19zm17.56 31.55q-2.81 0-4.32-1.59-1.5-1.58-1.5-4.38v-12.03h-2.2q-.42 0-.72-.27-.29-.28-.29-.82v-2.06l3.47-.57 1.09-5.88q.1-.42.4-.65.29-.23.75-.23h2.69v6.78h5.75v3.7h-5.75v11.67q0 1.01.49 1.58.5.57 1.36.57.48 0 .81-.12.32-.11.56-.24.25-.13.43-.24.19-.12.38-.12.23 0 .38.12.15.11.32.34l1.55 2.52q-1.13.95-2.6 1.43-1.47.49-3.05.49m17.98-22.22q2.39 0 4.35.77 1.97.78 3.36 2.21 1.4 1.43 2.16 3.49.75 2.05.75 4.59 0 2.57-.75 4.62-.76 2.06-2.16 3.51-1.39 1.45-3.36 2.23-1.96.78-4.35.78-2.42 0-4.39-.78-1.98-.78-3.37-2.23-1.4-1.45-2.17-3.51-.76-2.05-.76-4.62 0-2.54.76-4.59.77-2.06 2.17-3.49 1.39-1.43 3.37-2.21 1.97-.77 4.39-.77m0 18.2q2.68 0 3.98-1.8 1.29-1.81 1.29-5.29 0-3.49-1.29-5.32-1.3-1.82-3.98-1.82-2.73 0-4.05 1.83-1.31 1.84-1.31 5.31 0 3.46 1.31 5.28 1.32 1.81 4.05 1.81m38.32-2.7v-9.66q-.88-1.08-1.92-1.52t-2.24-.44q-1.17 0-2.12.44-.94.44-1.61 1.34-.68.89-1.03 2.27-.36 1.37-.36 3.24 0 1.89.3 3.2.31 1.31.88 2.14.56.83 1.38 1.2t1.83.37q1.62 0 2.75-.67 1.13-.68 2.14-1.91m0-24.83h5.19v31.21h-3.17q-1.03 0-1.3-.95l-.45-2.07q-1.3 1.49-2.99 2.41-1.69.93-3.94.93-1.76 0-3.23-.74t-2.53-2.13q-1.06-1.4-1.64-3.46-.58-2.05-.58-4.7 0-2.39.66-4.45.65-2.06 1.86-3.57 1.22-1.51 2.92-2.36 1.7-.86 3.83-.86 1.8 0 3.08.57t2.29 1.53zm14.41 17.96h9.78q0-1.01-.28-1.9t-.85-1.57q-.57-.67-1.44-1.06t-2.03-.39q-2.24 0-3.53 1.29-1.3 1.28-1.65 3.63m13.23 3.13h-13.34q.13 1.66.59 2.86.46 1.21 1.22 2 .75.79 1.79 1.18 1.04.38 2.3.38t2.18-.29q.91-.29 1.59-.65.69-.36 1.2-.65.51-.3 1-.3.65 0 .96.49l1.49 1.89q-.86 1-1.93 1.69-1.07.68-2.23 1.09-1.17.41-2.38.58-1.2.17-2.34.17-2.25 0-4.18-.75t-3.36-2.21-2.24-3.61q-.82-2.15-.82-4.99 0-2.2.71-4.14.71-1.95 2.05-3.38 1.33-1.44 3.25-2.28t4.34-.84q2.04 0 3.76.65t2.96 1.9 1.94 3.07q.71 1.81.71 4.14 0 1.18-.26 1.59-.25.41-.96.41m45.08-5.06q0 3.34-1.1 6.18-1.1 2.85-3.12 4.93-2.01 2.07-4.85 3.24-2.83 1.17-6.3 1.17-3.44 0-6.28-1.17-2.83-1.17-4.86-3.24-2.02-2.08-3.14-4.93-1.11-2.84-1.11-6.18t1.11-6.19q1.12-2.84 3.14-4.92 2.03-2.08 4.86-3.25 2.84-1.16 6.28-1.16 2.31 0 4.35.53 2.04.54 3.74 1.52 1.7.97 3.05 2.37 1.36 1.39 2.3 3.12.95 1.72 1.44 3.73.49 2.02.49 4.25m-5.77 0q0-2.5-.67-4.49-.67-1.98-1.91-3.37-1.24-1.38-3.02-2.12-1.77-.73-4-.73-2.22 0-4 .73-1.77.74-3.02 2.12-1.25 1.39-1.92 3.37-.68 1.99-.68 4.49t.68 4.48q.67 1.99 1.92 3.36 1.25 1.38 3.02 2.11 1.78.74 4 .74 2.23 0 4-.74 1.78-.73 3.02-2.11 1.24-1.37 1.91-3.36.67-1.98.67-4.48m14.51-5.06.32 2.43q1-1.93 2.39-3.03 1.39-1.11 3.28-1.11 1.49 0 2.39.66l-.34 3.88q-.1.38-.3.54-.2.15-.54.15-.31 0-.93-.1-.62-.11-1.21-.11-.86 0-1.53.26-.67.25-1.21.72-.53.47-.94 1.14-.41.68-.77 1.54v13.27h-5.19v-21.55h3.05q.8 0 1.11.29.32.28.42 1.02m22.47 14.67v-3.63q-2.25.11-3.78.39t-2.46.72q-.92.45-1.32 1.03-.4.59-.4 1.28 0 1.37.81 1.96t2.11.59q1.6 0 2.76-.58 1.17-.58 2.28-1.76m-10.96-11.31-.93-1.66q3.72-3.41 8.95-3.41 1.89 0 3.38.62t2.52 1.73q1.03 1.1 1.57 2.63.53 1.53.53 3.36v13.61h-2.35q-.74 0-1.13-.22-.4-.22-.63-.89l-.47-1.56q-.82.74-1.59 1.29-.78.56-1.62.94t-1.8.58q-.95.2-2.11.2-1.36 0-2.52-.37-1.15-.37-1.99-1.1-.84-.74-1.3-1.83t-.46-2.54q0-.82.27-1.63t.89-1.54q.62-.74 1.61-1.39.98-.65 2.42-1.13 1.44-.49 3.35-.79 1.91-.31 4.37-.37v-1.26q0-2.16-.92-3.2-.93-1.04-2.67-1.04-1.26 0-2.09.29-.83.3-1.46.67-.63.36-1.14.66-.52.29-1.15.29-.54 0-.92-.28-.38-.29-.61-.66m36.41 11.78 1.49 1.89q-1.42 1.68-3.22 2.46-1.8.79-3.71.98l-.27 1.05q1.97.46 2.76 1.25t.79 1.88q0 .71-.37 1.28t-1.05.97-1.62.61q-.93.21-2.06.21-.86 0-1.62-.12-.76-.11-1.47-.35l.46-1.61q.13-.49.61-.49.29 0 .65.16t1.03.16q.69 0 1.04-.26.35-.27.35-.64 0-.61-.76-.88-.76-.26-2.33-.49l.92-2.75q-1.76-.25-3.27-1.1t-2.63-2.25q-1.11-1.4-1.75-3.33t-.64-4.35q0-2.37.68-4.39.68-2.03 2.01-3.51 1.32-1.48 3.27-2.32 1.96-.84 4.5-.84 2.41 0 4.23.77 1.81.78 3.26 2.23l-1.36 1.89q-.23.29-.45.46t-.64.17q-.4 0-.78-.24t-.9-.55q-.53-.3-1.25-.54-.73-.24-1.8-.24-1.36 0-2.39.49t-1.71 1.42q-.69.92-1.02 2.23-.34 1.32-.34 2.97 0 1.73.37 3.07t1.06 2.26q.69.91 1.68 1.38.99.48 2.23.48 1.23 0 2-.31.77-.3 1.29-.67.53-.37.92-.67.38-.31.87-.31.63 0 .94.49m16.15-.47v-3.63q-2.25.11-3.78.39t-2.46.72q-.92.45-1.32 1.03-.4.59-.4 1.28 0 1.37.81 1.96t2.11.59q1.6 0 2.76-.58 1.17-.58 2.28-1.76m-10.96-11.31-.92-1.66q3.71-3.41 8.94-3.41 1.89 0 3.38.62t2.52 1.73q1.03 1.1 1.57 2.63.53 1.53.53 3.36v13.61h-2.35q-.73 0-1.13-.22t-.63-.89l-.47-1.56q-.81.74-1.59 1.29-.78.56-1.62.94t-1.79.58q-.96.2-2.11.2-1.37 0-2.52-.37-1.16-.37-2-1.1-.84-.74-1.3-1.83t-.46-2.54q0-.82.27-1.63t.89-1.54q.62-.74 1.61-1.39t2.42-1.13q1.44-.49 3.35-.79 1.91-.31 4.37-.37v-1.26q0-2.16-.92-3.2-.93-1.04-2.67-1.04-1.26 0-2.09.29-.83.3-1.46.67-.63.36-1.14.66-.52.29-1.15.29-.54 0-.92-.28-.38-.29-.61-.66m9.79-11.66q.63 0 .98-.35.36-.34.36-1.25h3.15q0 1.18-.33 2.14-.32.95-.89 1.63-.57.69-1.35 1.05-.79.37-1.74.37-.75 0-1.4-.27t-1.22-.59q-.57-.31-1.06-.59-.49-.27-.91-.27-.61 0-.96.37-.35.36-.35 1.25h-3.21q0-1.18.33-2.13.32-.96.91-1.64.59-.69 1.37-1.06.79-.38 1.72-.38.75 0 1.41.27.67.27 1.23.59.57.31 1.05.59.49.27.91.27m20.64 6.66q2.39 0 4.36.77 1.96.78 3.36 2.21 1.39 1.43 2.15 3.49.75 2.05.75 4.59 0 2.57-.75 4.62-.76 2.06-2.15 3.51-1.4 1.45-3.36 2.23-1.97.78-4.36.78-2.42 0-4.39-.78t-3.37-2.23-2.16-3.51q-.77-2.05-.77-4.62 0-2.54.77-4.59.76-2.06 2.16-3.49t3.37-2.21q1.97-.77 4.39-.77m0 18.2q2.69 0 3.98-1.8 1.29-1.81 1.29-5.29 0-3.49-1.29-5.32-1.29-1.82-3.98-1.82-2.73 0-4.04 1.83-1.32 1.84-1.32 5.31 0 3.46 1.32 5.28 1.31 1.81 4.04 1.81"/></svg>