<svg xmlns="http://www.w3.org/2000/svg" width="400" height="400" viewBox="0 0 400 400"><rect width="100%" height="100%" fill="#DDDDDD"/><path fill="#999999" d="M85.425 200.295h3.72q1.37 0 2.39-.34 1.02-.35 1.69-.98.68-.64 1.01-1.56.33-.91.33-2.04 0-1.08-.33-1.94-.33-.87-1-1.48-.66-.62-1.68-.94t-2.41-.32h-3.72zm-4.97-13.45h8.69q2.69 0 4.65.63t3.23 1.76q1.28 1.12 1.9 2.7.62 1.57.62 3.44 0 1.94-.65 3.56t-1.94 2.78q-1.3 1.17-3.25 1.82-1.95.64-4.56.64h-3.72v9.42h-4.97zm32.21 21.85v-3.2q-1.98.09-3.33.34t-2.17.64q-.81.39-1.16.9-.36.52-.36 1.13 0 1.21.72 1.72.71.52 1.86.52 1.4 0 2.43-.51t2.01-1.54m-9.66-9.97-.81-1.47q3.27-2.99 7.88-2.99 1.66 0 2.97.54 1.32.55 2.22 1.52.91.97 1.38 2.32t.47 2.96v11.99h-2.07q-.64 0-1-.19-.35-.2-.55-.79l-.41-1.37q-.72.65-1.4 1.14-.69.49-1.43.82t-1.58.51-1.86.18q-1.2 0-2.22-.33-1.02-.32-1.76-.97t-1.14-1.61q-.41-.96-.41-2.24 0-.72.24-1.43t.79-1.36q.54-.65 1.41-1.22t2.14-1q1.26-.43 2.95-.69 1.68-.27 3.85-.33v-1.11q0-1.9-.82-2.82-.81-.91-2.35-.91-1.11 0-1.84.25-.73.26-1.28.59-.56.32-1.01.58-.46.26-1.01.26-.48 0-.81-.25-.34-.25-.54-.58m31.02-2.06-1.03 1.65q-.19.3-.39.42t-.52.12q-.33 0-.71-.19-.38-.18-.88-.42-.5-.23-1.14-.41-.64-.19-1.51-.19-1.35 0-2.11.58-.77.57-.77 1.49 0 .62.4 1.03.39.42 1.05.73.66.32 1.49.57t1.69.54q.86.3 1.7.68.83.38 1.48.96.66.58 1.06 1.4.4.81.4 1.96 0 1.37-.49 2.52-.49 1.16-1.46 2-.96.84-2.37 1.31-1.42.48-3.27.48-.98 0-1.91-.18-.94-.18-1.8-.49t-1.59-.74-1.28-.92l1.05-1.74q.2-.32.48-.48.28-.17.7-.17.43 0 .81.24t.88.52q.5.27 1.17.51.68.25 1.71.25.82 0 1.4-.2.58-.19.96-.51.38-.31.56-.73.17-.41.17-.86 0-.66-.39-1.09-.4-.43-1.06-.74t-1.5-.56-1.72-.55-1.72-.69q-.84-.4-1.5-1.01-.65-.61-1.05-1.5t-.4-2.15q0-1.16.46-2.22.47-1.05 1.36-1.84.9-.78 2.24-1.26 1.34-.47 3.1-.47 1.96 0 3.57.65t2.68 1.7m9.98 17.23q-2.48 0-3.81-1.4-1.32-1.4-1.32-3.86v-10.6h-1.94q-.37 0-.63-.24t-.26-.72v-1.81l3.05-.5.96-5.18q.1-.37.36-.58.26-.2.66-.2h2.37v5.98h5.07v3.25h-5.07v10.29q0 .89.43 1.39.44.49 1.2.49.42 0 .71-.1t.5-.21.38-.21.33-.1q.21 0 .34.1.12.1.27.3l1.37 2.22q-1 .84-2.29 1.26-1.3.43-2.68.43m15.83-19.58q2.11 0 3.84.69 1.73.68 2.96 1.94t1.9 3.07q.66 1.81.66 4.05 0 2.26-.66 4.07-.67 1.82-1.9 3.09-1.23 1.28-2.96 1.96-1.73.69-3.84.69-2.13 0-3.87-.69-1.73-.68-2.96-1.96-1.23-1.27-1.91-3.09-.68-1.81-.68-4.07 0-2.24.68-4.05t1.91-3.07 2.96-1.94q1.74-.69 3.87-.69m0 16.04q2.37 0 3.51-1.59 1.13-1.59 1.13-4.66t-1.13-4.68q-1.14-1.61-3.51-1.61-2.4 0-3.56 1.62t-1.16 4.67 1.16 4.65 3.56 1.6m16.89-14.59.28 2.14q.89-1.7 2.11-2.67t2.88-.97q1.32 0 2.11.57l-.29 3.42q-.1.34-.27.48-.18.13-.47.13-.28 0-.83-.09-.54-.09-1.06-.09-.76 0-1.35.22t-1.06.64q-.48.42-.84 1.01t-.67 1.35v11.69h-4.57v-18.98h2.68q.7 0 .98.25t.37.9m25.11 7.73h8.51l-3.26-8.9q-.24-.59-.5-1.41-.26-.81-.52-1.75-.24.94-.5 1.76-.26.83-.5 1.44zm6.79-16.65 10.5 26.75h-3.84q-.65 0-1.06-.32-.41-.33-.61-.81l-2-5.46h-11.08l-2 5.46q-.14.43-.57.78t-1.05.35h-3.89l10.53-26.75zm24.34 7.77h4.57v18.98h-2.79q-.91 0-1.15-.83l-.31-1.52q-1.17 1.18-2.58 1.92-1.4.73-3.31.73-1.55 0-2.74-.53-1.2-.53-2.01-1.49-.82-.96-1.23-2.29-.42-1.32-.42-2.91v-12.06h4.57v12.06q0 1.74.81 2.69.8.96 2.41.96 1.18 0 2.22-.53t1.96-1.45zm19.54 8.99 6.49 9.99h-4.4q-.5 0-.81-.26-.3-.26-.51-.59l-4.01-6.61q-.09.32-.21.6-.12.27-.27.51l-3.55 5.5q-.21.31-.5.58-.3.27-.74.27h-4.09l6.51-9.79-6.25-9.19h4.4q.5 0 .74.14t.43.45l3.97 6.33q.21-.63.58-1.24l3.2-5q.41-.68 1.05-.68h4.2zm9.01-8.99h4.59v18.98h-4.59zm5.21-5.53q0 .59-.24 1.11t-.63.9q-.4.39-.94.62-.54.24-1.15.24-.59 0-1.12-.24-.52-.23-.91-.62-.39-.38-.62-.9t-.23-1.11q0-.61.23-1.15t.62-.92q.39-.39.91-.62.53-.24 1.12-.24.61 0 1.15.24.54.23.94.62.39.38.63.92t.24 1.15m4.09-2.98h4.57v27.49h-4.57zm9.29 8.51h4.59v18.98h-4.59zm5.22-5.53q0 .59-.24 1.11t-.64.9q-.4.39-.94.62-.53.24-1.14.24-.6 0-1.12-.24-.53-.23-.92-.62-.39-.38-.62-.9t-.23-1.11q0-.61.23-1.15t.62-.92q.39-.39.92-.62.52-.24 1.12-.24.61 0 1.14.24.54.23.94.62.4.38.64.92t.24 1.15m14.06 19.61v-3.2q-1.98.09-3.33.34t-2.17.64q-.81.39-1.16.9-.35.52-.35 1.13 0 1.21.71 1.72.71.52 1.86.52 1.4 0 2.43-.51t2.01-1.54m-9.66-9.97-.81-1.47q3.27-2.99 7.88-2.99 1.66 0 2.98.54 1.31.55 2.22 1.52.9.97 1.37 2.32.48 1.35.48 2.96v11.99h-2.08q-.64 0-1-.19-.35-.2-.55-.79l-.41-1.37q-.72.65-1.4 1.14-.69.49-1.43.82t-1.58.51-1.86.18q-1.2 0-2.22-.33-1.02-.32-1.76-.97t-1.14-1.61q-.41-.96-.41-2.24 0-.72.24-1.43t.79-1.36q.54-.65 1.41-1.22t2.14-1 2.95-.69q1.68-.27 3.85-.33v-1.11q0-1.9-.82-2.82-.81-.91-2.35-.91-1.11 0-1.84.25-.73.26-1.28.59-.56.32-1.01.58t-1.01.26q-.48 0-.81-.25-.34-.25-.54-.58m22.44-2.96.28 2.14q.89-1.7 2.11-2.67t2.88-.97q1.32 0 2.11.57l-.29 3.42q-.1.34-.27.48-.18.13-.47.13-.28 0-.83-.09-.54-.09-1.06-.09-.76 0-1.35.22t-1.07.64q-.47.42-.83 1.01t-.67 1.35v11.69h-4.57v-18.98h2.68q.7 0 .98.25t.37.9"/></svg>