<svg xmlns="http://www.w3.org/2000/svg" width="400" height="400" viewBox="0 0 400 400"><rect width="100%" height="100%" fill="#DDDDDD"/><path fill="#999999" d="M86.11 200.32h4.02q1.48 0 2.58-.37t1.83-1.06 1.09-1.68.36-2.21q0-1.16-.36-2.1t-1.08-1.6-1.82-1.01-2.6-.35h-4.02zm-5.38-14.54h9.4q2.9 0 5.02.68t3.5 1.9 2.05 2.92.67 3.72q0 2.1-.7 3.85t-2.1 3.01-3.51 1.96-4.93.7h-4.02v10.18h-5.38zm34.82 23.62v-3.46q-2.14.1-3.6.37t-2.34.69-1.26.98-.38 1.22q0 1.3.77 1.86t2.01.56q1.52 0 2.63-.55t2.17-1.67m-10.44-10.78-.88-1.58q3.54-3.24 8.52-3.24 1.8 0 3.22.59t2.4 1.64 1.49 2.51.51 3.2v12.96h-2.24q-.7 0-1.08-.21t-.6-.85l-.44-1.48q-.78.7-1.52 1.23t-1.54.89-1.71.55-2.01.19q-1.3 0-2.4-.35t-1.9-1.05-1.24-1.74-.44-2.42q0-.78.26-1.55t.85-1.47 1.53-1.32 2.31-1.08 3.19-.75 4.16-.35v-1.2q0-2.06-.88-3.05t-2.54-.99q-1.2 0-1.99.28t-1.39.63-1.09.63-1.09.28q-.52 0-.88-.27t-.58-.63m33.54-2.22-1.12 1.78q-.2.32-.42.45t-.56.13q-.36 0-.77-.2t-.95-.45-1.23-.45-1.63-.2q-1.46 0-2.29.62t-.83 1.62q0 .66.43 1.11t1.14.79 1.61.61 1.83.59 1.83.73 1.61 1.04 1.14 1.51.43 2.12q0 1.48-.53 2.73t-1.57 2.16-2.57 1.42-3.53.51q-1.06 0-2.07-.19t-1.94-.53-1.72-.8-1.39-1l1.14-1.88q.22-.34.52-.52t.76-.18.87.26.95.56 1.27.56 1.85.26q.88 0 1.51-.21t1.04-.55.6-.79.19-.93q0-.72-.43-1.18t-1.14-.8-1.62-.61-1.86-.59-1.86-.75-1.62-1.09-1.14-1.62-.43-2.32q0-1.26.5-2.4t1.47-1.99 2.42-1.36 3.35-.51q2.12 0 3.86.7t2.9 1.84m10.78 18.62q-2.68 0-4.11-1.51t-1.43-4.17v-11.46h-2.1q-.4 0-.68-.26t-.28-.78v-1.96l3.3-.54 1.04-5.6q.1-.4.38-.62t.72-.22h2.56v6.46h5.48v3.52h-5.48V209q0 .96.47 1.5t1.29.54q.46 0 .77-.11t.54-.23.41-.23.36-.11q.22 0 .36.11t.3.33l1.48 2.4q-1.08.9-2.48 1.36t-2.9.46m17.12-21.16q2.28 0 4.15.74t3.2 2.1 2.05 3.32.72 4.38q0 2.44-.72 4.4t-2.05 3.34-3.2 2.12-4.15.74q-2.3 0-4.18-.74t-3.21-2.12-2.06-3.34-.73-4.4q0-2.42.73-4.38t2.06-3.32 3.21-2.1 4.18-.74m0 17.34q2.56 0 3.79-1.72t1.23-5.04-1.23-5.06-3.79-1.74q-2.6 0-3.85 1.75t-1.25 5.05 1.25 5.03 3.85 1.73m18.26-15.78.3 2.32q.96-1.84 2.28-2.89t3.12-1.05q1.42 0 2.28.62l-.32 3.7q-.1.36-.29.51t-.51.15q-.3 0-.89-.1t-1.15-.1q-.82 0-1.46.24t-1.15.69-.9 1.09-.73 1.46v12.64h-4.94v-20.52h2.9q.76 0 1.06.27t.4.97m41.26-9.64v4.42h-8.72v24.5h-5.38v-24.5h-8.72v-4.42zm3.18 8.4h4.96v20.52h-4.96zm5.64-5.98q0 .64-.26 1.2t-.69.98-1.01.67-1.24.25q-.64 0-1.21-.25t-.99-.67-.67-.98-.25-1.2q0-.66.25-1.24t.67-1 .99-.67 1.21-.25q.66 0 1.24.25t1.01.67.69 1 .26 1.24m11.2 26.82q-2.68 0-4.11-1.51t-1.43-4.17v-11.46h-2.1q-.4 0-.68-.26t-.28-.78v-1.96l3.3-.54 1.04-5.6q.1-.4.38-.62t.72-.22h2.56v6.46h5.48v3.52h-5.48V209q0 .96.47 1.5t1.29.54q.46 0 .77-.11t.54-.23.41-.23.36-.11q.22 0 .36.11t.3.33l1.48 2.4q-1.08.9-2.48 1.36t-2.9.46m20.78-20.84h4.94v20.52h-3.02q-.98 0-1.24-.9l-.34-1.64q-1.26 1.28-2.78 2.07t-3.58.79q-1.68 0-2.97-.57t-2.17-1.61-1.33-2.47-.45-3.15v-13.04h4.94v13.04q0 1.88.87 2.91t2.61 1.03q1.28 0 2.4-.57t2.12-1.57zm9.88-9.2h4.94v29.72h-4.94zm20.72 24.42v-3.46q-2.14.1-3.6.37t-2.34.69-1.26.98-.38 1.22q0 1.3.77 1.86t2.01.56q1.52 0 2.63-.55t2.17-1.67m-10.44-10.78-.88-1.58q3.54-3.24 8.52-3.24 1.8 0 3.22.59t2.4 1.64 1.49 2.51.51 3.2v12.96h-2.24q-.7 0-1.08-.21t-.6-.85l-.44-1.48q-.78.7-1.52 1.23t-1.54.89-1.71.55-2.01.19q-1.3 0-2.4-.35t-1.9-1.05-1.24-1.74-.44-2.42q0-.78.26-1.55t.85-1.47 1.53-1.32 2.31-1.08 3.19-.75 4.16-.35v-1.2q0-2.06-.88-3.05t-2.54-.99q-1.2 0-1.99.28t-1.39.63-1.09.63-1.09.28q-.52 0-.88-.27t-.58-.63m24.26-3.2.3 2.32q.96-1.84 2.28-2.89t3.12-1.05q1.42 0 2.28.62l-.32 3.7q-.1.36-.29.51t-.51.15q-.3 0-.89-.1t-1.15-.1q-.82 0-1.46.24t-1.15.69-.9 1.09-.73 1.46v12.64h-4.94v-20.52h2.9q.76 0 1.06.27t.4.97"/></svg>