<svg xmlns="http://www.w3.org/2000/svg" width="400" height="400" viewBox="0 0 400 400"><rect width="100%" height="100%" fill="#DDDDDD"/><path fill="#999999" d="M88.42 203q.25 0 .45.19l1.22 1.33q-1.01 1.25-2.49 1.92-1.48.66-3.55.66-1.85 0-3.33-.63t-2.52-1.76q-1.05-1.12-1.61-2.69-.55-1.56-.55-3.41 0-1.88.59-3.44.6-1.56 1.69-2.68 1.09-1.13 2.59-1.76 1.51-.62 3.34-.62 1.81 0 3.22.6 1.41.59 2.4 1.56l-1.03 1.44q-.1.13-.24.24-.14.1-.4.1-.17 0-.35-.1-.19-.09-.41-.24-.21-.14-.5-.31-.29-.18-.67-.32t-.88-.24-1.15-.1q-1.12 0-2.05.4-.92.39-1.59 1.15-.67.75-1.03 1.84-.37 1.08-.37 2.48t.4 2.49q.39 1.09 1.07 1.84t1.6 1.15q.92.39 1.98.39.63 0 1.14-.07t.94-.22q.44-.15.82-.38.39-.24.77-.58.11-.1.24-.17.12-.06.26-.06m8.57-8.06q1.31 0 2.39.42 1.07.43 1.84 1.21.76.78 1.17 1.91.42 1.13.42 2.52 0 1.4-.42 2.53-.41 1.12-1.17 1.92-.77.79-1.84 1.22-1.08.42-2.39.42-1.32 0-2.4-.42-1.09-.43-1.85-1.22-.76-.8-1.18-1.92-.42-1.13-.42-2.53 0-1.39.42-2.52t1.18-1.91 1.85-1.21q1.08-.42 2.4-.42m0 9.97q1.47 0 2.18-.99t.71-2.9-.71-2.91-2.18-1q-1.5 0-2.21 1.01-.72 1-.72 2.9t.72 2.89q.71 1 2.21 1m10.45-9.27.2.93q.35-.36.75-.66.4-.31.84-.52t.95-.33 1.1-.12q.97 0 1.72.32.74.33 1.25.92.5.6.75 1.42.26.82.26 1.81v7.51h-2.84v-7.51q0-1.08-.49-1.67-.5-.6-1.51-.6-.73 0-1.38.34-.64.33-1.22.91v8.53h-2.84v-11.8h1.74q.55 0 .72.52m14.45 11.46q-1.54 0-2.37-.86-.82-.87-.82-2.4v-6.59h-1.21q-.23 0-.39-.15t-.16-.45v-1.13l1.9-.31.6-3.22q.05-.23.22-.35.16-.13.41-.13h1.47v3.71h3.15v2.03h-3.15v6.39q0 .55.27.86.27.32.74.32.27 0 .45-.07.17-.06.31-.13.13-.07.23-.13.11-.07.21-.07.13 0 .21.07.08.06.17.19l.85 1.38q-.62.52-1.43.78-.8.26-1.66.26m7.13-11.27.17 1.34q.55-1.06 1.31-1.66.76-.61 1.79-.61.82 0 1.32.36l-.19 2.13q-.06.2-.17.29-.1.09-.29.09-.17 0-.51-.06t-.66-.06q-.47 0-.84.14t-.66.4q-.3.25-.52.62t-.42.84v7.27h-2.84v-11.8h1.67q.43 0 .61.16.17.15.23.55m6.16-.71h2.85v11.8h-2.85zm3.24-3.44q0 .37-.15.69t-.39.57q-.25.24-.58.38-.34.14-.72.14-.36 0-.69-.14t-.57-.38q-.24-.25-.39-.57-.14-.32-.14-.69 0-.38.14-.71.15-.33.39-.58.24-.24.57-.38t.69-.14q.38 0 .72.14.33.14.58.38.24.25.39.58t.15.71m5.35 6.89v5.29q.48.59 1.05.83t1.21.24q.65 0 1.17-.24.53-.23.9-.73.36-.5.56-1.28.19-.77.19-1.85 0-1.95-.64-2.82t-1.85-.87q-.82 0-1.43.38-.61.37-1.16 1.05m0-8.74v6.74q.71-.75 1.58-1.19t1.99-.44q1.02 0 1.84.4t1.4 1.16q.59.75.9 1.82t.31 2.4q0 1.44-.36 2.61t-1.02 2.01q-.66.83-1.59 1.29t-2.07.46q-.55 0-1-.11t-.83-.3q-.38-.2-.69-.48-.32-.28-.61-.63l-.12.8q-.07.3-.24.42-.17.13-.45.13h-1.88v-17.09zm17.54 5.29h2.84v11.8h-1.74q-.56 0-.71-.52l-.2-.94q-.72.74-1.59 1.19-.88.45-2.06.45-.97 0-1.71-.32-.74-.33-1.25-.93-.5-.6-.76-1.42t-.26-1.81v-7.5h2.84v7.5q0 1.08.5 1.67t1.5.59q.74 0 1.38-.32.64-.33 1.22-.91zm11.88 8.75v-1.99q-1.23.06-2.07.22-.84.15-1.35.39-.5.24-.72.57-.22.32-.22.7 0 .74.44 1.07.45.32 1.16.32.87 0 1.51-.32.64-.31 1.25-.96m-6-6.2-.51-.9q2.03-1.87 4.9-1.87 1.03 0 1.85.34t1.38.94q.56.61.86 1.45.29.84.29 1.84v7.45h-1.29q-.4 0-.62-.12t-.34-.49l-.26-.85q-.45.4-.87.71-.43.3-.89.51t-.98.31q-.52.11-1.16.11-.74 0-1.38-.2-.63-.2-1.09-.6t-.71-1-.25-1.39q0-.45.15-.89.14-.45.48-.85t.88-.76 1.33-.62 1.84-.43q1.04-.17 2.39-.2v-.69q0-1.19-.51-1.76-.5-.57-1.46-.57-.69 0-1.14.17-.46.16-.8.36l-.63.36q-.28.16-.63.16-.29 0-.5-.15-.21-.16-.33-.37m26.23-1.09-.75 1.04q-.13.16-.25.25t-.35.09q-.22 0-.42-.13-.21-.13-.5-.3t-.68-.3q-.4-.13-.99-.13-.74 0-1.31.27-.56.27-.93.78-.38.5-.56 1.22-.19.72-.19 1.63 0 .94.2 1.68.21.73.59 1.23t.92.76 1.21.26q.68 0 1.1-.17.42-.16.71-.36.29-.21.5-.37.21-.17.48-.17.34 0 .52.27l.81 1.03q-.47.55-1.02.93-.55.37-1.15.59-.59.23-1.22.32-.62.09-1.24.09-1.1 0-2.06-.41-.97-.4-1.69-1.19-.73-.78-1.15-1.91t-.42-2.58q0-1.3.38-2.41.37-1.11 1.1-1.92.72-.81 1.79-1.27t2.46-.46q1.32 0 2.32.42.99.43 1.79 1.22m7.1-1.64q1.31 0 2.39.42 1.08.43 1.84 1.21t1.18 1.91q.41 1.13.41 2.52 0 1.4-.41 2.53-.42 1.12-1.18 1.92-.76.79-1.84 1.22-1.08.42-2.39.42-1.32 0-2.4-.42-1.08-.43-1.85-1.22-.76-.8-1.18-1.92-.42-1.13-.42-2.53 0-1.39.42-2.52t1.18-1.91q.77-.78 1.85-1.21 1.08-.42 2.4-.42m0 9.97q1.48 0 2.18-.99.71-.99.71-2.9t-.71-2.91q-.7-1-2.18-1-1.49 0-2.21 1.01-.72 1-.72 2.9t.72 2.89q.72 1 2.21 1m10.84 2.01h-2.84v-11.8h1.73q.55 0 .73.52l.18.87q.31-.34.65-.63t.73-.49q.38-.21.82-.33.45-.12.98-.12 1.11 0 1.83.6t1.07 1.6q.28-.58.69-1 .42-.42.91-.69.5-.26 1.06-.39.55-.12 1.12-.12.97 0 1.73.3t1.28.87q.52.58.79 1.4.27.83.27 1.9v7.51h-2.84v-7.51q0-1.13-.5-1.7-.49-.57-1.45-.57-.43 0-.81.15-.37.15-.65.44-.28.28-.45.7-.16.43-.16.98v7.51h-2.85v-7.51q0-1.18-.48-1.72-.47-.55-1.39-.55-.62 0-1.16.31-.53.3-.99.83zm24.64-8.31q0 1.36.37 2.45t1.05 1.84q.69.75 1.66 1.16.97.4 2.19.4t2.19-.4q.97-.41 1.65-1.16t1.05-1.84q.36-1.09.36-2.45 0-1.37-.36-2.46-.37-1.09-1.05-1.85-.68-.75-1.65-1.16-.97-.4-2.19-.4t-2.19.4q-.97.41-1.66 1.16-.68.76-1.05 1.85t-.37 2.46m10.33 6.96 4.22 4.6H248q-.56 0-1-.15-.44-.14-.81-.55l-2.44-2.69q-.58.16-1.2.24-.61.08-1.28.08-1.89 0-3.44-.63-1.55-.64-2.66-1.78t-1.72-2.7-.61-3.38q0-1.83.61-3.39t1.72-2.7 2.66-1.77q1.55-.64 3.44-.64 1.26 0 2.38.29 1.11.29 2.05.83.93.53 1.67 1.3.74.76 1.26 1.71.52.94.79 2.04.27 1.11.27 2.33 0 1.11-.23 2.13t-.67 1.9q-.43.89-1.05 1.63t-1.41 1.3m9.16-7.37h1.94q.87 0 1.52-.22.65-.21 1.07-.6.42-.38.63-.91.2-.53.2-1.17 0-1.26-.83-1.94t-2.55-.68h-1.98zm5.73 2.58 4.16 6.14h-2.79q-.79 0-1.15-.62l-3.5-5.33q-.19-.29-.43-.42-.23-.13-.69-.13h-1.33v6.5h-3.09v-16.63h5.07q1.69 0 2.91.35 1.21.35 1.98.99.78.63 1.15 1.51t.37 1.93q0 .84-.25 1.59t-.71 1.36q-.47.61-1.15 1.07-.69.46-1.56.72.3.18.55.41.25.24.46.56M284.2 203q.25 0 .45.19l1.22 1.33q-1.02 1.25-2.49 1.92-1.48.66-3.55.66-1.85 0-3.33-.63t-2.53-1.76q-1.04-1.12-1.6-2.69-.56-1.56-.56-3.41 0-1.88.6-3.44t1.68-2.68q1.09-1.13 2.6-1.76 1.5-.62 3.33-.62 1.82 0 3.23.6 1.41.59 2.4 1.56l-1.04 1.44q-.09.13-.23.24-.15.1-.4.1-.17 0-.36-.1-.18-.09-.4-.24-.22-.14-.51-.31-.28-.18-.66-.32t-.88-.24-1.16-.1q-1.11 0-2.04.4-.93.39-1.59 1.15-.67.75-1.04 1.84-.37 1.08-.37 2.48t.4 2.49 1.08 1.84 1.6 1.15q.92.39 1.97.39.64 0 1.15-.07t.94-.22.82-.38q.38-.24.76-.58.12-.1.24-.17.13-.06.27-.06m8.57-8.06q1.31 0 2.38.42 1.08.43 1.84 1.21.77.78 1.18 1.91t.41 2.52q0 1.4-.41 2.53-.41 1.12-1.18 1.92-.76.79-1.84 1.22-1.07.42-2.38.42-1.33 0-2.41-.42-1.08-.43-1.84-1.22-.77-.8-1.19-1.92-.42-1.13-.42-2.53 0-1.39.42-2.52t1.19-1.91q.76-.78 1.84-1.21 1.08-.42 2.41-.42m0 9.97q1.47 0 2.17-.99.71-.99.71-2.9t-.71-2.91q-.7-1-2.17-1-1.5 0-2.22 1.01-.72 1-.72 2.9t.72 2.89q.72 1 2.22 1m15.39-1.49v-5.29q-.48-.58-1.05-.82-.57-.25-1.22-.25t-1.16.25q-.52.24-.89.73t-.56 1.24q-.2.75-.2 1.77 0 1.04.17 1.76.16.72.47 1.17.32.46.76.66.45.2 1 .2.89 0 1.51-.37t1.17-1.05m0-13.59H311v17.09h-1.73q-.57 0-.72-.52l-.24-1.14q-.71.82-1.64 1.33-.92.5-2.15.5-.97 0-1.77-.4-.81-.4-1.39-1.17-.58-.76-.9-1.89-.31-1.13-.31-2.58 0-1.31.35-2.43.36-1.13 1.03-1.96t1.6-1.29q.93-.47 2.09-.47.99 0 1.69.31t1.25.84zm7.89 9.83h5.36q0-.55-.15-1.04-.16-.49-.47-.85-.31-.37-.79-.58-.47-.22-1.11-.22-1.23 0-1.93.7-.71.71-.91 1.99m7.25 1.72H316q.06.91.32 1.57.25.66.66 1.09.42.43.99.64.57.22 1.26.22t1.19-.17q.5-.16.87-.35.37-.2.66-.36.28-.16.54-.16.36 0 .53.27l.82 1.03q-.47.55-1.06.93-.59.37-1.22.59-.64.23-1.3.32-.67.09-1.29.09-1.23 0-2.28-.41-1.06-.4-1.84-1.2-.79-.8-1.24-1.98-.44-1.18-.44-2.73 0-1.21.39-2.27.39-1.07 1.12-1.86.73-.78 1.78-1.24t2.38-.46q1.11 0 2.05.35.95.36 1.63 1.04.67.69 1.06 1.68.38 1 .38 2.27 0 .65-.13.87-.14.23-.53.23"/></svg>